<svg width="123" height="147" viewBox="0 0 123 147" fill="none" xmlns="http://www.w3.org/2000/svg">
<path d="M13.4112 37.541L13.6989 37.0709V36.9769L13.8907 36.7066L14.0706 36.4246C18.3512 30.0667 24.101 24.788 30.8531 21.0175L25.3267 10.8872C16.2767 15.8461 8.66178 22.98 3.19778 31.6179C2.95299 32.0011 2.56389 32.2741 2.11496 32.3775C1.66602 32.4809 1.19357 32.4065 0.800321 32.1704C0.421246 31.9206 0.152493 31.5394 0.0480016 31.1034C-0.05649 30.6675 0.0110028 30.2091 0.236905 29.8199C9.26912 15.6951 23.5971 5.61142 40.137 1.73946C56.6769 -2.13251 74.1063 0.516708 88.6737 9.11693C103.241 17.7171 113.782 31.5808 118.027 47.7238C122.273 63.8668 119.883 80.9986 111.373 95.4318L129.223 106.302L145.741 80.2129C145.858 80.0186 146.014 79.8492 146.199 79.7151C146.384 79.581 146.594 79.4847 146.818 79.4321C147.042 79.3794 147.274 79.3715 147.501 79.4087C147.728 79.4459 147.945 79.5275 148.139 79.6487L169.621 92.7053C170.002 92.9532 170.272 93.3344 170.377 93.7711C170.482 94.2078 170.413 94.6671 170.184 95.0557L135.264 150.161C135.017 150.542 134.629 150.813 134.182 150.918C133.734 151.024 133.263 150.954 132.867 150.725L111.385 137.669C111 137.423 110.729 137.038 110.633 136.598C110.536 136.157 110.621 135.697 110.87 135.318L127.388 109.217L109.551 98.3463C105.478 104.472 100.332 109.843 94.3509 114.212C91.8884 116.054 89.2877 117.712 86.571 119.171H86.475C82.1804 121.464 77.6367 123.278 72.9292 124.577C72.7112 124.639 72.4826 124.658 72.257 124.633C72.0314 124.607 71.8134 124.537 71.6156 124.428C71.4179 124.318 71.2446 124.171 71.1058 123.995C70.967 123.819 70.8655 123.617 70.8074 123.402C70.7416 123.185 70.7206 122.957 70.7454 122.733C70.7702 122.508 70.8404 122.29 70.952 122.092C71.0636 121.894 71.2142 121.72 71.3952 121.579C71.5762 121.439 71.784 121.335 72.0062 121.275C75.917 120.209 79.7113 118.768 83.3343 116.973L77.8081 106.784C70.3757 110.463 62.1182 112.248 53.7969 111.975C45.4756 111.702 37.3584 109.379 30.1937 105.221H30.0979H30.0019L29.5224 104.939L29.055 104.622H28.959H28.8631L28.4914 104.387H28.3956L28.2517 104.293L27.9641 104.07H27.8682H27.7722L27.4965 103.881L27.1609 103.647L27.017 103.564C16.9049 96.5594 9.83146 86.0992 7.18728 74.2406C4.54311 62.3819 6.51956 49.9826 12.728 39.4801V39.386L12.8718 39.1981V39.104V39.0218L12.9677 38.8808V38.7868L13.1115 38.5046L13.4112 37.541ZM34.1855 19.3017C37.4053 17.761 40.7909 16.5784 44.279 15.7761C55.2501 13.2828 66.7593 14.5098 76.9272 19.257C87.095 24.0041 95.3206 31.9908 100.261 41.9127C100.488 42.1948 100.728 42.4299 100.968 42.7002C101.159 42.9115 101.293 43.1662 101.358 43.4413C101.423 43.7163 101.417 44.0029 101.34 44.2749C102.415 46.7923 103.269 49.395 103.893 52.0548C105.395 58.2799 105.627 64.735 104.573 71.0481C103.52 77.3612 101.203 83.4076 97.7553 88.8389C93.5508 95.4533 87.7974 100.989 80.9728 104.986L86.4991 115.164C88.5687 113.977 90.5697 112.678 92.4928 111.274C103.691 102.949 111.638 91.1114 115.007 77.7359C118.377 64.3605 116.965 50.2567 111.008 37.7785C105.051 25.3004 94.9082 15.2026 82.2733 9.17085C69.6384 3.13907 55.2755 1.53813 41.5819 4.63515C37.0838 5.70189 32.7153 7.23848 28.5514 9.21849L34.1855 19.3017ZM147.971 83.2919L131.452 109.393L114.933 135.483L133.43 146.777L166.468 94.5386L147.971 83.2919ZM62.6919 52.1136C64.6127 48.251 65.9455 44.1331 66.6478 39.8914C67.8465 34.7557 68.9134 29.7141 72.174 25.1778C72.4411 24.8176 72.8405 24.5734 73.2879 24.4966C73.7352 24.4199 74.1955 24.5167 74.5715 24.7665L74.7154 24.9075C77.6162 27.5686 81.055 29.6025 84.8089 30.8775C86.6445 31.4914 88.4149 32.2786 90.0953 33.2279C87.112 29.9431 83.6647 27.0938 79.8581 24.7665C71.4592 19.6786 61.6211 17.3561 51.7805 18.1384C41.9398 18.9207 32.612 22.7667 25.159 29.1147C25.8183 29.2557 26.4775 29.4438 27.1368 29.6201L27.5205 29.3498C27.7962 29.1148 28.1798 28.9267 28.5034 28.7034C29.8216 26.9993 31.4977 25.5926 33.4183 24.5784C34.2711 24.0843 35.2385 23.812 36.2287 23.7874C37.219 23.7627 38.1992 23.9864 39.0765 24.4374C39.9076 24.9892 40.5638 25.7589 40.9705 26.6586C41.1978 27.2419 41.3547 27.8493 41.438 28.4684C41.7113 28.6391 41.9956 28.7922 42.2891 28.9268C43.5411 29.7355 44.6676 30.7171 45.6336 31.8413C46.5795 32.9793 47.3286 34.2616 47.8513 35.6372C47.9977 36.0157 47.9977 36.4338 47.8513 36.8124L47.4798 37.776L47.2399 38.2931C47.4309 39.3465 47.4309 40.4246 47.2399 41.4779C46.9998 42.7302 46.52 43.9265 45.8255 45.0036C45.1926 46.0309 44.3812 46.9418 43.4279 47.6948C42.621 48.3283 41.714 48.8284 40.7428 49.1756C40.4385 49.5667 40.1059 49.9358 39.7477 50.2802C39.3333 50.8088 38.8763 51.304 38.3811 51.761C38.0945 52.0836 37.6896 52.2821 37.2544 52.3133C36.6079 52.3601 35.9589 52.3601 35.3124 52.3133C35.029 52.3307 34.7448 52.3307 34.4613 52.3133C32.334 54.8488 29.3626 56.5675 26.0701 57.1669C22.3471 57.8307 18.5051 57.1235 15.2813 55.1809C13.8735 54.2972 12.6153 53.2028 11.5531 51.9373L11.1335 51.385C8.03491 62.4124 9.35154 74.1837 14.8138 84.2908L15.1853 83.7854C15.9405 82.716 16.7917 81.6584 17.7387 80.4949C17.9721 80.1894 18.3059 79.9723 18.6838 79.8802C19.0617 79.7882 19.4603 79.8267 19.8125 79.9895C27.4126 83.0451 29.858 86.1829 32.2195 89.2855C34.5012 92.599 37.7896 95.1237 41.6178 96.5013C41.8317 96.5824 42.0267 96.7051 42.191 96.8619C42.3553 97.0188 42.4856 97.2065 42.574 97.414C42.6624 97.6214 42.7072 97.8443 42.7057 98.0691C42.7041 98.294 42.6562 98.5162 42.5648 98.7225C41.8895 100.466 41.3682 102.262 41.0065 104.093C40.8147 104.739 40.6708 105.339 40.5269 105.985C46.3784 107.959 52.5749 108.758 58.7479 108.336C59.1675 107.043 59.5031 105.703 59.8268 104.316C60.7738 100.238 61.7688 96.1721 65.401 92.8816C65.6317 92.671 65.9163 92.5258 66.2246 92.4617C66.5329 92.3975 66.8531 92.4168 67.1512 92.5173C71.3615 93.7363 75.7317 94.3422 80.1217 94.3154C82.9292 94.3712 85.731 94.5869 88.513 94.9617C94.007 89.5279 97.9993 82.8121 100.113 75.4472C102.227 68.0823 102.394 60.3111 100.596 52.8658C100.21 51.1651 99.7056 49.4923 99.0859 47.8594C96.686 51.0729 93.4654 53.6102 89.7478 55.2162C86.0545 56.8579 82.9807 59.5957 80.9608 63.043C80.8429 63.2363 80.6867 63.4045 80.5013 63.5375C80.3159 63.6704 80.1051 63.7655 79.8814 63.8171C79.6578 63.8686 79.4259 63.8755 79.1994 63.8374C78.973 63.7994 78.7567 63.7171 78.5633 63.5954C76.9056 62.6904 75.1829 61.9048 73.4088 61.245C69.4529 59.635 65.4849 57.9661 62.8477 53.9351C62.6726 53.6667 62.5796 53.3548 62.5796 53.0362C62.5796 52.7176 62.6726 52.4056 62.8477 52.1371L62.6919 52.1136ZM70.0522 40.6318C69.311 44.8331 68.0259 48.9245 66.2282 52.807C68.35 55.4864 71.5148 56.7792 74.6195 58.0836C76.0167 58.6311 77.3849 59.247 78.7191 59.9288C80.9952 56.5405 84.2272 53.8742 88.0215 52.2546C91.8732 50.5063 95.1193 47.6917 97.3598 44.1574L97.2279 43.8754C90.431 36.6126 87.0266 35.3669 83.5862 34.0624C80.0657 32.924 76.8075 31.1192 73.9961 28.7504C71.8624 32.3583 70.9752 36.4715 70.0282 40.6318H70.0522ZM42.4809 62.6081C43.2361 62.2438 43.9913 61.8679 44.7465 61.5506C45.4366 61.2322 46.1451 60.9535 46.8684 60.7161C48.4133 59.4409 50.3225 58.6651 52.3346 58.4949C54.5031 58.349 56.6644 58.8664 58.5202 59.9757C59.4627 60.572 60.3074 61.305 61.0255 62.1498C61.7336 62.9929 62.2927 63.9463 62.6798 64.9703C62.8038 65.3526 62.8038 65.7632 62.6798 66.1456C62.3921 66.8389 62.1045 67.5323 61.7808 68.2257L61.3493 69.1071C61.5942 69.3417 61.7897 69.6213 61.9246 69.9298C62.3131 70.6497 62.5311 71.4462 62.5622 72.26C62.5934 73.0739 62.4368 73.8842 62.1045 74.6307C61.4626 76.1849 60.2769 77.464 58.7599 78.2385C57.3457 78.9868 55.7214 79.2632 54.1327 79.0259C53.1794 78.8592 52.2775 78.4813 51.4956 77.9212C51.3386 78.0429 51.1596 78.1346 50.968 78.1914C50.5485 78.4622 50.087 78.6647 49.6014 78.7908C49.2846 78.9293 48.9499 79.0242 48.6065 79.0728C47.894 79.7153 47.0412 80.1897 46.1132 80.4596H45.9693C45.4598 80.6136 44.9227 80.6596 44.3936 80.5948C43.8646 80.5299 43.3556 80.3557 42.9004 80.0835C42.3443 79.757 41.9016 79.2738 41.6298 78.6968C41.4959 78.4602 41.3836 78.2124 41.2942 77.9564C40.571 77.5508 39.9058 77.0528 39.3162 76.4757C38.5257 75.7068 37.8444 74.8372 37.2904 73.8903C36.7499 72.8742 36.3815 71.7787 36.1995 70.6467C36.0077 69.5303 36.0077 68.3903 36.1995 67.2738C36.2734 66.8079 36.5264 66.3874 36.9067 66.0986C37.7099 65.4523 38.6089 64.8058 39.46 64.2064C40.3471 63.607 41.2941 63.0312 42.3371 62.4906L42.4809 62.6081ZM46.0772 64.7001C45.4179 64.9704 44.7107 65.2994 44.0514 65.6167H43.9553C43.1042 66.1338 42.2052 66.6391 41.402 67.1444C40.5988 67.6498 40.1314 68.0259 39.52 68.4842C39.4819 69.0418 39.51 69.6018 39.6039 70.153C39.7006 70.9209 39.9576 71.661 40.3591 72.3272C40.7061 72.9792 41.1551 73.574 41.6897 74.09C42.2406 74.5848 42.8577 75.004 43.5238 75.3358C43.8056 75.4522 44.0484 75.6439 44.2243 75.8891C44.4003 76.1343 44.5022 76.4231 44.5187 76.7224L44.6626 77.1925C44.6626 77.1925 44.7945 77.1925 44.9384 77.1925H45.0343C45.5988 76.9907 46.1135 76.6744 46.5447 76.2641C46.79 76.0317 47.1054 75.8834 47.4438 75.841C47.7487 75.7888 48.0492 75.7142 48.3428 75.6178C48.6633 75.4963 48.9756 75.355 49.2779 75.1947C49.4697 75.1007 49.6134 75.0067 49.7573 74.9245L49.8532 74.8303C50.081 74.6893 50.2728 74.5483 50.4646 74.4073L50.6085 74.278C50.9928 74.0417 51.4543 73.9575 51.8996 74.0426C52.3448 74.1277 52.7405 74.3758 53.006 74.7364C53.1832 74.9911 53.4139 75.2058 53.6826 75.3659C53.9514 75.526 54.252 75.6278 54.5643 75.6647C55.4219 75.7874 56.2969 75.6322 57.0563 75.2229C57.8157 74.8135 58.4181 74.1723 58.7719 73.3966C58.8972 73.1025 58.9617 72.7869 58.9617 72.4682C58.9617 72.1495 58.8972 71.834 58.7719 71.5398C58.7038 71.3996 58.6057 71.2752 58.4842 71.1755C58.4147 71.0627 58.3205 70.9663 58.2085 70.8934C57.8405 70.6548 57.5741 70.2925 57.4593 69.8749C57.3445 69.4572 57.3892 69.0128 57.5852 68.6252C57.9435 68.0322 58.2599 67.4157 58.5322 66.7802C58.7426 66.3711 58.9307 65.9514 59.0956 65.5228C58.8583 65.0816 58.5772 64.6642 58.2565 64.277C57.7817 63.7202 57.2241 63.2369 56.6023 62.8433C55.3955 62.0853 53.9659 61.7421 52.5385 61.8678C51.1962 61.9565 49.9261 62.4961 48.9422 63.3956C48.75 63.5624 48.5258 63.6902 48.2828 63.7716C47.5276 64.0419 46.8204 64.3239 46.0652 64.653L46.0772 64.7001ZM37.1105 104.657L37.4821 103.223C37.8177 101.79 38.1414 100.356 38.6808 98.9221C34.9053 97.29 31.6796 94.6412 29.3785 91.2833C26.9967 87.7972 23.5892 85.1042 19.6088 83.5622C18.9974 84.3026 18.4819 85.0429 17.9545 85.6893L16.6837 87.4874C20.1719 92.869 24.7898 97.4602 30.2297 100.955L30.6493 101.237H30.7451L31.2246 101.508L31.5963 101.743C33.3664 102.784 35.1954 103.726 37.0746 104.563L37.1105 104.657ZM84.9646 97.9937C83.3103 97.8526 81.5602 97.7587 79.8221 97.7234C75.4716 97.707 71.141 97.1463 66.9355 96.0547C64.6219 98.5462 63.8666 101.837 63.1114 105.08L62.4041 107.901H62.596H63.0155H63.2074C63.6749 107.807 64.1543 107.76 64.6218 107.666H64.8136L65.1852 107.572H65.425C65.6648 107.572 65.9405 107.442 66.1803 107.395H66.42L66.7917 107.301H66.9833H67.1751H67.403H67.5947H67.7386L67.9304 107.207L68.2661 107.113H68.5058H68.6496L68.9853 107.019H69.1772H69.357L69.5487 106.925H69.7405L70.0642 106.784L70.5437 106.643H70.6396C70.9632 106.502 71.2989 106.408 71.5746 106.267C76.372 104.54 80.832 102.02 84.7609 98.8164L84.9646 97.9937ZM12.4283 46.9662C13.3999 49.1132 15.0134 50.9205 17.0554 52.1489C19.5167 53.6532 22.4637 54.1982 25.3148 53.6766C28.0851 53.1826 30.5424 51.6316 32.1477 49.3637C32.35 49.0934 32.6263 48.8847 32.9445 48.762C33.2627 48.6393 33.6099 48.6074 33.9458 48.6702C34.4133 48.7642 34.9407 48.8113 35.4082 48.8583H36.2595C36.5352 48.5762 36.7748 48.2589 37.0625 47.9769C37.3502 47.6948 37.8657 47.0601 38.2613 46.59C38.4912 46.3047 38.8051 46.0954 39.1604 45.9907C39.9039 45.7756 40.5938 45.4115 41.1863 44.9213C41.8476 44.4287 42.4087 43.8187 42.8406 43.1232C43.2929 42.3995 43.6132 41.6042 43.7875 40.7728C43.9301 39.9956 43.9301 39.1996 43.7875 38.4224C43.6994 38.0691 43.7332 37.6972 43.8835 37.3647L44.351 36.1895C44.007 35.3884 43.5467 34.6403 42.9845 33.9683C42.2746 33.1157 41.4284 32.3815 40.479 31.7942C40.2549 31.6522 40.0181 31.5303 39.7717 31.43C39.5799 31.336 39.3521 31.1949 39.1123 31.1009C38.7926 30.9741 38.519 30.7562 38.3267 30.4755C38.1344 30.1949 38.0324 29.8643 38.0336 29.5261C38.0672 28.9944 37.9853 28.4616 37.7937 27.963C37.6866 27.7015 37.5084 27.474 37.2783 27.305C36.9037 27.1799 36.5049 27.1403 36.1123 27.1892C35.7197 27.2381 35.3436 27.3741 35.0127 27.587C33.4899 28.4255 32.1693 29.5759 31.1408 30.9599C30.9845 31.1668 30.7892 31.3422 30.5654 31.4769C30.2233 31.653 29.8947 31.8533 29.5824 32.0762C29.2947 32.3113 28.971 32.5345 28.7313 32.7696C28.4839 32.9974 28.1743 33.15 27.8401 33.2084C27.506 33.2668 27.1616 33.2287 26.8491 33.0987C25.9646 32.7538 25.0441 32.5055 24.1041 32.3583C23.3696 32.2576 22.6269 32.2262 21.8863 32.2643C19.9562 34.2493 18.2335 36.4186 16.7437 38.7397L16.468 39.1981L16.1324 39.7033C14.733 41.9952 13.5302 44.3969 12.5361 46.8838L12.4283 46.9662Z" fill="#1F1F1F" fill-opacity="0.1"/>
</svg>
