<svg width="21" height="19" viewBox="0 0 21 19" fill="none" xmlns="http://www.w3.org/2000/svg">
<path d="M11.4476 16.6554L9.72925 10.9077L3.44823 8.65601L0.713271 11.391C-0.0997363 12.204 -0.0997363 13.5222 0.713271 14.3352L4.76308 18.385C5.07966 18.7016 5.50903 18.8795 5.95675 18.8795H8.52437C8.74605 18.8795 8.96557 18.8358 9.17038 18.751C9.37519 18.6661 9.56129 18.5418 9.71804 18.385L11.4476 16.6554Z" fill="#C5F4FC"/>
<path d="M2.52156 16.1435L0.713242 14.3352C-0.0998828 13.5221 -0.0995703 12.2038 0.713242 11.391L3.44844 8.65576L5.25676 10.4641L2.52156 13.1993C1.70871 14.0121 1.70844 15.3304 2.52156 16.1435Z" fill="#7DDDFA"/>
<path d="M19.6802 7.64461L12.459 0.423398C11.8945 -0.141133 10.9793 -0.141133 10.4147 0.423398L3.83746 7.00066C3.27293 7.5652 3.27293 8.48043 3.83746 9.04496L11.0587 16.2662C11.6232 16.8307 12.5384 16.8307 13.103 16.2662L19.6802 9.68891C20.2448 9.12438 20.2448 8.20914 19.6802 7.64461Z" fill="#E696A6"/>
<path d="M5.4964 10.704L3.83749 9.04507C3.27292 8.4805 3.27292 7.56522 3.83749 7.00065L10.4147 0.423428C10.9793 -0.141143 11.8946 -0.141143 12.4591 0.423428L14.118 2.08233C13.5538 1.51808 12.6385 1.51808 12.0739 2.08265L5.49671 8.65987C4.93218 9.22444 4.93214 10.1397 5.4964 10.704Z" fill="#E17888"/>
</svg>
