<svg width="77" height="95" viewBox="0 0 77 95" fill="none" xmlns="http://www.w3.org/2000/svg">
<path d="M0.0458765 47.5237C0.0458765 40.0402 6.10502 33.263 15.8593 28.4676C16.5822 28.1145 17.3052 27.7955 18.0282 27.4879C17.9364 26.6792 17.8904 25.8705 17.8445 25.1074C17.1675 14.2979 20.0135 5.74378 26.566 1.96217C33.1186 -1.81944 42.0236 0.0371628 51.1008 6.05128C51.732 6.44994 52.409 6.95119 53.0401 7.39541C53.7172 6.95119 54.3599 6.44994 55.0369 6.05128C64.1141 0.0371628 73.0192 -1.75109 79.5603 1.96217C86.0669 5.73239 88.9129 14.2979 88.2358 25.0618C88.2358 25.8249 88.0981 26.6337 88.0178 27.4425C88.7866 27.75 89.4981 28.0689 90.1867 28.422C99.9409 33.2174 106 39.9946 106 47.4781C106 54.9616 99.9409 61.6933 90.1867 66.5456C89.4981 66.8987 88.7866 67.2176 88.0178 67.5251C88.0981 68.3339 88.1899 69.1425 88.2358 69.9057C88.9129 80.7152 86.0669 89.2694 79.5143 93.0396C72.9618 96.8099 64.0682 94.9761 54.991 88.9619C54.3139 88.5177 53.6713 88.062 52.9943 87.6178L51.0549 88.9619C41.9777 94.9761 33.0726 96.7643 26.5201 93.0396H26.4283C19.9331 89.2239 17.1216 80.7038 17.7986 69.9399C17.7986 69.1767 17.8904 68.3681 17.9822 67.5593C17.2593 67.2518 16.5364 66.9329 15.8134 66.5798C6.05914 61.7275 0 55.0072 0 47.5123L0.0458765 47.5237ZM44.0089 47.5237C44.0079 45.7509 44.5372 44.0176 45.5297 42.5438C46.5221 41.0699 47.9331 39.9216 49.5838 39.2445C51.2345 38.5675 53.0505 38.392 54.8017 38.7405C56.5529 39.089 58.1605 39.9457 59.4206 41.202C60.2641 42.0294 60.9337 43.0146 61.3908 44.1008C61.8478 45.1869 62.0831 46.3524 62.0831 47.5294C62.0831 48.7065 61.8478 49.8718 61.3908 50.9579C60.9337 52.044 60.2641 53.0293 59.4206 53.8567C58.1555 55.1026 56.5476 55.9496 54.7991 56.2915C53.0505 56.6333 51.2392 56.4548 49.5925 55.7781C47.9459 55.1015 46.5374 53.957 45.544 52.4884C44.5506 51.0198 44.0165 49.2926 44.0089 47.5237ZM48.209 42.7283C46.937 44.0073 46.2238 45.7322 46.2238 47.5294C46.2238 49.3266 46.937 51.0514 48.209 52.3304C49.5029 53.5813 51.2339 54.2874 53.0401 54.3009C53.9596 54.3384 54.8772 54.191 55.7378 53.8675C56.5984 53.5441 57.3843 53.0513 58.0482 52.4189C58.7121 51.7864 59.2403 51.0272 59.6011 50.1869C59.962 49.3467 60.148 48.4428 60.148 47.5294C60.148 46.616 59.962 45.712 59.6011 44.8717C59.2403 44.0315 58.7121 43.2723 58.0482 42.6398C57.3843 42.0073 56.5984 41.5146 55.7378 41.1911C54.8772 40.8677 53.9596 40.7203 53.0401 40.7578C51.2339 40.7713 49.5029 41.4773 48.209 42.7283ZM54.8992 8.785C59.7337 12.6638 64.1142 17.0692 67.9584 21.9182C74.1147 22.7772 80.1494 24.3444 85.9407 26.5882L86.0669 24.9707C86.6981 15.0155 84.2194 7.21309 78.4816 3.89848C72.7438 0.618057 64.7108 2.37216 56.2992 7.88511L54.9451 8.83046L54.8992 8.785ZM51.2385 86.2396C46.3903 82.3758 42.0082 77.9688 38.1793 73.1065C32.009 72.2429 25.9596 70.6759 20.1511 68.4364L20.0134 70.0538C19.3823 80.009 21.8725 87.8114 27.6103 91.126C33.3481 94.4064 41.381 92.6523 49.8385 87.1394L51.1926 86.194L51.2385 86.2396ZM87.7882 29.6977C86.8301 35.799 85.1627 41.7694 82.8193 47.4895C85.1629 53.2174 86.8303 59.1954 87.7882 65.3041C88.2817 65.0763 88.7866 64.8484 89.2801 64.5751C98.2654 60.1442 103.831 54.0845 103.831 47.4895C103.831 40.8945 98.2654 34.8462 89.2801 30.4039C88.7866 30.1419 88.2817 29.9141 87.7882 29.6977ZM81.6029 50.4054C80.0585 53.9811 78.2917 57.4581 76.3127 60.8162V60.9074C74.3636 64.2442 72.2376 67.476 69.9437 70.5892C75.3585 69.6909 80.6601 68.2168 85.757 66.1926C84.9549 60.8006 83.5778 55.5084 81.6488 50.4054H81.6029ZM67.9584 73.1065C64.1142 77.9554 59.7337 82.3608 54.8992 86.2396L56.2533 87.185C64.6076 92.6979 72.6978 94.452 78.4356 91.1716C84.1734 87.857 86.6981 80.0545 86.0669 70.0538L85.9407 68.4364C80.1494 70.6802 74.1147 72.2474 67.9584 73.1065ZM18.3495 65.3041C19.2851 59.1957 20.9373 53.2169 23.2725 47.4895C20.9376 41.77 19.2853 35.7987 18.3495 29.6977C17.8445 29.9141 17.3511 30.1419 16.8576 30.4039C7.81488 34.8462 2.26066 40.9059 2.26066 47.4895C2.26066 54.0732 7.81488 60.1442 16.8576 64.5751C17.3511 64.8484 17.8445 65.0763 18.3495 65.3041ZM24.4889 44.5849C26.0679 41.0173 27.8494 37.5414 29.825 34.1741V34.083C31.7894 30.7455 33.9307 27.5136 36.2399 24.4012C30.8235 25.2919 25.521 26.7662 20.4265 28.7978C21.2118 34.1885 22.5736 39.4807 24.4889 44.5849ZM38.1793 21.8839C42.0082 17.0215 46.3903 12.6146 51.2385 8.75081L49.8843 7.80545C41.4842 2.29251 33.4398 0.538368 27.6561 3.8188C21.9183 7.1334 19.3823 14.9357 20.0134 24.9365L20.1511 26.554C25.9596 24.3145 32.009 22.7475 38.1793 21.8839ZM53.0976 10.0949C48.7957 13.4603 44.8748 17.2794 41.4039 21.4853C45.2879 21.0708 49.1913 20.8617 53.0976 20.8588C57.0229 20.8626 60.9454 21.0717 64.8486 21.4853C61.3495 17.2858 57.4103 13.4675 53.0976 10.0949ZM39.4072 23.9569C36.6004 27.5256 34.0503 31.2862 31.7759 35.2106V35.3018C29.4941 39.229 27.4739 43.3003 25.7282 47.4895C27.4513 51.67 29.4564 55.7304 31.73 59.6431L31.8218 59.7342C34.0909 63.6764 36.6412 67.4525 39.4531 71.0335C43.9872 71.6795 48.5629 71.9954 53.1434 71.9788C57.7507 71.9958 62.3531 71.6799 66.9141 71.0335C69.7134 67.4667 72.2521 63.7059 74.511 59.7798L74.6028 59.6886C76.8679 55.7557 78.8727 51.6808 80.6045 47.4895C78.8791 43.3138 76.8741 39.2573 74.6028 35.3473V35.2562C72.3125 31.3246 69.7591 27.5496 66.96 23.9569C62.399 23.3105 57.7966 22.9945 53.1893 23.0116C48.6087 22.995 44.0331 23.3109 39.4989 23.9569H39.4072ZM24.5463 50.4054C22.631 55.5095 21.2691 60.8019 20.4839 66.1926C25.5784 68.2242 30.8808 69.6985 36.2973 70.5892C33.9621 67.4693 31.8051 64.2217 29.8365 60.8618C29.8365 60.8618 29.8365 60.7707 29.7447 60.7251C27.7594 57.308 26.0381 53.8225 24.5004 50.4054H24.5463ZM53.0976 84.8955C57.4103 81.5229 61.3495 77.7046 64.8486 73.5051C60.9454 73.9187 57.0229 74.1278 53.0976 74.1316C49.1913 74.1287 45.2879 73.9195 41.4039 73.5051C44.8748 77.7109 48.7957 81.5302 53.0976 84.8955ZM81.6602 44.5849C83.5892 39.4818 84.9664 34.1898 85.7685 28.7978C80.6577 26.7678 75.3402 25.2936 69.9093 24.4012C72.2341 27.5028 74.376 30.7355 76.3242 34.083C76.3242 34.1741 76.3242 34.2197 76.416 34.2653C78.3617 37.6027 80.1126 41.0482 81.6602 44.5849Z" fill="#1F1F1F" fill-opacity="0.2"/>
</svg>
