<svg width="116" height="112" viewBox="0 0 116 112" fill="none" xmlns="http://www.w3.org/2000/svg">
<path d="M2.89957 55.2885C2.76535 53.8 3.95351 51.169 6.2212 48.1077C8.94998 44.537 12.0813 41.2829 15.5574 38.4054C16.0196 38.0063 16.5246 37.5706 17.0842 37.137L18.6361 35.9601L18.7431 35.9024C20.7429 34.4146 22.8419 33.058 25.0267 31.8411C26.8638 30.7871 28.7942 29.8939 30.796 29.1718C30.8348 29.1542 30.8767 29.1439 30.9196 29.1413C31.7045 28.8607 32.5238 28.6782 33.3587 28.5979C33.4694 28.5772 33.5824 28.569 33.6954 28.5735C33.9941 27.0458 35.1103 24.8453 36.9768 22.3568C42.4668 15.1943 49.4874 9.30443 57.5616 5.08747C61.0066 3.36008 63.8249 2.62033 65.2982 2.95968L67.7066 0.963565C67.797 0.886574 67.9024 0.828144 68.0168 0.791744C68.1311 0.755346 68.2521 0.741628 68.3728 0.751425C68.4935 0.761217 68.6114 0.794343 68.7198 0.848821C68.8283 0.903301 68.925 0.97811 69.0046 1.0689L115.534 54.1355C115.655 54.2732 115.732 54.4419 115.757 54.6206C115.781 54.7993 115.752 54.9802 115.672 55.1407C115.592 55.3012 115.466 55.4342 115.308 55.5232C115.151 55.6122 114.969 55.6534 114.786 55.6414C111.472 55.6376 103.613 60.8661 96.3559 66.9159C89.0986 72.9657 82.6383 79.8353 82.1695 83.0515C82.1312 83.2649 82.0191 83.4575 81.8519 83.5971C81.6847 83.7367 81.4725 83.8148 81.251 83.8183C77.9367 83.7667 70.0227 88.9932 62.7499 95.0637C55.4772 101.134 49.0383 107.986 48.5826 111.221C48.5656 111.338 48.5252 111.45 48.4636 111.552C48.4019 111.653 48.3204 111.741 48.2235 111.81C48.1266 111.88 48.0162 111.93 47.8988 111.957C47.7814 111.985 47.6592 111.989 47.5392 111.97C47.3188 111.937 47.117 111.825 46.9725 111.657L0.430028 58.6053C0.268292 58.414 0.188103 58.1696 0.206643 57.9244C0.225182 57.6793 0.340976 57.4528 0.529229 57.2935L2.89957 55.2885ZM37.3992 55.8868L36.3817 50.6828L35.5234 46.2269C35.4743 46.0637 35.4794 45.8905 35.5381 45.7325C35.6194 45.5058 35.788 45.3207 36.0084 45.2165C36.2288 45.1123 36.4835 45.0972 36.7186 45.1744L46.1904 48.5175L30.9296 31.1199C29.2332 31.7756 27.5897 32.5513 26.0116 33.4411C24.1656 34.4825 22.3769 35.6168 20.6526 36.8396L37.3992 55.8868ZM49.8898 49.9033C50.026 50.063 50.1043 50.262 50.1119 50.4682C50.1196 50.6744 50.0562 50.8758 49.932 51.0399C49.8078 51.204 49.6301 51.3212 49.4274 51.3725C49.2248 51.4239 49.0091 51.4064 48.8152 51.323L42.0309 48.9178C41.4544 49.1889 40.8445 49.4734 40.2324 49.8315C39.6203 50.1895 38.9486 50.557 38.3247 50.9439L39.8529 58.8387C39.9003 59.0043 39.8979 59.1788 39.8462 59.3412C39.7946 59.5037 39.6957 59.6471 39.5616 59.7541C39.4693 59.8366 39.3602 59.8991 39.2412 59.9378C39.1222 59.9766 38.9959 59.9906 38.8701 59.9791C38.7444 59.9676 38.6219 59.9308 38.5104 59.871C38.3988 59.8112 38.3006 59.7298 38.2219 59.6317L33.5223 54.2727C30.1902 56.8321 27.1073 59.6871 24.3117 62.8025C22.073 65.4024 20.5669 67.7409 20.5393 69.2172C20.5357 69.3365 20.508 69.4534 20.458 69.5613C20.4079 69.6692 20.3363 69.7659 20.2474 69.8457C20.1585 69.9256 20.054 69.9872 19.9399 70.0268C19.8259 70.0665 19.7045 70.0834 19.5829 70.0767C19.4622 70.0741 19.3429 70.0479 19.2317 69.9998C19.1206 69.9517 19.0199 69.8825 18.9356 69.7964C18.8512 69.7102 18.7848 69.6088 18.7403 69.498C18.6958 69.3872 18.674 69.2693 18.6762 69.1511C18.7281 67.2249 20.3932 64.4984 22.8883 61.6113C25.7479 58.4182 28.9037 55.4933 32.3164 52.873L25.6375 45.2704C22.2983 47.8217 19.2148 50.6773 16.4269 53.8001C14.155 56.4134 12.682 58.7384 12.6544 60.2148C12.6455 60.4551 12.54 60.6803 12.3608 60.8413C12.1816 61.0024 11.9434 61.0861 11.6981 61.0743C11.5764 61.074 11.4555 61.0492 11.343 61.0015C11.2305 60.9537 11.1287 60.8841 11.044 60.7968C10.9592 60.7095 10.8933 60.6064 10.8503 60.4939C10.8072 60.3815 10.788 60.262 10.7938 60.1429C10.8195 58.2127 12.4786 55.4837 15 52.6006C17.8435 49.4092 20.99 46.491 24.3983 43.884L19.1457 37.8727C18.8581 38.0999 18.5813 38.3179 18.2961 38.5393C17.8529 38.892 17.3598 39.2987 16.8061 39.7686C13.4337 42.5699 10.395 45.7346 7.74553 49.205C5.44813 52.288 4.24985 54.5362 4.63468 54.9371L4.68231 54.9566L46.6265 102.792C48.6589 99.1005 54.7801 93.059 61.2073 87.9677C66.8336 83.5088 72.7715 79.7657 76.5579 78.8678L33.9846 30.2945L33.5838 30.34C33.3366 30.3574 33.0911 30.3901 32.8487 30.4381L49.8898 49.9033ZM35.3974 29.1687L77.985 77.7074C79.4882 74.1708 84.1963 69.0183 89.5379 64.2535C95.6363 58.845 102.641 53.8547 106.683 52.4667L64.7415 4.6252L64.6938 4.6057C64.3161 4.18737 61.8774 5.00132 58.398 6.76193C50.5892 10.8671 43.789 16.5672 38.4464 23.4858C36.155 26.605 34.9508 28.8169 35.3261 29.241L35.3974 29.1687ZM79.3677 79.6258L79.2966 79.7996L79.1472 80.1644L79.1093 80.2571L79.0903 80.3034L79.0595 80.3787C76.1054 80.177 69.5019 84.29 63.1543 89.3057C56.0332 94.9378 49.3443 101.653 48.5444 104.626C48.5139 104.741 48.4603 104.848 48.3867 104.942C48.3132 105.036 48.2212 105.114 48.116 105.172C48.0108 105.23 47.8945 105.267 47.7738 105.281C47.6531 105.294 47.5304 105.284 47.4128 105.251C47.227 105.203 47.0575 105.106 46.9235 104.97L4.64923 56.735L3.1949 57.9451L48.0358 109.076C49.8633 105.138 55.8166 98.947 62.3182 93.4872C69.3878 87.5905 77.2138 82.4429 81.2541 81.8586C82.4608 78.0451 88.845 71.2593 95.9217 65.3453C102.421 59.8913 109.592 55.0707 113.811 53.8969L68.2459 2.92217L66.7987 4.11494L109.094 52.365C109.219 52.4994 109.294 52.6707 109.306 52.8505C109.324 52.972 109.316 53.0954 109.284 53.2131C109.252 53.3309 109.195 53.4405 109.118 53.5354C109.041 53.6302 108.945 53.7083 108.835 53.765C108.725 53.8217 108.605 53.8557 108.48 53.865C105.353 54.1537 97.5634 59.6204 90.7724 65.6514C84.7203 70.9976 79.5694 76.7736 79.3214 79.6542L79.3677 79.6258ZM75.0181 70.407C75.0166 70.5254 74.9912 70.6418 74.9434 70.7496C74.8956 70.8574 74.8265 70.9545 74.7398 71.0353C74.6532 71.1161 74.5508 71.1789 74.4385 71.2203C74.3262 71.2617 74.2062 71.2807 74.0855 71.2763C73.9628 71.2742 73.8413 71.2483 73.7279 71.2C73.6146 71.1518 73.5116 71.0821 73.4251 70.9952C73.3386 70.9082 73.2702 70.8056 73.2239 70.6933C73.1775 70.581 73.1542 70.4612 73.1551 70.3409C73.1644 70.1824 73.1785 70.0801 73.1926 69.9776C73.5636 66.593 78.6396 60.8133 84.4224 55.9722C90.2052 51.131 96.8456 47.0805 100.308 47.2467C100.432 47.2333 100.559 47.2394 100.682 47.2648C100.803 47.2809 100.92 47.3202 101.026 47.3803C101.132 47.4403 101.225 47.5201 101.301 47.615C101.376 47.7099 101.432 47.8181 101.465 47.9333C101.498 48.0486 101.508 48.1687 101.494 48.2868C101.48 48.4049 101.442 48.5186 101.383 48.6216C101.324 48.7245 101.244 48.8147 101.149 48.8868C101.053 48.9589 100.944 49.0116 100.827 49.0419C100.71 49.0722 100.588 49.0795 100.467 49.0634C100.396 49.0575 100.325 49.0555 100.254 49.0574C97.2873 48.9382 91.1533 52.7701 85.664 57.3527C80.1746 61.9353 75.3289 67.3223 75.044 70.208L75.0181 70.407ZM67.1274 61.4022C67.1191 61.6419 67.0146 61.8669 66.8366 62.0283C66.6587 62.1896 66.4216 62.2744 66.1769 62.2641C66.055 62.2628 65.9342 62.2373 65.8216 62.1892C65.7091 62.141 65.6073 62.0712 65.5222 61.984C65.4372 61.8967 65.3707 61.7939 65.3268 61.6815C65.2828 61.5692 65.2624 61.4497 65.2667 61.3303C65.2701 61.2032 65.2699 61.0679 65.284 60.9654C65.6717 57.6079 70.7453 51.834 76.5697 46.9761C82.3941 42.1182 88.9086 38.1716 92.3325 38.2952C92.4568 38.2961 92.5812 38.3041 92.7049 38.3191C92.9509 38.3505 93.1765 38.4748 93.3335 38.6654C93.4905 38.856 93.5664 39.0979 93.545 39.3393C93.5151 39.5753 93.3925 39.7889 93.2031 39.9348C93.0136 40.0806 92.7723 40.1474 92.5302 40.1208L92.3113 40.1123C89.3288 39.9801 83.2162 43.8274 77.7174 48.4332C72.2186 53.0389 67.4037 58.3506 67.0796 61.2474L67.1274 61.4022ZM59.2426 52.3998C59.2456 52.5253 59.2224 52.6496 59.1746 52.7652C59.1267 52.8807 59.0552 52.9851 58.9643 53.0718C58.8734 53.1585 58.7651 53.2258 58.646 53.2695C58.5268 53.3132 58.3994 53.3325 58.2714 53.3262C58.1435 53.3198 58.0177 53.2879 57.9017 53.2325C57.7858 53.1771 57.6822 53.0993 57.5971 53.0039C57.5121 52.9085 57.4474 52.7974 57.4072 52.6775C57.3669 52.5576 57.3518 52.4314 57.3628 52.3065C57.4103 52.1907 57.3839 52.0514 57.398 51.949C57.7917 48.5938 62.8652 42.82 68.6837 37.9597C74.5021 33.0993 81.0736 29.0814 84.5392 29.222C84.6534 29.2147 84.7819 29.2402 84.9199 29.2426C85.1612 29.2764 85.3813 29.4008 85.5337 29.5894C85.6861 29.778 85.7588 30.016 85.7363 30.253C85.7255 30.3716 85.6905 30.4864 85.6331 30.5905C85.5758 30.6946 85.4974 30.7858 85.4027 30.8588C85.3079 30.9318 85.1987 30.985 85.0817 31.0152C84.9646 31.0453 84.8421 31.0519 84.7215 31.0345L84.5323 31.0382C81.5498 30.906 75.3777 34.729 69.9146 39.3493C64.4515 43.9697 59.6389 49.2757 59.3005 52.1733L59.2426 52.3998ZM51.3363 43.3818C51.3376 43.5043 51.3137 43.6253 51.2661 43.7376C51.2184 43.8499 51.1479 43.9512 51.0589 44.0354C50.9699 44.1196 50.8641 44.1851 50.7479 44.2278C50.6317 44.2705 50.5074 44.2895 50.3826 44.2839C50.2577 44.2783 50.1349 44.2481 50.0213 44.195C49.9077 44.142 49.8057 44.0673 49.7215 43.9752C49.6373 43.8832 49.5725 43.7758 49.5311 43.6595C49.4897 43.5432 49.4725 43.4203 49.4804 43.2983C49.4841 43.1763 49.4966 43.0549 49.5179 42.935C49.8794 39.5735 54.9554 33.7938 60.7477 28.9295C66.54 24.0652 73.1615 20.061 76.633 20.204C76.758 20.2025 76.8831 20.2086 77.0077 20.2222C77.2546 20.2561 77.4796 20.3845 77.6332 20.5792C77.7867 20.774 77.8563 21.019 77.8265 21.2606C77.7967 21.5022 77.67 21.7205 77.4744 21.8674C77.2787 22.0143 77.0301 22.0778 76.7831 22.0439L76.5797 22.0147C73.6126 21.8956 67.4786 25.7274 61.9798 30.3332C56.481 34.939 51.6447 40.3029 51.3598 43.1886L51.3363 43.3818ZM43.4361 34.4001C43.4278 34.6398 43.3233 34.8648 43.1453 35.0262C42.9674 35.1876 42.7303 35.2723 42.4856 35.2621C42.2395 35.2486 42.0069 35.1405 41.8383 34.9613C41.6696 34.7821 41.5786 34.5464 41.5849 34.305C41.5883 34.1779 41.5881 34.0426 41.6022 33.9402C41.9875 30.5884 47.0635 24.8088 52.8879 19.9508C58.7123 15.0929 65.2244 11.1522 68.6507 11.2699C68.7459 11.3089 68.8875 11.2857 69.016 11.3112C69.2627 11.341 69.4893 11.4649 69.6466 11.656C69.8039 11.847 69.8792 12.0896 69.8561 12.3313C69.8215 12.5688 69.697 12.7832 69.5074 12.9321C69.3178 13.0811 69.0767 13.1538 68.8318 13.136L68.6224 13.1044C65.6399 12.9721 59.5273 16.8195 54.0285 21.4253C48.5297 26.0311 43.6934 31.3949 43.3812 34.2627L43.4361 34.4001ZM44.2709 96.1885C44.2617 96.4315 44.1556 96.6593 43.9755 96.8233C43.7953 96.9872 43.5555 97.0741 43.3074 97.0654C43.1861 97.0599 43.0665 97.031 42.9557 96.9803C42.8448 96.9296 42.7449 96.8581 42.6615 96.7699C42.5781 96.6818 42.5131 96.5787 42.47 96.4666C42.4268 96.3545 42.4065 96.2355 42.4102 96.1166C42.3969 96.0103 42.3896 95.9034 42.3884 95.7966C42.7761 92.439 47.8497 86.6651 53.6443 81.795C59.4389 76.9249 66.0343 72.9168 69.5058 73.0598C69.614 73.05 69.7425 73.0756 69.8805 73.078C70.1292 73.1098 70.3567 73.237 70.5129 73.4316C70.6691 73.6262 70.7413 73.8722 70.7135 74.1155C70.6858 74.3588 70.5605 74.5795 70.365 74.729C70.1696 74.8786 69.9201 74.9447 69.6714 74.9128C69.6298 74.8957 69.5822 74.8763 69.4704 74.8779C66.4854 74.7514 60.3693 78.5906 54.874 83.2045C49.3788 87.8185 44.5532 93.1394 44.2362 96.0188L44.2709 96.1885ZM36.379 87.2034C36.3701 87.4437 36.2645 87.669 36.0853 87.8301C35.9062 87.9911 35.6679 88.0748 35.4226 88.0629C35.1749 88.0482 34.9408 87.9402 34.7692 87.7616C34.5976 87.5829 34.5017 87.3475 34.5017 87.1044C34.5491 86.9886 34.5251 86.8435 34.5392 86.7411C34.9304 83.3917 40.0005 77.6097 45.8249 72.7517C51.6493 67.8938 58.2089 63.871 61.6804 64.0141C61.7756 64.053 61.9207 64.0381 62.0433 64.0612C62.1652 64.0733 62.2838 64.1094 62.3919 64.1675C62.5 64.2255 62.5954 64.3043 62.6723 64.399C62.7492 64.4937 62.806 64.6024 62.8392 64.7184C62.8724 64.8344 62.8814 64.9554 62.8656 65.0741C62.8537 65.1939 62.8177 65.3099 62.7598 65.4152C62.7018 65.5206 62.623 65.6134 62.5278 65.6881C62.4327 65.7629 62.323 65.8181 62.2052 65.8508C62.0874 65.8835 61.9638 65.893 61.8413 65.8787L61.6616 65.8593C58.6696 65.7502 52.507 69.55 47.038 74.1679C41.5689 78.7859 36.7445 84.1546 36.418 87.0233L36.379 87.2034ZM28.4645 78.1889C28.4632 78.3069 28.4383 78.4231 28.391 78.5308C28.3438 78.6385 28.2751 78.7356 28.1891 78.8165C28.103 78.8975 28.0012 78.9607 27.8894 79.0026C27.7777 79.0444 27.6582 79.0641 27.5378 79.0605C27.4133 79.0578 27.2901 79.0304 27.1757 78.9799C27.0613 78.9294 26.9581 78.8569 26.8723 78.7668C26.7864 78.6767 26.7198 78.5709 26.6763 78.4556C26.6328 78.3403 26.6134 78.2181 26.6192 78.0962C26.6184 77.984 26.627 77.8722 26.6449 77.7618C27.0088 74.3945 32.0824 68.6207 37.8675 63.7737C43.6527 58.9268 50.2908 54.882 53.7623 55.025C53.8846 55.0318 54.0066 55.0456 54.1275 55.0664C54.2484 55.0801 54.3656 55.1172 54.4724 55.1757C54.5793 55.2342 54.6735 55.3128 54.7496 55.4069C54.8256 55.5011 54.8821 55.6089 54.9154 55.7239C54.9488 55.839 54.9585 55.9589 54.9439 56.0768C54.9172 56.3143 54.7954 56.5298 54.6052 56.6763C54.415 56.8228 54.1718 56.8882 53.9291 56.8583L53.7102 56.8498C50.7276 56.7176 44.6293 60.5302 39.1258 65.1476C33.6222 69.7649 28.8406 75.0971 28.5022 77.9947L28.4645 78.1889ZM37.9744 48.9478C38.4368 48.684 38.8872 48.4153 39.3175 48.1451L39.6182 48.0045L37.6579 47.3103L37.9744 48.9478Z" fill="#FF9B0B"/>
</svg>
