<svg width="960" height="2099" viewBox="0 0 960 2099" fill="none" xmlns="http://www.w3.org/2000/svg">
<mask id="mask0_219_3547" style="mask-type:alpha" maskUnits="userSpaceOnUse" x="0" y="0" width="960" height="2099">
<rect x="0.5" y="0.5" width="959" height="2098" rx="31.5" fill="#6255A4" stroke="#E2E8F0"/>
</mask>
<g mask="url(#mask0_219_3547)">
<path d="M331.91 2033.52C325.626 2030.98 318.742 2030.31 312.087 2031.59C305.432 2032.88 299.29 2036.07 294.404 2040.78C276.236 2034.36 268.898 2042.56 268.898 2042.56C270.694 2036.81 264.235 2009.92 236.388 2011.03C208.541 2012.15 206.804 2033.21 206.804 2033.21C186.958 2032.86 181.436 2049.3 181.436 2049.3C181.436 2049.3 174.82 2030.71 151.559 2033.52C128.298 2036.34 129.294 2059.71 129.294 2059.71C108.082 2054.62 100.627 2065.91 100.627 2065.91C100.627 2065.91 104.218 2047.78 87.3575 2041.5C82.7979 2039.84 77.9103 2039.29 73.0964 2039.89C68.2826 2040.49 63.6799 2042.23 59.6669 2044.96C62.9453 2030.88 51.7441 2011.35 26.3951 2018.43C1.04612 2025.5 7.71999 2049.3 7.71999 2049.3C-11.2478 2049.6 -11.2869 2066.1 -11.2869 2066.1C-11.2869 2066.1 -23.5418 2047.13 -45.71 2054.37C-61.2043 2059.47 -65.7121 2073.44 -67 2082.1C-49.2166 2124.82 -18.6749 2160.98 20.4329 2185.61C59.5407 2210.25 105.298 2222.15 151.424 2219.68C197.55 2217.22 241.784 2200.5 278.054 2171.84C314.324 2143.18 340.853 2103.97 354 2059.59C352.805 2053.73 350.154 2048.27 346.292 2043.72C342.431 2039.16 337.484 2035.65 331.91 2033.52Z" fill="white" fill-opacity="0.2"/>
<path d="M678.502 2053.94C670.965 2050.9 662.707 2050.09 654.724 2051.63C646.741 2053.17 639.374 2056.99 633.513 2062.62C611.72 2054.95 602.919 2064.75 602.919 2064.75C605.072 2057.87 597.324 2025.71 563.921 2027.04C530.518 2028.37 528.435 2053.57 528.435 2053.57C504.629 2053.15 498.005 2072.82 498.005 2072.82C498.005 2072.82 490.069 2050.57 462.167 2053.94C434.265 2057.31 435.459 2085.26 435.459 2085.26C410.015 2079.18 401.073 2092.68 401.073 2092.68C401.073 2092.68 405.38 2070.99 385.156 2063.49C379.686 2061.5 373.823 2060.84 368.049 2061.56C362.275 2062.28 356.754 2064.36 351.94 2067.63C355.873 2050.78 342.436 2027.41 312.03 2035.88C281.623 2044.35 289.628 2072.82 289.628 2072.82C266.876 2073.17 266.829 2092.91 266.829 2092.91C266.829 2092.91 252.129 2070.22 225.538 2078.88C206.952 2084.98 201.545 2101.68 200 2112.05C221.332 2163.15 257.967 2206.4 304.878 2235.87C351.789 2265.33 406.676 2279.57 462.005 2276.62C517.334 2273.67 570.394 2253.68 613.901 2219.39C657.408 2185.11 689.23 2138.2 705 2085.12C703.567 2078.12 700.387 2071.59 695.754 2066.13C691.122 2060.68 685.188 2056.49 678.502 2053.94Z" fill="white" fill-opacity="0.2"/>
<path d="M1025.91 2023.52C1019.63 2020.98 1012.74 2020.31 1006.09 2021.59C999.432 2022.88 993.29 2026.07 988.404 2030.78C970.236 2024.36 962.898 2032.56 962.898 2032.56C964.694 2026.81 958.235 1999.92 930.388 2001.03C902.541 2002.15 900.804 2023.21 900.804 2023.21C880.958 2022.86 875.436 2039.3 875.436 2039.3C875.436 2039.3 868.82 2020.71 845.559 2023.52C822.298 2026.34 823.294 2049.71 823.294 2049.71C802.082 2044.62 794.627 2055.91 794.627 2055.91C794.627 2055.91 798.218 2037.78 781.358 2031.5C776.798 2029.84 771.91 2029.29 767.096 2029.89C762.283 2030.49 757.68 2032.23 753.667 2034.96C756.945 2020.88 745.744 2001.35 720.395 2008.43C695.046 2015.5 701.72 2039.3 701.72 2039.3C682.752 2039.6 682.713 2056.1 682.713 2056.1C682.713 2056.1 670.458 2037.13 648.29 2044.37C632.796 2049.47 628.288 2063.44 627 2072.1C644.783 2114.82 675.325 2150.98 714.433 2175.61C753.541 2200.25 799.298 2212.15 845.424 2209.68C891.55 2207.22 935.784 2190.5 972.054 2161.84C1008.32 2133.18 1034.85 2093.97 1048 2049.59C1046.81 2043.73 1044.15 2038.27 1040.29 2033.72C1036.43 2029.16 1031.48 2025.65 1025.91 2023.52Z" fill="white" fill-opacity="0.2"/>
</g>
</svg>
