<svg width="960" height="746" viewBox="0 0 960 746" fill="none" xmlns="http://www.w3.org/2000/svg">
<path fill-rule="evenodd" clip-rule="evenodd" d="M44.8582 0.0342712C45.142 0.00488281 45.421 0.00485229 45.7048 0.00485229C55.6981 0.00485229 64.8986 4.11923 72.0925 10.9814C76.0468 14.7725 80.7449 16.6583 85.4626 16.7317C89.7936 16.3889 94.0611 14.4688 97.6972 11.001C104.901 4.12415 114.082 0 124.085 0H124.927H125.749C135.537 0 144.531 3.94781 151.662 10.5553C154.996 13.7614 159.364 15.6718 163.98 15.9431C168.595 15.6705 172.962 13.7603 176.298 10.5553C183.428 3.94781 192.423 0 202.211 0H203.033H203.874C213.868 0 223.049 4.12411 230.247 10.9814C234.045 14.5962 238.533 16.5065 243.06 16.7171C247.582 16.5065 252.069 14.5962 255.862 10.9814C263.061 4.11432 272.242 0 282.235 0H283.077H283.899C293.687 0 302.682 3.94781 309.812 10.5553C311.384 12.2529 313.29 13.6073 315.409 14.5335C317.529 15.4597 319.817 15.9378 322.13 15.9378C324.263 15.9378 326.374 15.5312 328.352 14.7416C335.956 5.64495 346.542 0.00485229 358.249 0.00485229C358.382 0.00485229 358.521 0.0144956 358.659 0.0240207C358.71 0.0275746 358.761 0.0311113 358.811 0.0341253C359.333 0.0114421 359.858 0 360.385 0H361.207H362.049C372.052 0 381.238 4.14374 388.437 11.001C391.957 14.3585 396.069 16.2514 400.258 16.6929C404.443 16.2612 408.55 14.3551 412.067 11.001C419.271 4.12415 428.452 0 438.455 0H439.296H440.118L440.264 0.000290811L440.409 0C440.442 0 440.473 0.000752629 440.504 0.00204489C440.789 0.00507056 441.074 0.0114494 441.358 0.0211486C441.651 0 441.94 0 442.234 0H442.235C453.799 0 464.27 5.50727 471.853 14.4116C473.898 15.2867 476.094 15.8106 478.349 15.9431C482.965 15.6705 487.332 13.7603 490.667 10.5553C497.798 3.94781 506.792 0 516.58 0H517.402H518.244C518.536 0 518.827 0.00351441 519.117 0.0105086C519.28 0.00486257 519.442 0.00485229 519.605 0.00485229C529.599 0.00485229 538.799 4.11923 545.993 10.9814C549.602 14.4415 553.831 16.3144 558.128 16.671C562.412 16.305 566.634 14.4099 570.232 10.9814C577.431 4.11432 586.611 0 596.605 0H597.446H597.985H598.269H598.827H599.649C609.437 0 618.432 3.94781 625.562 10.5553C628.789 13.6578 632.983 15.5471 637.434 15.9117C639.427 15.8006 641.386 15.3348 643.22 14.5335C645.339 13.6073 647.245 12.2529 648.817 10.5553C655.972 3.94781 664.967 0 674.755 0H675.577H676.111H676.419H676.933H677.775C687.768 0 696.949 4.12411 704.148 10.9814C707.751 14.411 711.975 16.3062 716.265 16.6713C720.563 16.3135 724.799 14.4219 728.406 10.9814C735.605 4.11432 744.786 0 754.779 0C754.88 0 754.975 0.00740355 755.069 0.0156393C755.424 0.00523369 755.779 0 756.135 0H756.603H756.605H756.977H757.799C767.587 0 776.582 3.94781 783.712 10.5553C785.285 12.2529 787.19 13.6073 789.31 14.5335C791.429 15.4597 793.717 15.9378 796.03 15.9378C798.343 15.9378 800.631 15.4597 802.75 14.5335C804.87 13.6073 806.776 12.2529 808.348 10.5553C815.503 3.94781 824.498 0 834.286 0H835.108H835.949C845.952 0 855.138 4.14374 862.337 11.001C865.973 14.4688 870.241 16.3742 874.572 16.7317C879.285 16.6583 883.988 14.748 887.937 10.9814C895.136 4.11432 904.317 0 914.31 0C914.422 0 914.527 0.00919499 914.633 0.0184896C914.794 0.0326883 914.958 0.0471195 915.157 0.0293579C915.484 0 915.807 0 916.134 0H916.135C939.278 0 958.042 22.0559 958.042 49.2549C958.092 56.7241 956.622 64.0965 953.751 70.9318C957.76 79.4493 960 88.963 960 99V140.019C960 140.086 960 140.152 960 140.218V705.409C960 728.112 941.254 746.28 918.565 745.473C830.777 742.348 622.174 735.521 476.5 735.572C333.263 735.621 128.294 742.363 41.4315 745.467C18.741 746.278 0 728.109 0 705.404V321.587V99C0 88.9568 2.24323 79.4376 6.25597 70.916C3.39138 64.0855 1.92403 56.7206 1.97329 49.2598C1.97329 22.0461 20.7364 0.00485229 43.8794 0.00485229C44.0122 0.00485229 44.1514 0.0144953 44.2889 0.0240202C44.4909 0.0380171 44.6893 0.0517592 44.8582 0.0342712Z" fill="#F9F6EF"/>
</svg>
