<svg width="21" height="20" viewBox="0 0 21 20" fill="none" xmlns="http://www.w3.org/2000/svg">
<path d="M19.8983 0.205078L8.1001 9.66195L13.457 19.9535C13.6374 19.8847 13.7919 19.7406 13.8639 19.5244L20.0664 0.916953C20.1571 0.645039 20.073 0.379727 19.8983 0.205078Z" fill="#FF8086"/>
<path d="M9.16469 10.9389L19.8986 0.204958C19.7239 0.0303093 19.4586 -0.0537532 19.1867 0.0369109L18.8786 0.139645L17.5708 0.836208L0.282227 6.79843L8.68066 11.4229L12.5761 19.6034C12.7474 19.9631 13.1419 20.0736 13.4573 19.9534L9.1648 10.9389L9.16469 10.9389Z" fill="#FF646F"/>
<path d="M1.92246 6.47184L17.0636 1.4248C17.5861 1.25059 18.061 0.95712 18.4505 0.567617L18.8785 0.139648L0.579216 6.23941C-0.0148461 6.43742 -0.0652758 7.2582 0.500115 7.52742L8.68062 11.4229L9.16465 10.9389L1.86168 7.46133C1.76544 7.41552 1.6851 7.34198 1.63098 7.25016C1.57686 7.15835 1.55144 7.05244 1.55797 6.94606C1.56451 6.83968 1.6027 6.73768 1.66765 6.65318C1.7326 6.56867 1.82134 6.50552 1.92246 6.47184Z" fill="#FB4455"/>
</svg>
