<svg width="11" height="20" viewBox="0 0 11 20" fill="none" xmlns="http://www.w3.org/2000/svg">
<g style="mix-blend-mode:screen" opacity="0.9">
<path d="M3.73815 13.0366C4.76754 13.5248 5.79803 13.4361 6.7045 12.7812C7.2933 12.4374 7.91735 11.5657 7.4087 10.3332C6.54367 8.39318 4.58493 7.74102 3.46959 7.23883C2.64655 6.68416 1.79894 6.53149 1.00761 6.79534C0.19678 7.3432 0.415036 8.85522 1.06001 10.1004C1.82428 11.5388 2.7576 12.5621 3.73815 13.0366Z" fill="white" fill-opacity="0.8"/>
</g>
<g style="mix-blend-mode:screen" opacity="0.9">
<path d="M8.93956 11.4156C8.88488 11.3625 8.83482 11.2886 8.79283 11.199C8.75084 11.1094 8.71789 11.0062 8.69627 10.8964C8.67465 10.7866 8.66488 10.673 8.6676 10.5632C8.67031 10.4534 8.68545 10.3501 8.712 10.2603C8.9267 9.51401 9.59168 9.3919 10.0173 9.61539C10.1279 9.64741 10.2366 9.74268 10.3292 9.88885C10.4219 10.035 10.4942 10.2254 10.5369 10.4352C10.5796 10.6451 10.5907 10.8647 10.5687 11.0658C10.5467 11.2669 10.4927 11.44 10.4136 11.5629C10.2057 11.7877 9.95491 11.8646 9.69724 11.7824C9.4452 11.8338 9.17673 11.7038 8.93956 11.4156C8.95655 11.4376 8.93956 11.4156 8.93956 11.4156Z" fill="white" fill-opacity="0.8"/>
</g>
</svg>
