<svg width="48" height="40" viewBox="0 0 48 40" fill="none" xmlns="http://www.w3.org/2000/svg">
<path d="M19.6692 18.0991C16.0366 16.3237 11.7481 17.9743 10.1792 21.592C6.47831 20.2304 2.32425 22.1938 1.10151 26.0477C-0.0164931 29.5718 1.95431 33.347 5.38631 34.7213L16.1406 39.0284C16.3789 39.1239 16.6336 39.1714 16.8902 39.1685C17.1468 39.1655 17.4003 39.1119 17.6362 39.0109C17.8722 38.91 18.0859 38.7635 18.2652 38.5799C18.4445 38.3962 18.5859 38.1791 18.6812 37.9408L22.9876 27.1865C24.3618 23.7545 22.9905 19.723 19.6692 18.0991Z" fill="url(#paint0_linear_191_24168)"/>
<path d="M46.849 25.7543C45.5364 21.9301 41.337 20.0655 37.6695 21.5141C36.0152 17.9343 31.6895 16.3847 28.1 18.2455C24.8173 19.9467 23.5411 24.0101 24.9964 27.4087L29.5553 38.059C29.6562 38.2949 29.8027 38.5086 29.9862 38.6879C30.1698 38.8672 30.3868 39.0086 30.625 39.104C30.8632 39.1994 31.1179 39.2469 31.3745 39.2439C31.631 39.2409 31.8845 39.1874 32.1204 39.0864L42.77 34.5267C46.1685 33.0722 48.0502 29.2509 46.849 25.7543Z" fill="url(#paint1_linear_191_24168)"/>
<path d="M39.0182 4.37479C35.0908 -0.178926 28.2617 -0.431497 23.9999 3.59627C19.7374 -0.431497 12.9091 -0.178925 8.98082 4.37553C5.38985 8.53925 5.8742 14.8543 9.76231 18.7424L21.9452 30.9252C22.4901 31.4701 23.2292 31.7763 23.9999 31.7763C24.7706 31.7763 25.5097 31.4701 26.0547 30.9252L38.2375 18.7424C42.1256 14.8543 42.61 8.5385 39.019 4.37553L39.0182 4.37479Z" fill="url(#paint2_linear_191_24168)"/>
<path d="M20.0801 17.7722C20.2365 18.6983 20.7167 19.5387 21.4351 20.1437C22.1534 20.7487 23.0632 21.079 24.0024 21.0757C24.9404 21.0746 25.848 20.7427 26.5653 20.1382C27.2826 19.5338 27.7637 18.6957 27.9239 17.7715L20.0801 17.7722Z" fill="url(#paint3_linear_191_24168)"/>
<path d="M27.9297 11.6874C27.8196 11.6873 27.712 11.6546 27.6204 11.5934C27.5289 11.5322 27.4576 11.4452 27.4154 11.3434C27.3733 11.2417 27.3623 11.1297 27.3837 11.0217C27.4052 10.9137 27.4582 10.8145 27.536 10.7366C28.2451 10.0293 29.2058 9.63208 30.2073 9.63208C31.2088 9.63208 32.1695 10.0293 32.8786 10.7366C32.9319 10.788 32.9743 10.8494 33.0036 10.9174C33.0328 10.9853 33.0482 11.0584 33.0489 11.1324C33.0495 11.2064 33.0355 11.2798 33.0075 11.3482C32.9795 11.4167 32.9382 11.4789 32.8859 11.5313C32.8336 11.5836 32.7714 11.625 32.703 11.6531C32.6345 11.6811 32.5611 11.6952 32.4872 11.6946C32.4132 11.694 32.3401 11.6787 32.2721 11.6495C32.2041 11.6204 32.1426 11.5779 32.0912 11.5248C31.591 11.0264 30.9137 10.7465 30.2077 10.7465C29.5016 10.7465 28.8243 11.0264 28.3242 11.5248C28.2725 11.5766 28.2112 11.6177 28.1436 11.6457C28.076 11.6738 28.0036 11.6882 27.9304 11.6882L27.9297 11.6874Z" fill="url(#paint4_linear_191_24168)"/>
<path d="M20.0735 11.6875C20.0004 11.6877 19.928 11.6733 19.8604 11.6454C19.7929 11.6175 19.7315 11.5765 19.6798 11.5249C19.1799 11.0263 18.5026 10.7464 17.7966 10.7464C17.0906 10.7464 16.4134 11.0263 15.9135 11.5249C15.8625 11.5796 15.801 11.6235 15.7326 11.654C15.6643 11.6844 15.5905 11.7008 15.5157 11.7021C15.4409 11.7034 15.3666 11.6897 15.2972 11.6616C15.2278 11.6336 15.1648 11.5919 15.1119 11.539C15.059 11.4861 15.0173 11.4231 14.9893 11.3537C14.9613 11.2843 14.9475 11.21 14.9488 11.1352C14.9501 11.0604 14.9665 10.9866 14.997 10.9183C15.0274 10.8499 15.0713 10.7884 15.1261 10.7374C15.8349 10.0302 16.7953 9.63306 17.7966 9.63306C18.7979 9.63306 19.7584 10.0302 20.4672 10.7374C20.545 10.8153 20.598 10.9146 20.6195 11.0226C20.6409 11.1306 20.6299 11.2425 20.5878 11.3443C20.5456 11.446 20.4743 11.533 20.3828 11.5942C20.2912 11.6555 20.1836 11.6882 20.0735 11.6883V11.6875Z" fill="url(#paint5_linear_191_24168)"/>
<defs>
<linearGradient id="paint0_linear_191_24168" x1="0.788021" y1="28.2755" x2="23.5165" y2="28.2755" gradientUnits="userSpaceOnUse">
<stop stop-color="#FF6E6E"/>
<stop offset="1" stop-color="#F91C1C"/>
</linearGradient>
<linearGradient id="paint1_linear_191_24168" x1="24.4006" y1="28.3491" x2="47.2123" y2="28.3491" gradientUnits="userSpaceOnUse">
<stop stop-color="#FF6E6E"/>
<stop offset="1" stop-color="#F91C1C"/>
</linearGradient>
<linearGradient id="paint2_linear_191_24168" x1="6.54648" y1="16.2664" x2="41.4526" y2="16.2664" gradientUnits="userSpaceOnUse">
<stop stop-color="#FF6E6E"/>
<stop offset="1" stop-color="#F91C1C"/>
</linearGradient>
<linearGradient id="paint3_linear_191_24168" x1="20.0801" y1="19.4236" x2="27.9239" y2="19.4236" gradientUnits="userSpaceOnUse">
<stop stop-color="#FFDEA4"/>
<stop offset="1" stop-color="#FFCC66"/>
</linearGradient>
<linearGradient id="paint4_linear_191_24168" x1="27.3733" y1="10.6601" x2="33.0413" y2="10.6601" gradientUnits="userSpaceOnUse">
<stop stop-color="#FFDEA4"/>
<stop offset="1" stop-color="#FFCC66"/>
</linearGradient>
<linearGradient id="paint5_linear_191_24168" x1="14.9626" y1="10.6602" x2="20.6306" y2="10.6602" gradientUnits="userSpaceOnUse">
<stop stop-color="#FFDEA4"/>
<stop offset="1" stop-color="#FFCC66"/>
</linearGradient>
</defs>
</svg>
