<svg width="48" height="52" viewBox="0 0 48 52" fill="none" xmlns="http://www.w3.org/2000/svg">
<path d="M35.7342 4.67675C32.3006 1.42269 27.8018 -0.229932 23.0633 0.0251926C14.2054 0.49888 6.97173 8.112 6.93761 16.9951C6.92136 21.6523 8.74217 26.0041 12.0645 29.2459C14.5377 31.674 16.1206 34.8646 16.5576 38.3029C16.6454 38.9139 16.6876 39.5517 16.6876 40.2513V46.3125C16.6876 47.6564 17.7812 48.75 19.1251 48.75H28.8751C30.219 48.75 31.3126 47.6564 31.3126 46.3125V40.2594C31.3126 39.5639 31.3565 38.9049 31.445 38.2866C31.8684 34.8465 33.4324 31.6656 35.8504 29.3304C39.2117 26.0853 41.0626 21.7287 41.0626 17.0625C41.0626 12.3313 39.1703 7.93325 35.7342 4.67675Z" fill="url(#paint0_linear_191_24181)"/>
<path d="M28.7027 47.4378C28.6268 47.3404 28.5297 47.2615 28.4188 47.2073C28.3078 47.1531 28.1859 47.1249 28.0625 47.125H19.9375C19.8138 47.1247 19.6918 47.1526 19.5806 47.2067C19.4695 47.2608 19.3722 47.3396 19.2961 47.437C19.2201 47.5345 19.1673 47.648 19.1419 47.769C19.1164 47.8899 19.119 48.0151 19.1493 48.1349L19.9618 51.3849C20.0058 51.5606 20.1073 51.7166 20.2501 51.828C20.3929 51.9395 20.5688 52 20.75 52H27.25C27.4311 52 27.607 51.9395 27.7498 51.828C27.8926 51.7166 27.9941 51.5606 28.0381 51.3849L28.8506 48.1349C28.8805 48.0151 28.8828 47.8901 28.8571 47.7693C28.8315 47.6485 28.7787 47.5351 28.7027 47.4378Z" fill="url(#paint1_linear_191_24181)"/>
<path d="M31.2518 37.6553C31.1756 37.5674 31.0814 37.4969 30.9755 37.4485C30.8697 37.4001 30.7547 37.3751 30.6383 37.375H17.3621C17.2457 37.3751 17.1307 37.4002 17.0248 37.4486C16.919 37.497 16.8248 37.5676 16.7486 37.6556C16.6724 37.7436 16.616 37.8469 16.5832 37.9586C16.5504 38.0702 16.542 38.1877 16.5585 38.3029C16.6463 38.9139 16.6885 39.5517 16.6885 40.2513V46.3125C16.6885 47.6564 17.7822 48.75 19.126 48.75H28.876C30.2199 48.75 31.3135 47.6564 31.3135 46.3125V40.2594C31.3135 39.5639 31.3574 38.9049 31.4435 38.3029C31.4601 38.1876 31.4517 38.0701 31.4189 37.9584C31.3861 37.8467 31.3296 37.7433 31.2534 37.6553H31.2518Z" fill="url(#paint2_linear_191_24181)"/>
<path d="M30.0938 14.625C29.1244 14.6261 28.195 15.0116 27.5096 15.6971C26.8241 16.3825 26.4386 17.3119 26.4375 18.2812V20.3125H21.5625V18.2812C21.5625 16.2646 19.9221 14.625 17.9062 14.625C15.8904 14.625 14.25 16.2646 14.25 18.2812C14.25 20.2979 15.8904 21.9375 17.9062 21.9375H19.9375V38.1875C19.9375 38.403 20.0231 38.6097 20.1755 38.762C20.3278 38.9144 20.5345 39 20.75 39C20.9655 39 21.1722 38.9144 21.3245 38.762C21.4769 38.6097 21.5625 38.403 21.5625 38.1875V21.9375H26.4375V38.1875C26.4375 38.403 26.5231 38.6097 26.6755 38.762C26.8278 38.9144 27.0345 39 27.25 39C27.4655 39 27.6722 38.9144 27.8245 38.762C27.9769 38.6097 28.0625 38.403 28.0625 38.1875V21.9375H30.0938C32.1096 21.9375 33.75 20.2971 33.75 18.2812C33.75 16.2654 32.1096 14.625 30.0938 14.625ZM15.875 18.2812C15.875 17.1616 16.7866 16.25 17.9062 16.25C19.0259 16.25 19.9375 17.1616 19.9375 18.2812V20.3125H17.9062C17.3677 20.3119 16.8514 20.0976 16.4707 19.7168C16.0899 19.3361 15.8756 18.8198 15.875 18.2812ZM30.0938 20.3125H28.0625V18.2812C28.0625 17.1616 28.9741 16.25 30.0938 16.25C31.2134 16.25 32.125 17.1616 32.125 18.2812C32.125 19.4009 31.2134 20.3125 30.0938 20.3125Z" fill="url(#paint3_linear_191_24181)"/>
<path d="M46.75 18.0383H43.5C43.2845 18.0383 43.0778 17.9527 42.9255 17.8004C42.7731 17.648 42.6875 17.4413 42.6875 17.2258C42.6875 17.0103 42.7731 16.8037 42.9255 16.6513C43.0778 16.4989 43.2845 16.4133 43.5 16.4133H46.75C46.9655 16.4133 47.1722 16.4989 47.3245 16.6513C47.4769 16.8037 47.5625 17.0103 47.5625 17.2258C47.5625 17.4413 47.4769 17.648 47.3245 17.8004C47.1722 17.9527 46.9655 18.0383 46.75 18.0383Z" fill="url(#paint4_linear_191_24181)"/>
<path d="M4.5 18.0383H1.25C1.03451 18.0383 0.827849 17.9527 0.675476 17.8004C0.523102 17.648 0.4375 17.4413 0.4375 17.2258C0.4375 17.0103 0.523102 16.8037 0.675476 16.6513C0.827849 16.4989 1.03451 16.4133 1.25 16.4133H4.5C4.71549 16.4133 4.92215 16.4989 5.07452 16.6513C5.2269 16.8037 5.3125 17.0103 5.3125 17.2258C5.3125 17.4413 5.2269 17.648 5.07452 17.8004C4.92215 17.9527 4.71549 18.0383 4.5 18.0383Z" fill="url(#paint5_linear_191_24181)"/>
<path d="M40.0867 34.1251C39.98 34.1252 39.8743 34.1042 39.7757 34.0634C39.6771 34.0225 39.5876 33.9626 39.5123 33.887L37.2145 31.5885C37.0622 31.4361 36.9766 31.2295 36.9766 31.014C36.9766 30.7986 37.0622 30.592 37.2145 30.4396C37.3669 30.2873 37.5735 30.2017 37.7889 30.2017C38.0044 30.2017 38.211 30.2873 38.3634 30.4396L40.6611 32.7382C40.7751 32.8516 40.8528 32.9964 40.8844 33.1541C40.916 33.3119 40.8999 33.4754 40.8384 33.624C40.7768 33.7726 40.6725 33.8996 40.5387 33.9888C40.4049 34.078 40.2475 34.1255 40.0867 34.1251Z" fill="url(#paint6_linear_191_24181)"/>
<path d="M10.2112 4.2501C10.1045 4.25021 9.99881 4.22924 9.90023 4.18838C9.80165 4.14753 9.71211 4.0876 9.63676 4.01204L7.33901 1.71347C7.26358 1.63804 7.20374 1.54848 7.16291 1.44992C7.12209 1.35136 7.10107 1.24572 7.10107 1.13904C7.10107 0.923582 7.18666 0.71695 7.33901 0.5646C7.49136 0.41225 7.698 0.32666 7.91345 0.32666C8.12891 0.32666 8.33554 0.41225 8.48789 0.5646L10.7856 2.86316C10.8996 2.97664 10.9773 3.12143 11.0089 3.27915C11.0405 3.43687 11.0245 3.60041 10.9629 3.74901C10.9014 3.89761 10.797 4.02458 10.6632 4.1138C10.5294 4.20301 10.372 4.25046 10.2112 4.2501Z" fill="url(#paint7_linear_191_24181)"/>
<path d="M7.91309 34.1251C7.75224 34.1255 7.59492 34.078 7.46108 33.9888C7.32725 33.8996 7.22293 33.7726 7.16139 33.624C7.09984 33.4754 7.08383 33.3119 7.11539 33.1541C7.14695 32.9964 7.22466 32.8516 7.33865 32.7382L9.6364 30.4396C9.71184 30.3642 9.80139 30.3043 9.89996 30.2635C9.99852 30.2227 10.1042 30.2017 10.2108 30.2017C10.3175 30.2017 10.4232 30.2227 10.5217 30.2635C10.6203 30.3043 10.7098 30.3642 10.7853 30.4396C10.8607 30.515 10.9206 30.6046 10.9614 30.7032C11.0022 30.8017 11.0232 30.9074 11.0232 31.014C11.0232 31.1207 11.0022 31.2264 10.9614 31.3249C10.9206 31.4235 10.8607 31.513 10.7853 31.5885L8.48753 33.887C8.41218 33.9626 8.32264 34.0225 8.22406 34.0634C8.12548 34.1042 8.0198 34.1252 7.91309 34.1251Z" fill="url(#paint8_linear_191_24181)"/>
<path d="M37.7891 4.2501C37.6282 4.25046 37.4709 4.20301 37.3371 4.1138C37.2032 4.02458 37.0989 3.89761 37.0374 3.74901C36.9758 3.60041 36.9598 3.43687 36.9914 3.27915C37.0229 3.12143 37.1006 2.97664 37.2146 2.86316L39.5124 0.5646C39.6647 0.41225 39.8714 0.32666 40.0868 0.32666C40.3023 0.32666 40.5089 0.41225 40.6613 0.5646C40.8136 0.71695 40.8992 0.923582 40.8992 1.13904C40.8992 1.35449 40.8136 1.56112 40.6613 1.71347L38.3635 4.01204C38.2882 4.0876 38.1986 4.14753 38.1 4.18838C38.0015 4.22924 37.8958 4.25021 37.7891 4.2501Z" fill="url(#paint9_linear_191_24181)"/>
<path d="M41.8571 10.2043C41.6705 10.2044 41.4895 10.1403 41.3446 10.0227C41.1996 9.90515 41.0996 9.74126 41.0613 9.5586C41.0229 9.37595 41.0487 9.18567 41.1341 9.01975C41.2196 8.85383 41.3595 8.72239 41.5305 8.64751L44.5067 7.34183C44.6044 7.29899 44.7095 7.27581 44.8162 7.27361C44.9228 7.27141 45.0288 7.29024 45.1282 7.32902C45.2276 7.3678 45.3183 7.42577 45.3953 7.49963C45.4722 7.57348 45.5339 7.66177 45.5767 7.75945C45.6196 7.85713 45.6428 7.9623 45.645 8.06894C45.6472 8.17558 45.6283 8.28161 45.5895 8.38098C45.5508 8.48034 45.4928 8.57109 45.4189 8.64805C45.3451 8.72501 45.2568 8.78667 45.1591 8.82951L42.1829 10.1352C42.0804 10.1808 41.9694 10.2043 41.8571 10.2043Z" fill="url(#paint10_linear_191_24181)"/>
<path d="M3.16766 27.1789C2.98103 27.179 2.80003 27.1149 2.6551 26.9973C2.51017 26.8798 2.41013 26.7159 2.37181 26.5332C2.33348 26.3506 2.35921 26.1603 2.44466 25.9944C2.53011 25.8284 2.67008 25.697 2.84104 25.6221L5.81722 24.3164C5.91491 24.2736 6.02007 24.2504 6.12671 24.2482C6.23335 24.246 6.33938 24.2649 6.43875 24.3036C6.53811 24.3424 6.62887 24.4004 6.70583 24.4742C6.78279 24.5481 6.84445 24.6364 6.88729 24.7341C6.93013 24.8317 6.95331 24.9369 6.9555 25.0435C6.9577 25.1502 6.93887 25.2562 6.90009 25.3556C6.86131 25.4549 6.80334 25.5457 6.72949 25.6227C6.65563 25.6996 6.56734 25.7613 6.46966 25.8041L3.49347 27.1098C3.3909 27.1554 3.2799 27.1789 3.16766 27.1789Z" fill="url(#paint11_linear_191_24181)"/>
<path d="M6.14281 10.2041C6.03056 10.2042 5.91954 10.1807 5.817 10.135L2.84081 8.82936C2.74041 8.78836 2.64922 8.72768 2.57264 8.65089C2.49606 8.5741 2.43562 8.48275 2.3949 8.38223C2.35418 8.28171 2.33399 8.17406 2.33553 8.06562C2.33707 7.95718 2.3603 7.85014 2.40386 7.75082C2.44742 7.6515 2.51042 7.56191 2.58915 7.48732C2.66788 7.41273 2.76075 7.35466 2.86228 7.31653C2.9638 7.27839 3.07194 7.26097 3.1803 7.26529C3.28867 7.26961 3.39508 7.29558 3.49325 7.34167L6.46944 8.64736C6.64039 8.72223 6.78036 8.85368 6.86581 9.0196C6.95126 9.18552 6.97699 9.37579 6.93866 9.55845C6.90034 9.7411 6.8003 9.905 6.65537 10.0226C6.51044 10.1402 6.32944 10.2043 6.14281 10.2041Z" fill="url(#paint12_linear_191_24181)"/>
<path d="M44.8323 27.179C44.72 27.179 44.609 27.1555 44.5065 27.1099L41.5303 25.8042C41.4299 25.7632 41.3387 25.7025 41.2621 25.6257C41.1855 25.5489 41.1251 25.4576 41.0844 25.3571C41.0436 25.2566 41.0234 25.1489 41.025 25.0405C41.0265 24.932 41.0498 24.825 41.0933 24.7257C41.1369 24.6264 41.1999 24.5368 41.2786 24.4622C41.3573 24.3876 41.4502 24.3295 41.5517 24.2914C41.6533 24.2532 41.7614 24.2358 41.8698 24.2401C41.9781 24.2445 42.0845 24.2704 42.1827 24.3165L45.1589 25.6222C45.3298 25.6971 45.4698 25.8285 45.5553 25.9944C45.6407 26.1604 45.6664 26.3506 45.6281 26.5333C45.5898 26.716 45.4898 26.8799 45.3448 26.9974C45.1999 27.115 45.0189 27.1791 44.8323 27.179Z" fill="url(#paint13_linear_191_24181)"/>
<path d="M32.125 39H15.875C15.6595 39 15.4528 38.9144 15.3005 38.762C15.1481 38.6097 15.0625 38.403 15.0625 38.1875C15.0625 37.972 15.1481 37.7653 15.3005 37.613C15.4528 37.4606 15.6595 37.375 15.875 37.375H32.125C32.3405 37.375 32.5472 37.4606 32.6995 37.613C32.8519 37.7653 32.9375 37.972 32.9375 38.1875C32.9375 38.403 32.8519 38.6097 32.6995 38.762C32.5472 38.9144 32.3405 39 32.125 39Z" fill="url(#paint14_linear_191_24181)"/>
<path d="M32.125 43.875H15.875C15.6595 43.875 15.4528 43.7894 15.3005 43.637C15.1481 43.4847 15.0625 43.278 15.0625 43.0625C15.0625 42.847 15.1481 42.6403 15.3005 42.488C15.4528 42.3356 15.6595 42.25 15.875 42.25H32.125C32.3405 42.25 32.5472 42.3356 32.6995 42.488C32.8519 42.6403 32.9375 42.847 32.9375 43.0625C32.9375 43.278 32.8519 43.4847 32.6995 43.637C32.5472 43.7894 32.3405 43.875 32.125 43.875Z" fill="url(#paint15_linear_191_24181)"/>
<defs>
<linearGradient id="paint0_linear_191_24181" x1="6.93761" y1="24.375" x2="41.0626" y2="24.375" gradientUnits="userSpaceOnUse">
<stop stop-color="#FEEC97"/>
<stop offset="0.989" stop-color="#FFC002"/>
</linearGradient>
<linearGradient id="paint1_linear_191_24181" x1="19.125" y1="49.5625" x2="28.875" y2="49.5625" gradientUnits="userSpaceOnUse">
<stop stop-color="#A5ABEE"/>
<stop offset="0.989" stop-color="#6C76E7"/>
</linearGradient>
<linearGradient id="paint2_linear_191_24181" x1="16.5496" y1="43.0625" x2="31.4508" y2="43.0625" gradientUnits="userSpaceOnUse">
<stop stop-color="#DFD1F8"/>
<stop offset="0.989" stop-color="#A7AEF2"/>
</linearGradient>
<linearGradient id="paint3_linear_191_24181" x1="14.25" y1="26.8125" x2="33.75" y2="26.8125" gradientUnits="userSpaceOnUse">
<stop stop-color="#FFB850"/>
<stop offset="0.989" stop-color="#FF8901"/>
</linearGradient>
<linearGradient id="paint4_linear_191_24181" x1="42.6875" y1="17.2258" x2="47.5625" y2="17.2258" gradientUnits="userSpaceOnUse">
<stop stop-color="#FEEC97"/>
<stop offset="0.989" stop-color="#FFC002"/>
</linearGradient>
<linearGradient id="paint5_linear_191_24181" x1="0.4375" y1="17.2258" x2="5.3125" y2="17.2258" gradientUnits="userSpaceOnUse">
<stop stop-color="#FEEC97"/>
<stop offset="0.989" stop-color="#FFC002"/>
</linearGradient>
<linearGradient id="paint6_linear_191_24181" x1="36.9764" y1="32.1637" x2="40.8992" y2="32.1637" gradientUnits="userSpaceOnUse">
<stop stop-color="#FEEC97"/>
<stop offset="0.989" stop-color="#FFC002"/>
</linearGradient>
<linearGradient id="paint7_linear_191_24181" x1="7.10095" y1="2.28791" x2="11.0237" y2="2.28791" gradientUnits="userSpaceOnUse">
<stop stop-color="#FEEC97"/>
<stop offset="0.989" stop-color="#FFC002"/>
</linearGradient>
<linearGradient id="paint8_linear_191_24181" x1="7.10059" y1="32.1637" x2="11.0233" y2="32.1637" gradientUnits="userSpaceOnUse">
<stop stop-color="#FEEC97"/>
<stop offset="0.989" stop-color="#FFC002"/>
</linearGradient>
<linearGradient id="paint9_linear_191_24181" x1="36.9766" y1="2.28791" x2="40.8993" y2="2.28791" gradientUnits="userSpaceOnUse">
<stop stop-color="#FEEC97"/>
<stop offset="0.989" stop-color="#FFC002"/>
</linearGradient>
<linearGradient id="paint10_linear_191_24181" x1="41.0438" y1="8.73851" x2="45.6458" y2="8.73851" gradientUnits="userSpaceOnUse">
<stop stop-color="#FEEC97"/>
<stop offset="0.989" stop-color="#FFC002"/>
</linearGradient>
<linearGradient id="paint11_linear_191_24181" x1="2.35435" y1="25.7139" x2="6.95635" y2="25.7139" gradientUnits="userSpaceOnUse">
<stop stop-color="#FEEC97"/>
<stop offset="0.989" stop-color="#FFC002"/>
</linearGradient>
<linearGradient id="paint12_linear_191_24181" x1="2.35412" y1="8.73836" x2="6.95612" y2="8.73836" gradientUnits="userSpaceOnUse">
<stop stop-color="#FEEC97"/>
<stop offset="0.989" stop-color="#FFC002"/>
</linearGradient>
<linearGradient id="paint13_linear_191_24181" x1="41.0436" y1="25.714" x2="45.6456" y2="25.714" gradientUnits="userSpaceOnUse">
<stop stop-color="#FEEC97"/>
<stop offset="0.989" stop-color="#FFC002"/>
</linearGradient>
<linearGradient id="paint14_linear_191_24181" x1="15.0625" y1="38.1875" x2="32.9375" y2="38.1875" gradientUnits="userSpaceOnUse">
<stop stop-color="#A5ABEE"/>
<stop offset="0.989" stop-color="#6C76E7"/>
</linearGradient>
<linearGradient id="paint15_linear_191_24181" x1="15.0625" y1="43.0625" x2="32.9375" y2="43.0625" gradientUnits="userSpaceOnUse">
<stop stop-color="#A5ABEE"/>
<stop offset="0.989" stop-color="#6C76E7"/>
</linearGradient>
</defs>
</svg>
