<svg width="33" height="34" viewBox="0 0 33 34" fill="none" xmlns="http://www.w3.org/2000/svg">
<path d="M15.7728 0.00284283C24.7087 -0.163965 32.1256 7.03156 32.162 15.9118C32.1774 19.663 30.8914 23.1151 28.727 25.8484C26.9995 28.0301 28.0283 31.2645 30.7039 32.0637C30.7285 32.071 30.7532 32.0784 30.7779 32.0854C31.2836 32.2326 31.3393 32.9286 30.8642 33.1548C29.7271 33.6961 28.454 34 27.1088 34C24.7916 34 22.6871 33.1001 21.1264 31.6343C20.8891 31.4114 20.5503 31.3336 20.2347 31.4173C18.75 31.8108 17.1812 31.9992 15.5603 31.9481C6.91249 31.6755 -0.00957596 24.5567 9.94412e-06 15.9599C0.00959585 7.24599 7.03982 0.165918 15.7728 0.00284283Z" fill="url(#paint0_linear_191_25127)"/>
<path d="M16.0808 30.6302C24.1163 30.6302 30.6303 24.1847 30.6303 16.2338C30.6303 8.28289 24.1163 1.8374 16.0808 1.8374C8.04531 1.8374 1.53125 8.28289 1.53125 16.2338C1.53125 24.1847 8.04531 30.6302 16.0808 30.6302Z" fill="url(#paint1_linear_191_25127)"/>
<path d="M31.8548 18.0999L20.9302 7.21359C19.7494 5.89891 17.9054 5.20654 16.0697 5.20654C13.067 5.20654 10.1168 7.04396 10.1168 10.2462C10.1168 11.2491 10.4076 11.817 10.8714 12.1092L14.0437 15.3153C11.9384 16.8579 9.80078 18.4964 9.80078 20.5881V23.1343C9.80078 23.4918 10.0332 23.7913 10.356 24.0085L18.1867 31.8118C18.8428 31.7232 19.4927 31.5939 20.1326 31.4246C20.4463 31.3412 20.7831 31.4187 21.019 31.641C22.5705 33.1022 24.6624 33.9993 26.9656 33.9993C28.3026 33.9993 29.5683 33.6964 30.6984 33.1567C31.1707 32.9312 31.1153 32.2374 30.6127 32.0906L30.5391 32.0689C27.8795 31.2723 26.857 28.0479 28.5741 25.8729C30.3095 23.675 31.4763 21.0108 31.8548 18.0999Z" fill="url(#paint2_linear_191_25127)" fill-opacity="0.4"/>
<defs>
<linearGradient id="paint0_linear_191_25127" x1="5.92514" y1="5.89106" x2="28.6817" y2="28.7943" gradientUnits="userSpaceOnUse">
<stop stop-color="#FFD945"/>
<stop offset="0.304" stop-color="#FFCD3E"/>
<stop offset="0.856" stop-color="#FFAD2B"/>
<stop offset="1" stop-color="#FFA325"/>
</linearGradient>
<linearGradient id="paint1_linear_191_25127" x1="14.3316" y1="12.1765" x2="5.10249" y2="-9.6893" gradientUnits="userSpaceOnUse">
<stop stop-color="white" stop-opacity="0"/>
<stop offset="1" stop-color="white"/>
</linearGradient>
<linearGradient id="paint2_linear_191_25127" x1="22.7638" y1="22.7235" x2="-8.39131" y2="-8.54133" gradientUnits="userSpaceOnUse">
<stop stop-color="#F82814" stop-opacity="0"/>
<stop offset="1" stop-color="#C0272D"/>
</linearGradient>
</defs>
</svg>
