<svg width="49" height="51" viewBox="0 0 49 51" fill="none" xmlns="http://www.w3.org/2000/svg">
<path d="M25.1224 0C25.1224 0 18.7769 29.697 0 35.981C0 35.981 25.984 53.6706 35.6049 49.5884C50.8671 43.1403 49.8619 20.7051 45.5062 4.71131C38.3966 5.17397 31.3079 3.53556 25.1224 0Z" fill="url(#paint0_linear_191_24962)"/>
<path d="M44.6927 14.6742C44.6451 14.6809 44.5968 14.6809 44.5491 14.6742C38.085 14.3169 31.6914 13.1475 25.5193 11.1937C25.4432 11.1739 25.3721 11.1385 25.3105 11.0898C25.2489 11.0411 25.198 10.9802 25.1611 10.9108C25.1243 10.8415 25.1022 10.7652 25.0963 10.6869C25.0904 10.6085 25.1009 10.5298 25.127 10.4557C25.1531 10.3817 25.1944 10.3138 25.2481 10.2565C25.3018 10.1991 25.3668 10.1536 25.439 10.1227C25.5112 10.0918 25.5891 10.0762 25.6676 10.0769C25.7462 10.0777 25.8237 10.0947 25.8953 10.127C31.9627 12.0495 38.2486 13.1983 44.6038 13.5459C44.6784 13.5494 44.7515 13.5676 44.819 13.5994C44.8866 13.6312 44.9471 13.676 44.9973 13.7313C45.0475 13.7866 45.0863 13.8512 45.1115 13.9214C45.1366 13.9917 45.1477 14.0663 45.144 14.1408C45.1403 14.2677 45.0936 14.3895 45.0116 14.4864C44.9296 14.5832 44.8172 14.6495 44.6927 14.6742Z" fill="url(#paint1_linear_191_24962)"/>
<path d="M44.4526 20.6093H44.3227C34.1137 20.3563 23.4535 15.939 23.3509 15.8912C23.2131 15.8331 23.104 15.7227 23.0475 15.5842C22.9911 15.4457 22.992 15.2905 23.05 15.1527C23.1081 15.0148 23.2185 14.9057 23.357 14.8493C23.4955 14.7929 23.6507 14.7938 23.7885 14.8518C23.8911 14.8928 34.3599 19.2349 44.3501 19.4811C44.4927 19.4768 44.6317 19.527 44.7386 19.6216C44.8455 19.7162 44.9123 19.848 44.9253 19.9901C44.9384 20.1323 44.8968 20.274 44.8089 20.3865C44.7211 20.499 44.5937 20.5738 44.4526 20.5956V20.6093Z" fill="url(#paint2_linear_191_24962)"/>
<path d="M43.7694 27.1463H43.6395C32.7946 27.0027 21.6351 20.5204 21.1633 20.2469C21.0353 20.1701 20.9426 20.0459 20.9055 19.9012C20.8684 19.7566 20.8898 19.6032 20.965 19.4742C21.0024 19.4101 21.0521 19.3541 21.1113 19.3093C21.1706 19.2646 21.238 19.2321 21.3099 19.2136C21.3818 19.1952 21.4566 19.1912 21.53 19.2019C21.6035 19.2126 21.6741 19.2377 21.7377 19.2759C21.8471 19.3374 33.1091 25.8745 43.619 26.018C43.6932 26.018 43.7666 26.0328 43.8351 26.0614C43.9036 26.09 43.9657 26.1319 44.0179 26.1847C44.07 26.2375 44.1112 26.3001 44.1389 26.3689C44.1667 26.4377 44.1805 26.5114 44.1796 26.5856C44.1808 26.7108 44.1415 26.833 44.0675 26.934C43.9936 27.035 43.889 27.1095 43.7694 27.1463Z" fill="url(#paint3_linear_191_24962)"/>
<path d="M42.0807 33.7929C42.0262 33.7995 41.9711 33.7995 41.9166 33.7929C35.8052 33.2562 29.8383 31.6354 24.2953 29.0064C24.1741 28.931 24.0857 28.8127 24.0477 28.6751C24.0098 28.5374 24.0251 28.3905 24.0907 28.2637C24.1563 28.1368 24.2673 28.0394 24.4015 27.9907C24.5358 27.9421 24.6834 27.9458 24.815 28.0012C30.2244 30.5652 36.0483 32.1422 42.0123 32.6578C42.1605 32.6717 42.2973 32.7433 42.3933 32.8572C42.4892 32.971 42.5366 33.118 42.5252 33.2664C42.5214 33.3915 42.4755 33.5116 42.3948 33.6072C42.3141 33.7028 42.2034 33.7682 42.0807 33.7929Z" fill="url(#paint4_linear_191_24962)"/>
<path d="M39.5776 41.677C39.5188 41.6874 39.4586 41.6874 39.3998 41.677C26.2437 40.1864 14.3663 33.0066 14.2569 32.9656C14.1853 32.9313 14.1217 32.8824 14.0702 32.822C14.0187 32.7616 13.9805 32.6911 13.958 32.615C13.9354 32.539 13.9291 32.459 13.9393 32.3803C13.9496 32.3016 13.9763 32.226 14.0176 32.1582C14.0589 32.0905 14.114 32.0322 14.1792 31.987C14.2445 31.9419 14.3185 31.9109 14.3964 31.8962C14.4744 31.8814 14.5546 31.8831 14.6318 31.9013C14.7091 31.9194 14.7817 31.9535 14.8449 32.0014C14.9612 32.0698 26.6197 39.0923 39.5228 40.5625C39.5967 40.5701 39.6682 40.5923 39.7334 40.6279C39.7985 40.6634 39.856 40.7115 39.9024 40.7693C39.9489 40.8272 39.9833 40.8937 40.0038 40.965C40.0244 41.0364 40.0306 41.111 40.022 41.1847C40.0089 41.303 39.9589 41.4142 39.8792 41.5026C39.7994 41.5909 39.6939 41.652 39.5776 41.677Z" fill="url(#paint5_linear_191_24962)"/>
<path d="M31.9875 4.88916C31.9875 4.88916 35.7004 6.161 36.0081 6.29092C36.4389 6.46187 36.1517 7.6585 35.6184 7.54226C35.2491 7.47388 31.4678 6.51657 31.4678 6.51657L31.9875 4.88916Z" fill="url(#paint6_linear_191_24962)"/>
<path d="M30.1626 8.39012C31.5302 8.82091 33.014 7.84309 33.5406 6.20883C34.0671 4.57457 33.397 2.8993 32.0568 2.47535C30.7165 2.0514 29.2054 3.02237 28.6788 4.65663C28.1523 6.29088 28.8224 7.97301 30.1626 8.39012Z" fill="url(#paint7_linear_191_24962)"/>
<defs>
<linearGradient id="paint0_linear_191_24962" x1="18.4119" y1="49.7153" x2="33.3231" y2="9.14658" gradientUnits="userSpaceOnUse">
<stop stop-color="#F0F0F0"/>
<stop offset="1" stop-color="white"/>
</linearGradient>
<linearGradient id="paint1_linear_191_24962" x1="49.3099" y1="38.2042" x2="31.3726" y2="5.60308" gradientUnits="userSpaceOnUse">
<stop stop-color="#C0CCF9"/>
<stop offset="1" stop-color="#DCE9FF"/>
</linearGradient>
<linearGradient id="paint2_linear_191_24962" x1="46.123" y1="39.9605" x2="28.1842" y2="7.35271" gradientUnits="userSpaceOnUse">
<stop stop-color="#C0CCF9"/>
<stop offset="1" stop-color="#DCE9FF"/>
</linearGradient>
<linearGradient id="paint3_linear_191_24962" x1="42.7493" y1="41.8195" x2="24.8038" y2="9.21317" gradientUnits="userSpaceOnUse">
<stop stop-color="#C0CCF9"/>
<stop offset="1" stop-color="#DCE9FF"/>
</linearGradient>
<linearGradient id="paint4_linear_191_24962" x1="40.0565" y1="43.2973" x2="22.1192" y2="10.6962" gradientUnits="userSpaceOnUse">
<stop stop-color="#C0CCF9"/>
<stop offset="1" stop-color="#DCE9FF"/>
</linearGradient>
<linearGradient id="paint5_linear_191_24962" x1="32.7557" y1="47.3138" x2="14.8184" y2="14.7127" gradientUnits="userSpaceOnUse">
<stop stop-color="#C0CCF9"/>
<stop offset="1" stop-color="#DCE9FF"/>
</linearGradient>
<linearGradient id="paint6_linear_191_24962" x1="34.3194" y1="7.10737" x2="34.8069" y2="5.30538" gradientUnits="userSpaceOnUse">
<stop stop-color="#A6A79F"/>
<stop offset="1" stop-color="#E5E8F4"/>
</linearGradient>
<linearGradient id="paint7_linear_191_24962" x1="27.4388" y1="-0.0454413" x2="33.0684" y2="6.7139" gradientUnits="userSpaceOnUse">
<stop stop-color="#FF9538"/>
<stop offset="1" stop-color="#EBAB38"/>
</linearGradient>
</defs>
</svg>
