<svg width="15" height="20" viewBox="0 0 15 20" fill="none" xmlns="http://www.w3.org/2000/svg">
<path d="M8.83199 4.26744L7.80503 3.54349C7.76756 3.51708 7.72525 3.4983 7.68051 3.48824C7.63578 3.47818 7.58951 3.47703 7.54433 3.48486C7.49915 3.49269 7.45596 3.50934 7.41722 3.53386C7.37848 3.55839 7.34495 3.5903 7.31855 3.62779L0.920112 12.7046C0.886568 12.7523 0.86548 12.8076 0.858769 12.8655C0.852058 12.9233 0.859937 12.982 0.881689 13.0361C0.903441 13.0901 0.938373 13.1379 0.983305 13.175C1.02824 13.2121 1.08174 13.2374 1.13894 13.2485L1.40363 13.2999C1.48457 13.3156 1.56123 13.3484 1.62847 13.3961C1.69575 13.4435 1.75214 13.5046 1.79386 13.5755L1.93121 13.8081C1.96206 13.8604 2.00603 13.9038 2.05877 13.9339C2.11151 13.964 2.17119 13.9798 2.23191 13.9798C2.28784 13.9798 2.34294 13.9663 2.39259 13.9406C2.44223 13.9148 2.48496 13.8775 2.51718 13.8318L8.91628 4.75404C8.9696 4.67832 8.99067 4.58453 8.97486 4.49329C8.95905 4.40204 8.90766 4.32081 8.83199 4.26744Z" fill="#F99841"/>
<path d="M11.3854 6.06723L10.3584 5.34328C10.2827 5.28995 10.189 5.26887 10.0977 5.28466C10.0065 5.30045 9.92527 5.35183 9.87191 5.4275L3.4734 14.5043C3.43983 14.552 3.41872 14.6073 3.412 14.6652C3.40528 14.7231 3.41315 14.7817 3.4349 14.8358C3.45665 14.8898 3.49159 14.9376 3.53652 14.9747C3.58146 15.0118 3.63498 15.0371 3.69218 15.0482L3.95687 15.0996C4.03779 15.1153 4.11443 15.1481 4.18168 15.1958C4.24901 15.2432 4.30542 15.3044 4.34715 15.3754L4.48457 15.608C4.51544 15.6603 4.55941 15.7036 4.61214 15.7337C4.66486 15.7638 4.72452 15.7796 4.78523 15.7796C4.84116 15.7796 4.89627 15.7662 4.94593 15.7404C4.99558 15.7147 5.03832 15.6774 5.07054 15.6317L11.4697 6.55375C11.523 6.47805 11.5441 6.38427 11.5283 6.29303C11.5125 6.2018 11.4611 6.12058 11.3854 6.06723Z" fill="#FFD05C"/>
<path d="M10.2515 5.39319C10.2437 5.34801 10.227 5.30482 10.2025 5.26607C10.178 5.22732 10.1461 5.19378 10.1087 5.16737L9.08159 4.44342C9.04412 4.417 9.00181 4.39822 8.95708 4.38816C8.91234 4.37809 8.86607 4.37693 8.82089 4.38475C8.77571 4.39257 8.73251 4.40922 8.69377 4.43374C8.65502 4.45825 8.62148 4.49016 8.59507 4.52764L2.19659 13.6045C2.16301 13.6521 2.14189 13.7074 2.13515 13.7653C2.12842 13.8232 2.13628 13.8819 2.15804 13.9359C2.17979 13.99 2.21474 14.0378 2.25969 14.0749C2.30464 14.112 2.35816 14.1373 2.41538 14.1484L2.68015 14.1998C2.76109 14.2154 2.83774 14.2483 2.90495 14.296C2.97227 14.3433 3.02866 14.4045 3.07031 14.4754L3.20773 14.708C3.23859 14.7602 3.28255 14.8036 3.33528 14.8337C3.38801 14.8638 3.44768 14.8796 3.50839 14.8796C3.56433 14.8796 3.61945 14.8661 3.66911 14.8404C3.71877 14.8146 3.76151 14.7773 3.79374 14.7316L10.1929 5.65389C10.2462 5.57818 10.2672 5.48442 10.2515 5.39319Z" fill="#FBB85F"/>
<path d="M11.5337 6.4732L12.8687 4.56953C12.922 4.49384 12.9431 4.40007 12.9273 4.30884C12.9115 4.21761 12.8601 4.1364 12.7845 4.08305L9.20418 1.55914C9.16671 1.53272 9.1244 1.51395 9.07968 1.50388C9.03495 1.49381 8.98868 1.49266 8.9435 1.50047C8.89833 1.50829 8.85514 1.52493 8.81639 1.54944C8.77765 1.57395 8.74411 1.60585 8.71769 1.64332L7.37891 3.56262L11.5337 6.4732Z" fill="#D1D6E4"/>
<path d="M12.5835 1.17309C12.5146 1.12508 12.4446 1.07637 12.3737 1.02641L12.2206 0.918437C12.1602 0.875821 12.0999 0.833034 12.0398 0.790078L12.0108 0.769414C11.4563 0.373711 10.9325 0 10.432 0C10.0577 0 9.73654 0.1975 9.45018 0.603711L8.68018 1.69609L12.8196 4.63871L13.6013 3.52988C13.8445 3.18504 13.9366 2.86922 13.8829 2.56438C13.7854 2.01008 13.229 1.62262 12.5835 1.17309Z" fill="#EF5440"/>
<path opacity="0.15" d="M8.02018 4.01227C8.03489 3.99328 8.05148 3.97583 8.06971 3.9602L8.06967 3.96016L9.37158 2.09371L9.37131 2.09355L9.40807 2.04141L9.40846 2.04086L9.4085 2.04082L10.1413 1.00117C10.4277 0.594961 10.7488 0.397461 11.1231 0.397461C11.2974 0.397461 11.4744 0.443438 11.6546 0.51918C11.5581 0.452931 11.4598 0.389288 11.3599 0.32832C11.3492 0.321836 11.3385 0.315313 11.3278 0.308984C11.2977 0.291 11.2673 0.273498 11.2366 0.256484C11.2207 0.247578 11.2048 0.238594 11.1889 0.230039C11.1681 0.21886 11.1472 0.207947 11.1261 0.197305C11.1089 0.188516 11.0916 0.180156 11.0745 0.171836C11.0564 0.163034 11.0382 0.15444 11.0199 0.146055C11.0074 0.140391 10.9949 0.135039 10.9825 0.129648C10.9651 0.122085 10.9475 0.114779 10.9299 0.107734C10.918 0.103008 10.9062 0.0982422 10.8943 0.09375C10.8738 0.0860721 10.8532 0.0787792 10.8325 0.071875C10.8241 0.0690625 10.8156 0.0658594 10.8072 0.0632422C10.7791 0.0542863 10.7508 0.0461578 10.7222 0.0388672C10.7139 0.0367187 10.7056 0.0350391 10.6973 0.0330859C10.6766 0.0281274 10.6557 0.0236859 10.6347 0.0197656C10.6248 0.0178906 10.6148 0.0162891 10.6049 0.0146875C10.5848 0.0114926 10.5647 0.00880943 10.5445 0.00664063C10.5355 0.00570313 10.5265 0.00457031 10.5176 0.00382812C10.4891 0.00140691 10.4605 0.000129839 10.4319 0C10.0576 0 9.73646 0.1975 9.4501 0.603711L8.71725 1.64336L8.71721 1.6434L8.71682 1.64395L8.68006 1.69609L8.68033 1.69625L7.37842 3.5627L8.02018 4.01227Z" fill="#30302F"/>
<path d="M14.1461 18.1945H3.9609C3.87471 18.1935 3.79237 18.1586 3.73175 18.0973C3.67113 18.0361 3.63713 17.9533 3.63713 17.8671C3.63713 17.7809 3.67113 17.6982 3.73175 17.6369C3.79237 17.5757 3.87471 17.5408 3.9609 17.5398H14.1461C14.1894 17.5393 14.2323 17.5475 14.2725 17.5637C14.3126 17.5799 14.3491 17.604 14.3799 17.6344C14.4106 17.6649 14.4351 17.7011 14.4518 17.741C14.4684 17.781 14.477 17.8239 14.477 17.8671C14.477 17.9104 14.4684 17.9533 14.4518 17.9932C14.4351 18.0332 14.4106 18.0694 14.3799 18.0999C14.3491 18.1303 14.3126 18.1543 14.2725 18.1706C14.2323 18.1868 14.1894 18.1949 14.1461 18.1945ZM2.9136 18.1945H0.515978C0.472692 18.1949 0.429743 18.1868 0.389615 18.1706C0.349488 18.1543 0.312979 18.1303 0.282203 18.0999C0.251427 18.0694 0.226994 18.0332 0.210319 17.9932C0.193644 17.9533 0.185059 17.9104 0.185059 17.8671C0.185059 17.8239 0.193644 17.781 0.210319 17.741C0.226994 17.7011 0.251427 17.6649 0.282203 17.6344C0.312979 17.604 0.349488 17.5799 0.389615 17.5637C0.429743 17.5475 0.472692 17.5393 0.515978 17.5398H2.9136C2.95658 17.5398 2.99915 17.5483 3.03886 17.5647C3.07857 17.5812 3.11466 17.6053 3.14505 17.6357C3.17544 17.6661 3.19955 17.7022 3.216 17.7419C3.23244 17.7816 3.24091 17.8242 3.2409 17.8672C3.24089 17.954 3.2064 18.0372 3.14502 18.0986C3.08364 18.16 3.0004 18.1945 2.9136 18.1945ZM14.1461 19.9999H0.515978C0.429177 19.9999 0.345931 19.9654 0.284553 19.9041C0.223175 19.8427 0.188693 19.7594 0.188693 19.6726C0.188693 19.5858 0.223175 19.5026 0.284553 19.4412C0.345931 19.3798 0.429177 19.3454 0.515978 19.3454H14.1461C14.1893 19.3449 14.2323 19.353 14.2724 19.3692C14.3125 19.3855 14.349 19.4095 14.3798 19.4399C14.4106 19.4704 14.435 19.5066 14.4517 19.5465C14.4684 19.5865 14.477 19.6293 14.477 19.6726C14.477 19.7159 14.4684 19.7588 14.4517 19.7987C14.435 19.8387 14.4106 19.8749 14.3798 19.9053C14.3491 19.9358 14.3126 19.9598 14.2724 19.976C14.2323 19.9923 14.1894 20.0004 14.1461 19.9999Z" fill="#D1D6E4"/>
<path d="M2.15042 16.6676L0.90839 15.792C0.854545 15.754 0.791778 15.7306 0.726205 15.7241C0.660631 15.7176 0.594486 15.7281 0.534211 15.7548C0.411554 15.8089 0.372844 15.5892 0.356086 15.7222L0.106555 17.6627C0.0978238 17.7315 0.10799 17.8014 0.135962 17.8648C0.163934 17.9283 0.208656 17.9829 0.265328 18.0228C0.322 18.0628 0.388483 18.0866 0.457641 18.0916C0.5268 18.0966 0.596023 18.0827 0.657883 18.0514L2.35566 17.172C2.47527 17.1115 2.30152 17.1412 2.31124 17.0075C2.31603 16.9418 2.30374 16.8759 2.27556 16.8164C2.24738 16.7568 2.20427 16.7056 2.15042 16.6676Z" fill="#415B6B"/>
<path d="M4.70723 14.4192C4.49668 14.2708 4.23508 14.2111 3.97738 14.2551C3.93223 14.2629 3.88767 14.2738 3.84402 14.2878C3.8343 13.9915 3.69098 13.7029 3.43059 13.5194C3.26583 13.4029 3.06895 13.3405 2.86719 13.3409C2.81148 13.3409 2.75555 13.3457 2.70082 13.3552C2.65563 13.363 2.61103 13.3739 2.56734 13.3879C2.55773 13.0917 2.41437 12.803 2.15398 12.6195C1.98924 12.5029 1.79231 12.4405 1.59051 12.4409C1.53488 12.4409 1.47902 12.4457 1.42422 12.4552C1.16785 12.4996 0.943789 12.641 0.792891 12.8541L0.752422 12.9114C0.719489 12.9582 0.698513 13.0123 0.691328 13.069L0.331055 15.9219C0.349609 15.9322 0.367617 15.9432 0.385156 15.9555L2.21168 17.2431C2.22121 17.2392 2.23066 17.2355 2.23996 17.2308L4.77578 15.948C4.8267 15.9222 4.87053 15.8844 4.90344 15.8378L4.94453 15.7795C5.25309 15.3391 5.14668 14.729 4.70723 14.4192Z" fill="#E2B186"/>
<path opacity="0.15" d="M0.610209 18.0552L0.854818 17.9315L1.54771 12.4431C1.50623 12.4445 1.46487 12.4486 1.42392 12.4553C1.16755 12.4997 0.94349 12.6412 0.792592 12.8542L0.752123 12.9116C0.719191 12.9583 0.698214 13.0124 0.691029 13.0691L0.330131 15.9276C0.32347 15.9805 0.329084 16.0343 0.346537 16.0846C0.317315 16.1288 0.298569 16.179 0.291732 16.2315L0.106264 17.7C0.0983302 17.7629 0.107652 17.8267 0.133229 17.8847C0.158807 17.9426 0.199676 17.9926 0.251459 18.0291C0.303277 18.0655 0.364027 18.0872 0.427215 18.0918C0.490404 18.0964 0.553655 18.0838 0.610209 18.0552Z" fill="#30302F"/>
</svg>
