<svg width="18" height="18" viewBox="0 0 18 18" fill="none" xmlns="http://www.w3.org/2000/svg">
<path d="M12.9577 10.2377L13.5517 11.4354C13.6022 11.5253 13.671 11.6035 13.7537 11.665C13.8364 11.7265 13.9311 11.7699 14.0317 11.7924L15.1079 11.9724C15.7964 12.0887 15.9584 12.5919 15.4619 13.0892L14.6249 13.9329C14.5517 14.0159 14.4979 14.1142 14.4676 14.2206C14.4372 14.327 14.431 14.4388 14.4494 14.5479L14.6894 15.5934C14.8784 16.4199 14.4427 16.7402 13.7174 16.3074L12.7087 15.7052C12.5257 15.5964 12.2257 15.5964 12.0404 15.7052L11.0309 16.3074C10.3087 16.7402 9.86993 16.4169 10.0589 15.5934L10.2989 14.5487C10.3175 14.4395 10.3113 14.3275 10.281 14.2209C10.2506 14.1144 10.1968 14.016 10.1234 13.9329L9.28643 13.0892C8.79368 12.5919 8.95268 12.0887 9.64043 11.9732L10.7174 11.7932C10.8173 11.77 10.9111 11.7262 10.993 11.6646C11.0749 11.603 11.143 11.5249 11.1929 11.4354L11.7869 10.2377C12.1109 9.58744 12.6374 9.58744 12.9577 10.2377Z" stroke="#58585A" stroke-width="1.5" stroke-linecap="round" stroke-linejoin="round"/>
<path d="M15 8.25225V5.865C15 4.5945 15 3.96 14.799 3.45225C14.4765 2.637 13.7925 1.9935 12.9263 1.68975C12.3878 1.5 11.7128 1.5 10.3635 1.5C8.0025 1.5 6.822 1.5 5.8785 1.83075C4.3635 2.36325 3.16725 3.489 2.601 4.91625C2.25 5.805 2.25 6.91575 2.25 9.13875V11.0482C2.25 13.3507 2.25 14.502 2.886 15.3022C3.06825 15.531 3.2835 15.7342 3.52725 15.906C4.21125 16.3882 5.1375 16.482 6.75 16.5H7.5" stroke="#58585A" stroke-width="1.5" stroke-linecap="round" stroke-linejoin="round"/>
<path d="M2.25 9C2.25 8.33702 2.51337 7.7012 2.98216 7.23241C3.45095 6.76362 4.08677 6.50025 4.74975 6.50025C5.24925 6.50025 5.838 6.58725 6.32325 6.4575C6.53528 6.40044 6.72859 6.28864 6.88378 6.13331C7.03898 5.97798 7.15062 5.78458 7.2075 5.5725C7.33725 5.08725 7.25025 4.4985 7.25025 3.999C7.25045 3.33615 7.5139 2.70053 7.98267 2.23189C8.45145 1.76326 9.08715 1.5 9.75 1.5" stroke="#58585A" stroke-width="1.5" stroke-linecap="round" stroke-linejoin="round"/>
</svg>
