<svg width="22" height="24" viewBox="0 0 22 24" fill="none" xmlns="http://www.w3.org/2000/svg">
<path d="M5.82227 5.45993V22.2398C5.82227 23.212 6.61034 24.0001 7.58249 24.0001H19.7182C20.6904 24.0001 21.4784 23.212 21.4784 22.2398V5.45993C21.4784 4.48778 20.6904 3.69971 19.7182 3.69971H7.58249C6.61034 3.69971 5.82227 4.48778 5.82227 5.45993Z" fill="#D2D2D7"/>
<path d="M19.7182 3.69971H17.606C18.5781 3.69971 19.3662 4.48778 19.3662 5.45993V22.2398C19.3662 23.2119 18.5781 24 17.606 24H19.7182C20.6903 24 21.4784 23.2119 21.4784 22.2398V5.45993C21.4784 4.48778 20.6903 3.69971 19.7182 3.69971Z" fill="#B9B9BE"/>
<path d="M15.2584 4.94182C15.2181 4.92426 15.1934 4.90679 15.1896 4.88937L11.3734 0.00240618C11.3405 0.000808329 11.3075 6.03386e-06 11.2745 0L1.99711 0C1.18242 0 0.521973 0.66045 0.521973 1.47509V19.0772C0.521973 19.8919 1.18242 20.5523 1.99706 20.5523H13.5594C13.9415 20.5523 15.2584 20.1686 15.2584 20.1686V4.94182Z" fill="#6255A4"/>
<path d="M14.7444 4.76501C14.7959 4.94477 14.8221 5.13082 14.8223 5.31781V19.0772C14.8223 19.8919 14.1619 20.5523 13.3472 20.5523H15.1173C15.932 20.5523 16.5924 19.8919 16.5924 19.0772V5.31781C16.5924 5.17257 16.5459 4.88941 16.5459 4.88941L14.7444 4.76501Z" fill="#4E4190"/>
<path d="M16.0022 3.89247L12.7001 0.590369C12.3462 0.236515 11.8734 0.0269488 11.3735 0.00244141V3.41436C11.3735 4.229 12.034 4.88945 12.8486 4.88945H16.546C16.464 4.51187 16.2752 4.16581 16.0022 3.89247Z" fill="#FCF5F5"/>
<path d="M16.0022 3.89247L12.7001 0.590369C12.3462 0.236515 11.8734 0.0269488 11.3735 0.00244141V1.05582L14.2102 3.89252C14.4856 4.16784 14.6944 4.51481 14.7759 4.88945H16.546C16.464 4.51187 16.2752 4.16582 16.0022 3.89247Z" fill="#F0E6E0"/>
<path d="M12.0041 10.0569H5.24569C5.04636 10.0569 4.88477 9.89539 4.88477 9.69601C4.88477 9.49663 5.04636 9.33508 5.24569 9.33508H12.0041C12.2034 9.33508 12.365 9.49663 12.365 9.69601C12.365 9.89539 12.2034 10.0569 12.0041 10.0569ZM12.0041 13.0134H5.24569C5.04636 13.0134 4.88477 12.8518 4.88477 12.6524C4.88477 12.4531 5.04636 12.2915 5.24569 12.2915H12.0041C12.2034 12.2915 12.365 12.4531 12.365 12.6524C12.365 12.8518 12.2034 13.0134 12.0041 13.0134ZM8.62489 15.9698H5.24569C5.04636 15.9698 4.88477 15.8082 4.88477 15.6089C4.88477 15.4095 5.04636 15.2479 5.24569 15.2479H8.62489C8.82422 15.2479 8.98582 15.4095 8.98582 15.6089C8.98582 15.8082 8.82422 15.9698 8.62489 15.9698Z" fill="#FCF5F5"/>
</svg>
