<svg width="24" height="24" viewBox="0 0 24 24" fill="none" xmlns="http://www.w3.org/2000/svg">
<g clip-path="url(#clip0_226_5535)">
<path d="M5.31603 23.4152H7.34366C8.14808 23.4152 8.74264 22.675 8.57999 21.8871L8.57661 21.8708L7.93789 18.7243C7.78344 17.9648 7.81251 17.1793 8.02269 16.4332C8.16055 15.9427 7.78494 15.4575 7.27536 15.4575H5.38428C4.87471 15.4575 4.4991 15.9427 4.63696 16.4332C4.84711 17.1793 4.87618 17.9648 4.72175 18.7243L4.08303 21.8708L4.07966 21.8871C3.917 22.6749 4.51161 23.4152 5.31603 23.4152Z" fill="url(#paint0_linear_226_5535)"/>
<path d="M5.31603 23.4152H7.34366C8.14808 23.4152 8.74264 22.675 8.57999 21.8871L8.57661 21.8708L7.93789 18.7243C7.78344 17.9648 7.81251 17.1793 8.02269 16.4332C8.16055 15.9427 7.78494 15.4575 7.27536 15.4575H5.38428C4.87471 15.4575 4.4991 15.9427 4.63696 16.4332C4.84711 17.1793 4.87618 17.9648 4.72175 18.7243L4.08303 21.8708L4.07966 21.8871C3.917 22.6749 4.51161 23.4152 5.31603 23.4152Z" fill="url(#paint1_linear_226_5535)"/>
<path d="M4.07967 21.8871L4.08305 21.8708L4.2382 21.1063H8.42138L8.57653 21.8708L8.57991 21.8872C8.74261 22.6749 8.148 23.4152 7.34363 23.4152H5.316C4.51158 23.4152 3.91697 22.6749 4.07967 21.8871Z" fill="url(#paint2_linear_226_5535)"/>
<path d="M7.3439 23.4152H5.45264V15.4575H7.27561C7.78518 15.4575 8.16079 15.9427 8.02293 16.4332C7.81277 17.1793 7.78372 17.9648 7.93818 18.7243L8.57686 21.8708L8.58023 21.8872C8.74289 22.6749 8.14832 23.4152 7.3439 23.4152Z" fill="url(#paint3_linear_226_5535)"/>
<path d="M4.30027 8.14221H1.78992C0.801375 8.14221 0 9.78982 0 11.8223C0 13.8548 0.801375 15.5024 1.78992 15.5024H4.30027C5.28881 15.5024 6.09019 13.8548 6.09019 11.8223C6.09019 9.78987 5.28877 8.14221 4.30027 8.14221Z" fill="url(#paint4_linear_226_5535)"/>
<path d="M2.29946 9.57494H1.19757C1.14167 9.57494 1.08807 9.55274 1.04854 9.51322C1.00902 9.47369 0.986816 9.42009 0.986816 9.36419C0.986816 9.3083 1.00902 9.25469 1.04854 9.21517C1.08807 9.17565 1.14167 9.15344 1.19757 9.15344H2.29946C2.35535 9.15344 2.40896 9.17565 2.44848 9.21517C2.488 9.25469 2.51021 9.3083 2.51021 9.36419C2.51021 9.42009 2.488 9.47369 2.44848 9.51322C2.40896 9.55274 2.35535 9.57494 2.29946 9.57494Z" fill="url(#paint5_linear_226_5535)"/>
<path d="M2.08457 10.5582H0.982723C0.926828 10.5582 0.873223 10.536 0.8337 10.4965C0.794177 10.457 0.771973 10.4034 0.771973 10.3475C0.771973 10.2916 0.794177 10.238 0.8337 10.1984C0.873223 10.1589 0.926828 10.1367 0.982723 10.1367H2.08461C2.11229 10.1367 2.13969 10.1422 2.16526 10.1528C2.19083 10.1634 2.21406 10.1789 2.23363 10.1985C2.2532 10.218 2.26872 10.2413 2.27931 10.2668C2.28989 10.2924 2.29534 10.3198 2.29534 10.3475C2.29534 10.3752 2.28988 10.4026 2.27929 10.4281C2.26869 10.4537 2.25317 10.4769 2.2336 10.4965C2.21402 10.5161 2.19079 10.5316 2.16522 10.5422C2.13965 10.5528 2.11224 10.5582 2.08457 10.5582Z" fill="url(#paint6_linear_226_5535)"/>
<path d="M1.95034 11.5414H0.848445C0.792551 11.5414 0.738946 11.5192 0.699423 11.4796C0.659899 11.4401 0.637695 11.3865 0.637695 11.3306C0.637695 11.2747 0.659899 11.2211 0.699423 11.1816C0.738946 11.1421 0.792551 11.1199 0.848445 11.1199H1.95034C2.00623 11.1199 2.05984 11.1421 2.09936 11.1816C2.13888 11.2211 2.16109 11.2747 2.16109 11.3306C2.16109 11.3865 2.13888 11.4401 2.09936 11.4796C2.05984 11.5192 2.00623 11.5414 1.95034 11.5414Z" fill="url(#paint7_linear_226_5535)"/>
<path d="M1.95034 12.5248H0.848445C0.792551 12.5248 0.738946 12.5026 0.699423 12.463C0.659899 12.4235 0.637695 12.3699 0.637695 12.314C0.637695 12.2581 0.659899 12.2045 0.699423 12.165C0.738946 12.1255 0.792551 12.1033 0.848445 12.1033H1.95034C2.00623 12.1033 2.05984 12.1255 2.09936 12.165C2.13888 12.2045 2.16109 12.2581 2.16109 12.314C2.16109 12.3699 2.13888 12.4235 2.09936 12.463C2.05984 12.5026 2.00623 12.5248 1.95034 12.5248Z" fill="url(#paint8_linear_226_5535)"/>
<path d="M2.08457 13.5079H0.982723C0.926828 13.5079 0.873223 13.4857 0.8337 13.4462C0.794177 13.4067 0.771973 13.3531 0.771973 13.2972C0.771973 13.2413 0.794177 13.1877 0.8337 13.1482C0.873223 13.1086 0.926828 13.0864 0.982723 13.0864H2.08461C2.14051 13.0864 2.19411 13.1086 2.23363 13.1482C2.27315 13.1877 2.29535 13.2413 2.29534 13.2972C2.29533 13.3531 2.27312 13.4067 2.2336 13.4462C2.19407 13.4857 2.14046 13.5079 2.08457 13.5079Z" fill="url(#paint9_linear_226_5535)"/>
<path d="M2.29946 14.4912H1.19757C1.14167 14.4912 1.08807 14.469 1.04854 14.4295C1.00902 14.39 0.986816 14.3363 0.986816 14.2805C0.986816 14.2246 1.00902 14.171 1.04854 14.1314C1.08807 14.0919 1.14167 14.0697 1.19757 14.0697H2.29946C2.35535 14.0697 2.40896 14.0919 2.44848 14.1314C2.488 14.171 2.51021 14.2246 2.51021 14.2805C2.51021 14.3363 2.488 14.39 2.44848 14.4295C2.40896 14.469 2.35535 14.4912 2.29946 14.4912Z" fill="url(#paint10_linear_226_5535)"/>
<path d="M4.30018 8.14221C3.31163 8.14221 2.51025 9.78987 2.51025 11.8223C2.51025 13.8548 3.31163 15.5024 4.30018 15.5024C5.28872 15.5024 6.0901 13.8548 6.0901 11.8223C6.0901 9.78987 5.28868 8.14221 4.30018 8.14221Z" fill="url(#paint11_linear_226_5535)"/>
<path d="M4.30018 8.14221C3.31163 8.14221 2.51025 9.78987 2.51025 11.8223C2.51025 13.8548 3.31163 15.5024 4.30018 15.5024C5.28872 15.5024 6.0901 13.8548 6.0901 11.8223C6.0901 9.78987 5.28868 8.14221 4.30018 8.14221Z" fill="url(#paint12_linear_226_5535)"/>
<path d="M2.51026 11.8223C2.51026 13.8547 3.31163 15.5024 4.30018 15.5024C5.28872 15.5024 6.0901 13.8547 6.0901 11.8223C6.0901 11.5183 6.07205 11.2231 6.03826 10.9406H2.5621C2.52736 11.2332 2.51005 11.5276 2.51026 11.8223Z" fill="url(#paint13_linear_226_5535)"/>
<path d="M5.90869 11.6497H0.00201563C0.00075 11.7068 0 11.7644 0 11.8223C0 13.8548 0.801375 15.5024 1.78992 15.5024H4.30027C5.00681 15.5024 5.61769 14.6606 5.90873 13.4382L5.90869 11.6497Z" fill="url(#paint14_linear_226_5535)"/>
<path d="M16.8876 1.78223V21.8624C16.8876 21.8624 15.146 19.362 10.0476 17.8331C9.01367 17.5232 7.84123 17.2528 6.51762 17.0517C5.83723 16.9484 5.19626 16.7741 4.60723 16.5405C3.95679 16.2825 3.46104 15.8714 3.20787 15.3819C2.85082 14.6917 2.40771 13.4976 2.40771 11.8223C2.40771 10.4272 2.741 9.14329 3.29937 8.12357C3.33182 8.06449 3.3652 8.00592 3.3995 7.94788C3.55568 7.68379 3.81978 7.45691 4.16046 7.29702C4.86687 6.96543 5.66084 6.72332 6.51762 6.59291C7.84123 6.39187 9.01367 6.12145 10.0476 5.81155C15.146 4.28259 16.8876 1.78223 16.8876 1.78223Z" fill="url(#paint15_linear_226_5535)"/>
<path d="M6.60742 6.57864V17.066C14.3866 18.2731 16.8871 21.8625 16.8871 21.8625V1.7821C16.8871 1.7821 14.3866 5.37142 6.60742 6.57864Z" fill="url(#paint16_linear_226_5535)"/>
<path d="M2.56848 10.1744C2.46404 10.6982 2.40723 11.2506 2.40723 11.8222C2.40723 13.4975 2.85038 14.6916 3.20738 15.3818C3.46055 15.8713 3.9563 16.2824 4.60674 16.5404C5.19577 16.774 5.83674 16.9482 6.51713 17.0516C7.84074 17.2527 9.01318 17.5231 10.0471 17.833C15.1455 19.3619 16.8871 21.8623 16.8871 21.8623V10.1744H2.56848Z" fill="url(#paint17_linear_226_5535)"/>
<path d="M18.5345 23.0598C21.5531 23.0598 24.0001 18.0286 24.0001 11.8222C24.0001 5.61593 21.5531 0.584717 18.5345 0.584717C15.5159 0.584717 13.0688 5.61593 13.0688 11.8222C13.0688 18.0286 15.5159 23.0598 18.5345 23.0598Z" fill="url(#paint18_linear_226_5535)"/>
<path d="M18.5343 0.584717C17.447 0.584717 16.4339 1.23764 15.5825 2.36297V21.2815C16.4339 22.4069 17.447 23.0598 18.5343 23.0598C21.5529 23.0598 23.9999 18.0285 23.9999 11.8222C23.9999 5.61595 21.5528 0.584717 18.5343 0.584717Z" fill="url(#paint19_linear_226_5535)"/>
<path d="M18.9408 21.0238C21.1879 21.0238 23.0096 16.9041 23.0096 11.8222C23.0096 6.74039 21.1879 2.62073 18.9408 2.62073C16.6937 2.62073 14.8721 6.74039 14.8721 11.8222C14.8721 16.9041 16.6937 21.0238 18.9408 21.0238Z" fill="url(#paint20_linear_226_5535)"/>
<path d="M18.9408 21.0238C21.1879 21.0238 23.0096 16.9041 23.0096 11.8222C23.0096 6.74039 21.1879 2.62073 18.9408 2.62073C16.6937 2.62073 14.8721 6.74039 14.8721 11.8222C14.8721 16.9041 16.6937 21.0238 18.9408 21.0238Z" fill="url(#paint21_linear_226_5535)"/>
<path d="M13.0781 12.4681C13.2409 18.3739 15.6215 23.0599 18.5346 23.0599C21.4477 23.0599 23.8282 18.3739 23.991 12.4681H13.0781Z" fill="url(#paint22_linear_226_5535)"/>
<path d="M23.0076 12.0957L21.5597 10.6478L15.0605 14.5957V14.5977C15.5811 18.323 17.1214 21.0238 18.9408 21.0238C21.1475 21.0237 22.9437 17.051 23.0076 12.0957Z" fill="url(#paint23_linear_226_5535)"/>
<path d="M22.0324 11.8223C22.0324 12.3542 21.7974 12.7334 21.6083 12.9524C21.4737 13.1078 21.2109 13.2387 20.8659 13.3204C20.5535 13.3946 20.2138 13.4502 19.8528 13.4827C19.1504 13.5468 18.5288 13.6323 17.9803 13.7311C16.5532 13.9874 15.6218 14.3293 15.0605 14.5957C15.0605 14.5957 14.7407 13.8174 14.7407 11.8223C14.7407 9.82714 15.0605 9.04883 15.0605 9.04883C15.6218 9.31531 16.5532 9.65712 17.9803 9.91348C18.5288 10.0123 19.1504 10.0978 19.8528 10.1618C20.3073 10.2029 20.7281 10.2799 21.103 10.3856C21.2835 10.4363 21.4235 10.5079 21.5068 10.5918C21.5244 10.6105 21.5426 10.6292 21.5597 10.6478C21.8561 10.9715 22.0324 11.3795 22.0324 11.8223Z" fill="url(#paint24_linear_226_5535)"/>
<path d="M22.0324 11.8223C22.0324 12.3542 21.7974 12.7334 21.6083 12.9524C21.4737 13.1078 21.2109 13.2387 20.8659 13.3204C20.5535 13.3946 20.2138 13.4502 19.8528 13.4827C19.1504 13.5468 18.5288 13.6323 17.9803 13.7311C16.5532 13.9874 15.6218 14.3293 15.0605 14.5957C15.0605 14.5957 14.7407 13.8174 14.7407 11.8223C14.7407 9.82714 15.0605 9.04883 15.0605 9.04883C15.6218 9.31531 16.5532 9.65712 17.9803 9.91348C18.5288 10.0123 19.1504 10.0978 19.8528 10.1618C20.3073 10.2029 20.7281 10.2799 21.103 10.3856C21.2835 10.4363 21.4235 10.5079 21.5068 10.5918C21.5244 10.6105 21.5426 10.6292 21.5597 10.6478C21.8561 10.9715 22.0324 11.3795 22.0324 11.8223Z" fill="url(#paint25_linear_226_5535)"/>
<path d="M22.0324 11.8223C22.0324 12.3542 21.7974 12.7334 21.6083 12.9524C21.4737 13.1078 21.2109 13.2387 20.8659 13.3204C20.5535 13.3946 20.2138 13.4502 19.8528 13.4827C19.1504 13.5468 18.5288 13.6323 17.9803 13.7311C16.5532 13.9874 15.6218 14.3293 15.0605 14.5957C15.0605 14.5957 14.7407 13.8174 14.7407 11.8223C14.7407 9.82714 15.0605 9.04883 15.0605 9.04883C15.6218 9.31531 16.5532 9.65712 17.9803 9.91348C18.5288 10.0123 19.1504 10.0978 19.8528 10.1618C20.3073 10.2029 20.7281 10.2799 21.103 10.3856C21.2835 10.4363 21.4235 10.5079 21.5068 10.5918C21.5244 10.6105 21.5426 10.6292 21.5597 10.6478C21.8561 10.9715 22.0324 11.3795 22.0324 11.8223Z" fill="url(#paint26_linear_226_5535)"/>
<path d="M20.3981 10.592C20.38 10.6102 20.3623 10.6289 20.345 10.6477C20.0488 10.9716 19.8721 11.3792 19.8721 11.8222C19.8721 12.3542 20.1071 12.7334 20.2965 12.9525C20.4192 13.0945 20.6503 13.2154 20.9524 13.2977C21.2545 13.2154 21.4856 13.0946 21.6083 12.9525C21.7977 12.7334 22.0327 12.3542 22.0327 11.8222C22.0327 11.3792 21.856 10.9715 21.5598 10.6477C21.5425 10.6289 21.5248 10.6102 21.5067 10.592C21.4239 10.5081 21.2838 10.4361 21.1031 10.3853C21.0537 10.3714 21.0034 10.3581 20.9524 10.3452C20.9014 10.3581 20.8511 10.3714 20.8017 10.3853C20.621 10.4361 20.4809 10.5081 20.3981 10.592Z" fill="url(#paint27_linear_226_5535)"/>
</g>
<defs>
<linearGradient id="paint0_linear_226_5535" x1="5.34779" y1="19.4359" x2="6.82622" y2="19.4359" gradientUnits="userSpaceOnUse">
<stop stop-color="#5A5A5A"/>
<stop offset="1" stop-color="#444444"/>
</linearGradient>
<linearGradient id="paint1_linear_226_5535" x1="6.53314" y1="19.4383" x2="7.16769" y2="17.6869" gradientUnits="userSpaceOnUse">
<stop stop-color="#433F43" stop-opacity="0"/>
<stop offset="1" stop-color="#1A1A1A"/>
</linearGradient>
<linearGradient id="paint2_linear_226_5535" x1="3.24666" y1="19.9726" x2="7.99802" y2="23.1401" gradientUnits="userSpaceOnUse">
<stop stop-color="#433F43" stop-opacity="0"/>
<stop offset="1" stop-color="#1A1A1A"/>
</linearGradient>
<linearGradient id="paint3_linear_226_5535" x1="6.72391" y1="19.4401" x2="8.21971" y2="19.4577" gradientUnits="userSpaceOnUse">
<stop stop-color="#433F43" stop-opacity="0"/>
<stop offset="1" stop-color="#1A1A1A"/>
</linearGradient>
<linearGradient id="paint4_linear_226_5535" x1="3.04509" y1="9.31231" x2="3.04509" y2="14.4864" gradientUnits="userSpaceOnUse">
<stop stop-color="#5A5A5A"/>
<stop offset="1" stop-color="#444444"/>
</linearGradient>
<linearGradient id="paint5_linear_226_5535" x1="1.74854" y1="9.56219" x2="1.74854" y2="9.20365" gradientUnits="userSpaceOnUse">
<stop stop-color="#5A5A5A"/>
<stop offset="1" stop-color="#444444"/>
</linearGradient>
<linearGradient id="paint6_linear_226_5535" x1="1.53364" y1="10.5455" x2="1.53364" y2="10.1869" gradientUnits="userSpaceOnUse">
<stop stop-color="#5A5A5A"/>
<stop offset="1" stop-color="#444444"/>
</linearGradient>
<linearGradient id="paint7_linear_226_5535" x1="1.39937" y1="11.5286" x2="1.39937" y2="11.1701" gradientUnits="userSpaceOnUse">
<stop stop-color="#5A5A5A"/>
<stop offset="1" stop-color="#444444"/>
</linearGradient>
<linearGradient id="paint8_linear_226_5535" x1="1.39937" y1="12.512" x2="1.39937" y2="12.1534" gradientUnits="userSpaceOnUse">
<stop stop-color="#5A5A5A"/>
<stop offset="1" stop-color="#444444"/>
</linearGradient>
<linearGradient id="paint9_linear_226_5535" x1="1.53364" y1="13.4951" x2="1.53364" y2="13.1366" gradientUnits="userSpaceOnUse">
<stop stop-color="#5A5A5A"/>
<stop offset="1" stop-color="#444444"/>
</linearGradient>
<linearGradient id="paint10_linear_226_5535" x1="1.74854" y1="14.4785" x2="1.74854" y2="14.1199" gradientUnits="userSpaceOnUse">
<stop stop-color="#5A5A5A"/>
<stop offset="1" stop-color="#444444"/>
</linearGradient>
<linearGradient id="paint11_linear_226_5535" x1="-1.53515" y1="6.23013" x2="3.52271" y2="11.0772" gradientUnits="userSpaceOnUse">
<stop stop-color="#5A5A5A"/>
<stop offset="1" stop-color="#444444"/>
</linearGradient>
<linearGradient id="paint12_linear_226_5535" x1="1.35933" y1="11.0104" x2="4.48219" y2="11.8726" gradientUnits="userSpaceOnUse">
<stop stop-color="#433F43" stop-opacity="0"/>
<stop offset="1" stop-color="#1A1A1A"/>
</linearGradient>
<linearGradient id="paint13_linear_226_5535" x1="4.30018" y1="12.3968" x2="4.30018" y2="15.2898" gradientUnits="userSpaceOnUse">
<stop stop-color="#433F43" stop-opacity="0"/>
<stop offset="1" stop-color="#1A1A1A"/>
</linearGradient>
<linearGradient id="paint14_linear_226_5535" x1="2.95434" y1="12.8758" x2="2.95434" y2="15.2728" gradientUnits="userSpaceOnUse">
<stop stop-color="#433F43" stop-opacity="0"/>
<stop offset="1" stop-color="#1A1A1A"/>
</linearGradient>
<linearGradient id="paint15_linear_226_5535" x1="10.349" y1="8.83246" x2="9.94929" y2="13.2869" gradientUnits="userSpaceOnUse">
<stop stop-color="#FEF0AE"/>
<stop offset="1" stop-color="#FBC56D"/>
</linearGradient>
<linearGradient id="paint16_linear_226_5535" x1="9.382" y1="10.9151" x2="14.5789" y2="11.5433" gradientUnits="userSpaceOnUse">
<stop stop-color="#DC8758" stop-opacity="0"/>
<stop offset="0.215" stop-color="#DD8654" stop-opacity="0.215"/>
<stop offset="0.429" stop-color="#E28448" stop-opacity="0.429"/>
<stop offset="0.642" stop-color="#EA8034" stop-opacity="0.642"/>
<stop offset="0.854" stop-color="#F47B18" stop-opacity="0.854"/>
<stop offset="1" stop-color="#FE7701"/>
</linearGradient>
<linearGradient id="paint17_linear_226_5535" x1="10.4788" y1="13.2875" x2="9.22243" y2="17.8562" gradientUnits="userSpaceOnUse">
<stop stop-color="#DC8758" stop-opacity="0"/>
<stop offset="0.215" stop-color="#DD8654" stop-opacity="0.215"/>
<stop offset="0.429" stop-color="#E28448" stop-opacity="0.429"/>
<stop offset="0.642" stop-color="#EA8034" stop-opacity="0.642"/>
<stop offset="0.854" stop-color="#F47B18" stop-opacity="0.854"/>
<stop offset="1" stop-color="#FE7701"/>
</linearGradient>
<linearGradient id="paint18_linear_226_5535" x1="12.3376" y1="11.8222" x2="19.3074" y2="11.8222" gradientUnits="userSpaceOnUse">
<stop stop-color="#FEF0AE"/>
<stop offset="1" stop-color="#FBC56D"/>
</linearGradient>
<linearGradient id="paint19_linear_226_5535" x1="17.0782" y1="11.8223" x2="24.1542" y2="11.8223" gradientUnits="userSpaceOnUse">
<stop stop-color="#DC8758" stop-opacity="0"/>
<stop offset="0.215" stop-color="#DD8654" stop-opacity="0.215"/>
<stop offset="0.429" stop-color="#E28448" stop-opacity="0.429"/>
<stop offset="0.642" stop-color="#EA8034" stop-opacity="0.642"/>
<stop offset="0.854" stop-color="#F47B18" stop-opacity="0.854"/>
<stop offset="1" stop-color="#FE7701"/>
</linearGradient>
<linearGradient id="paint20_linear_226_5535" x1="9.31124" y1="9.68535" x2="24.6391" y2="13.0867" gradientUnits="userSpaceOnUse">
<stop stop-color="#DC8758" stop-opacity="0"/>
<stop offset="0.215" stop-color="#DD8654" stop-opacity="0.215"/>
<stop offset="0.429" stop-color="#E28448" stop-opacity="0.429"/>
<stop offset="0.642" stop-color="#EA8034" stop-opacity="0.642"/>
<stop offset="0.854" stop-color="#F47B18" stop-opacity="0.854"/>
<stop offset="1" stop-color="#FE7701"/>
</linearGradient>
<linearGradient id="paint21_linear_226_5535" x1="22.3056" y1="11.8222" x2="14.4244" y2="11.8222" gradientUnits="userSpaceOnUse">
<stop stop-color="#DC8758" stop-opacity="0"/>
<stop offset="0.215" stop-color="#DD8654" stop-opacity="0.215"/>
<stop offset="0.429" stop-color="#E28448" stop-opacity="0.429"/>
<stop offset="0.642" stop-color="#EA8034" stop-opacity="0.642"/>
<stop offset="0.854" stop-color="#F47B18" stop-opacity="0.854"/>
<stop offset="1" stop-color="#FE7701"/>
</linearGradient>
<linearGradient id="paint22_linear_226_5535" x1="19.5328" y1="16.5301" x2="22.9558" y2="21.1802" gradientUnits="userSpaceOnUse">
<stop stop-color="#DC8758" stop-opacity="0"/>
<stop offset="0.215" stop-color="#DD8654" stop-opacity="0.215"/>
<stop offset="0.429" stop-color="#E28448" stop-opacity="0.429"/>
<stop offset="0.642" stop-color="#EA8034" stop-opacity="0.642"/>
<stop offset="0.854" stop-color="#F47B18" stop-opacity="0.854"/>
<stop offset="1" stop-color="#FE7701"/>
</linearGradient>
<linearGradient id="paint23_linear_226_5535" x1="20.1185" y1="16.5109" x2="18.6718" y2="13.2874" gradientUnits="userSpaceOnUse">
<stop stop-color="#DC8758" stop-opacity="0"/>
<stop offset="0.215" stop-color="#DD8654" stop-opacity="0.215"/>
<stop offset="0.429" stop-color="#E28448" stop-opacity="0.429"/>
<stop offset="0.642" stop-color="#EA8034" stop-opacity="0.642"/>
<stop offset="0.854" stop-color="#F47B18" stop-opacity="0.854"/>
<stop offset="1" stop-color="#FE7701"/>
</linearGradient>
<linearGradient id="paint24_linear_226_5535" x1="18.3865" y1="10.7409" x2="18.3865" y2="12.9969" gradientUnits="userSpaceOnUse">
<stop stop-color="#EAF9FA"/>
<stop offset="1" stop-color="#B3DAFE"/>
</linearGradient>
<linearGradient id="paint25_linear_226_5535" x1="17.5993" y1="11.4991" x2="14.4583" y2="11.8989" gradientUnits="userSpaceOnUse">
<stop stop-color="#7BACDF" stop-opacity="0"/>
<stop offset="1" stop-color="#7BACDF"/>
</linearGradient>
<linearGradient id="paint26_linear_226_5535" x1="18.3235" y1="12.0228" x2="18.6027" y2="13.5711" gradientUnits="userSpaceOnUse">
<stop stop-color="#7BACDF" stop-opacity="0"/>
<stop offset="1" stop-color="#7BACDF"/>
</linearGradient>
<linearGradient id="paint27_linear_226_5535" x1="17.9846" y1="9.01579" x2="22.5343" y2="13.318" gradientUnits="userSpaceOnUse">
<stop stop-color="#7BACDF" stop-opacity="0"/>
<stop offset="1" stop-color="#7BACDF"/>
</linearGradient>
<clipPath id="clip0_226_5535">
<rect width="24" height="24" fill="white"/>
</clipPath>
</defs>
</svg>
