<svg width="23" height="24" viewBox="0 0 23 24" fill="none" xmlns="http://www.w3.org/2000/svg">
<path d="M22.0377 11.3806C21.514 10.9902 21.3049 10.299 21.534 9.68729C21.6379 9.41007 21.7091 9.10123 21.7091 8.77568C21.7091 7.5749 20.735 6.60145 19.5343 6.60145H14.2033C14.6758 5.2813 15.0655 3.93292 15.3698 2.56419C15.6277 1.4042 14.8717 0.261067 13.7046 0.0378229C12.6423 -0.165374 11.6009 0.468264 11.2878 1.50354C10.6931 3.47105 9.65971 5.27798 8.26551 6.78827C8.24448 6.81105 8.22358 6.83392 8.20283 6.85688L8.19506 6.86549C7.69258 7.42455 6.98482 7.75522 6.23311 7.75522L3.33664 7.75508C2.76187 7.75503 2.2959 8.22101 2.2959 8.79577V19.9664C2.2959 20.5412 2.76187 21.0072 3.33664 21.0071L5.2352 21.007C6.02794 21.005 6.79424 21.3188 7.33884 21.8947C8.56494 23.1909 10.3009 23.9997 12.2261 23.9997H17.0443V23.9992H18.5211C19.741 23.9992 20.7622 23.0009 20.7385 21.7812C20.7328 21.4884 20.6623 21.2092 20.5596 20.9551C20.3061 20.3279 20.4704 19.5984 21.007 19.1862C21.5364 18.7796 21.8782 18.1435 21.8644 17.4319C21.8586 17.1335 21.7812 16.8499 21.6688 16.5926C21.392 15.9591 21.5739 15.2319 22.1093 14.7945C22.6084 14.3868 22.927 13.7697 22.9136 13.0822C22.9001 12.3855 22.5588 11.7691 22.0377 11.3806Z" fill="url(#paint0_linear_226_5471)"/>
<path d="M4.13088 7.75542L3.33664 7.75537C2.76187 7.75532 2.2959 8.22129 2.2959 8.79606V19.9667C2.2959 20.5415 2.76187 21.0075 3.33664 21.0074L5.2352 21.0073C6.02794 21.0053 6.79424 21.3191 7.33884 21.8949C8.56494 23.1912 10.3009 24 12.2261 24H17.0443V23.9995H18.5211C19.037 23.9995 19.5169 23.8205 19.8977 23.5222L4.13088 7.75542Z" fill="url(#paint1_linear_226_5471)"/>
<path d="M21.8644 17.4322C21.8587 17.1408 21.7845 16.8636 21.6763 16.6111H2.2959V19.9667C2.2959 20.5414 2.76187 21.0074 3.33664 21.0074L5.2352 21.0073C6.02794 21.0052 6.79424 21.3191 7.33889 21.8949C8.56494 23.1911 10.3009 23.9999 12.2261 23.9999H17.0443V23.9994H18.5211C19.741 23.9994 20.7622 23.0011 20.7385 21.7815C20.7328 21.4886 20.6623 21.2095 20.5596 20.9554C20.3061 20.3281 20.4704 19.5986 21.007 19.1864C21.5364 18.7799 21.8782 18.1437 21.8644 17.4322Z" fill="url(#paint2_linear_226_5471)"/>
<path d="M14.2042 6.60145C14.6768 5.2813 15.0664 3.93292 15.3707 2.56419C15.6286 1.4042 14.8726 0.261067 13.7055 0.0378229C12.6432 -0.165374 11.6018 0.468264 11.2887 1.50354C10.7181 3.38974 9.74403 5.12925 8.43408 6.60145H14.2042Z" fill="url(#paint3_linear_226_5471)"/>
<path d="M2.92787 22.3262H1.20323C0.538722 22.3262 0 21.7875 0 21.123V7.68248C0 7.01797 0.538722 6.47925 1.20323 6.47925H2.92787C3.59237 6.47925 4.1311 7.01797 4.1311 7.68248V21.123C4.1311 21.7875 3.59237 22.3262 2.92787 22.3262Z" fill="url(#paint4_linear_226_5471)"/>
<defs>
<linearGradient id="paint0_linear_226_5471" x1="7.03456" y1="3.5421" x2="17.4257" y2="25.9302" gradientUnits="userSpaceOnUse">
<stop stop-color="#FFEEE6"/>
<stop offset="1" stop-color="#FFB09E"/>
</linearGradient>
<linearGradient id="paint1_linear_226_5471" x1="15.0368" y1="15.8777" x2="-4.38928" y2="15.8777" gradientUnits="userSpaceOnUse">
<stop stop-color="#FFB09E" stop-opacity="0"/>
<stop offset="1" stop-color="#EC806B"/>
</linearGradient>
<linearGradient id="paint2_linear_226_5471" x1="12.0829" y1="17.6872" x2="12.0829" y2="23.9109" gradientUnits="userSpaceOnUse">
<stop stop-color="#FFB09E" stop-opacity="0"/>
<stop offset="1" stop-color="#EC806B"/>
</linearGradient>
<linearGradient id="paint3_linear_226_5471" x1="12.3281" y1="3.80201" x2="15.8364" y2="5.20533" gradientUnits="userSpaceOnUse">
<stop stop-color="#FFB09E" stop-opacity="0"/>
<stop offset="1" stop-color="#EC806B"/>
</linearGradient>
<linearGradient id="paint4_linear_226_5471" x1="-0.438677" y1="12.2907" x2="7.34347" y2="18.8539" gradientUnits="userSpaceOnUse">
<stop stop-color="#8AC9FE"/>
<stop offset="1" stop-color="#814AA0"/>
</linearGradient>
</defs>
</svg>
