<svg width="23" height="24" viewBox="0 0 23 24" fill="none" xmlns="http://www.w3.org/2000/svg">
<path d="M22.1094 9.20529C21.574 8.76793 21.3921 8.04073 21.669 7.40718C21.7814 7.14991 21.8588 6.86624 21.8645 6.56789C21.8784 5.85636 21.5366 5.22017 21.0072 4.81354C20.4707 4.4014 20.3063 3.6719 20.5598 3.0446C20.6625 2.79053 20.733 2.51138 20.7387 2.21849C20.7624 0.998821 19.7412 0.000517646 18.5213 0.000517646H17.0445V0L12.2262 4.70587e-05C10.301 4.70587e-05 8.56496 0.808892 7.3389 2.10512C6.79424 2.68093 6.02798 2.99482 5.23523 2.99274L3.33665 2.99265C2.76187 2.9926 2.2959 3.45858 2.2959 4.03335V15.2041C2.2959 15.7789 2.76187 16.2449 3.33665 16.2449L6.23316 16.2447C6.98483 16.2447 7.69259 16.5754 8.19513 17.1344L8.20289 17.1431C8.22365 17.166 8.24454 17.1889 8.26558 17.2117C9.65978 18.722 10.6932 20.5289 11.2879 22.4965C11.601 23.5317 12.6424 24.1653 13.7047 23.9622C14.8719 23.7389 15.6279 22.5958 15.37 21.4358C15.0656 20.0671 14.676 18.7187 14.2034 17.3985H19.5344C20.7352 17.3985 21.7093 16.425 21.7093 15.2242C21.7093 14.8987 21.6381 14.5899 21.5342 14.3126C21.3051 13.7009 21.5142 13.0097 22.038 12.6193C22.559 12.2308 22.9003 11.6144 22.9138 10.9176C22.9271 10.2301 22.6085 9.61301 22.1094 9.20529Z" fill="url(#paint0_linear_226_5466)"/>
<path d="M4.1309 2.99248L3.33665 2.99243C2.76187 2.99238 2.2959 3.45836 2.2959 4.03313V15.2039C2.2959 15.7787 2.76187 16.2447 3.33665 16.2446L6.23316 16.2445C6.98483 16.2444 7.69259 16.5752 8.19513 17.1342L8.20289 17.1428C8.22365 17.1658 8.24454 17.1887 8.26558 17.2115C9.65978 18.7218 10.6932 20.5287 11.2879 22.4962C11.601 23.5315 12.6424 24.1651 13.7047 23.962C14.8719 23.7387 15.6279 22.5956 15.37 21.4356C15.0656 20.0668 14.676 18.7184 14.2034 17.3983H18.5367L4.1309 2.99248Z" fill="url(#paint1_linear_226_5466)"/>
<path d="M14.2043 17.3982C14.6768 18.7184 15.0664 20.0668 15.3708 21.4355C15.6287 22.5955 14.8727 23.7386 13.7055 23.9619C12.6432 24.1651 11.6018 23.5314 11.2888 22.4962C10.7181 20.6099 9.74405 18.8704 8.43408 17.3982H14.2043Z" fill="url(#paint2_linear_226_5466)"/>
<path d="M2.9279 17.5208H1.20324C0.538728 17.5208 0 16.9821 0 16.3176V2.87695C0 2.21243 0.538728 1.67371 1.20324 1.67371H2.9279C3.59241 1.67371 4.13114 2.21243 4.13114 2.87695V16.3176C4.13114 16.9821 3.59241 17.5208 2.9279 17.5208Z" fill="url(#paint3_linear_226_5466)"/>
<defs>
<linearGradient id="paint0_linear_226_5466" x1="5.49678" y1="-0.0149174" x2="19.1902" y2="19.3958" gradientUnits="userSpaceOnUse">
<stop stop-color="#FFEEE6"/>
<stop offset="1" stop-color="#FFB09E"/>
</linearGradient>
<linearGradient id="paint1_linear_226_5466" x1="19.0542" y1="19.1129" x2="-5.57984" y2="6.05478" gradientUnits="userSpaceOnUse">
<stop stop-color="#FFB09E" stop-opacity="0"/>
<stop offset="1" stop-color="#EC806B"/>
</linearGradient>
<linearGradient id="paint2_linear_226_5466" x1="11.6954" y1="20.4508" x2="15.2037" y2="19.0475" gradientUnits="userSpaceOnUse">
<stop stop-color="#FFB09E" stop-opacity="0"/>
<stop offset="1" stop-color="#EC806B"/>
</linearGradient>
<linearGradient id="paint3_linear_226_5466" x1="-2.05764" y1="-2.60576" x2="4.93024" y2="18.0755" gradientUnits="userSpaceOnUse">
<stop stop-color="#FEDBBD"/>
<stop offset="1" stop-color="#FD3581"/>
</linearGradient>
</defs>
</svg>
