<svg width="20" height="20" viewBox="0 0 20 20" fill="none" xmlns="http://www.w3.org/2000/svg">
<path d="M14.1595 7.89479L19.5371 11.2037C19.7108 11.313 19.8463 11.4737 19.9247 11.6634C20.0032 11.8531 20.0208 12.0625 19.9752 12.2626C19.9295 12.4628 19.8228 12.6438 19.6698 12.7807C19.5168 12.9175 19.3251 13.0034 19.1212 13.0266L12.8423 13.7002C12.6928 13.7171 12.5491 13.7677 12.4222 13.8484C12.2952 13.9291 12.1882 14.0377 12.1094 14.1658L8.79175 19.5354C8.68306 19.7089 8.52332 19.8444 8.33447 19.9234C8.14563 20.0023 7.93698 20.0208 7.7372 19.9763C7.53743 19.9318 7.35634 19.8264 7.21887 19.6747C7.0814 19.523 6.99427 19.3325 6.9695 19.1292L6.30598 12.8482C6.28714 12.698 6.23571 12.5536 6.15532 12.4253C6.07492 12.2969 5.96749 12.1877 5.84051 12.1052L0.462892 8.79631C0.28919 8.68696 0.153723 8.52634 0.0752489 8.33664C-0.00322463 8.14693 -0.0208357 7.93752 0.0248366 7.73736C0.0705089 7.53721 0.177224 7.3562 0.330212 7.21934C0.4832 7.08249 0.674895 6.99656 0.878824 6.97344L7.14779 6.30968C7.29901 6.29429 7.44465 6.24429 7.57345 6.16355C7.70226 6.0828 7.81077 5.97348 7.89055 5.84405L11.1983 0.464609C11.307 0.291118 11.4668 0.155574 11.6556 0.0766223C11.8445 -0.00232892 12.0531 -0.0208167 12.2529 0.0237137C12.4527 0.0682441 12.6337 0.173605 12.7712 0.325293C12.9087 0.476981 12.9958 0.667541 13.0206 0.87078L13.694 7.15177C13.7094 7.30305 13.7594 7.44875 13.8401 7.5776C13.9208 7.70644 14.0301 7.81498 14.1595 7.89479Z" fill="white" fill-opacity="0.8"/>
</svg>
