<svg width="173" height="58" viewBox="0 0 173 58" fill="none" xmlns="http://www.w3.org/2000/svg">
<path d="M32.5336 0.00343787C33.0629 0.20451 33.6283 0.274971 34.1542 0.496666C35.621 1.10601 36.8217 2.21971 37.5394 3.6367C38.2572 5.05369 38.4446 6.6806 38.068 8.22369C37.6913 9.76678 36.7754 11.1244 35.4856 12.0514C34.1958 12.9783 32.617 13.4136 31.0344 13.2787C29.4517 13.1437 27.9695 12.4473 26.8552 11.3153C25.741 10.1833 25.0682 8.69018 24.9583 7.10559C24.8485 5.52101 25.3087 3.94935 26.256 2.67437C27.2033 1.39938 28.5753 0.50509 30.1241 0.152952C30.296 0.113425 30.4954 0.134048 30.6397 0L32.5336 0.00343787ZM29.4659 6.64914C29.4659 7.85214 29.4659 9.05513 29.4659 10.2581C29.4659 10.4094 29.4075 10.6018 29.5742 10.6912C29.7409 10.7806 29.8681 10.6534 29.997 10.5675C31.7843 9.38281 33.571 8.197 35.3572 7.01004C35.7971 6.71788 35.7971 6.63711 35.3744 6.35526C33.5813 5.15685 31.7837 3.96015 29.9815 2.76518C29.8664 2.68784 29.7564 2.55379 29.6 2.62769C29.4436 2.70159 29.4677 2.89579 29.4677 3.04702C29.4659 4.24658 29.4659 5.44786 29.4659 6.64914Z" fill="#EE7232"/>
<path d="M172.601 33.029C171.879 33.5223 171.074 33.8711 170.325 34.3145C170.079 34.4589 169.959 34.2526 169.82 34.1238C168.026 32.4602 165.025 32.3932 163.166 33.9828C161.877 35.0844 161.287 36.5108 161.275 38.1847C161.267 41.4133 161.267 44.6431 161.275 47.874C161.275 48.2968 161.145 48.4102 160.741 48.3896C160.071 48.3586 159.397 48.369 158.725 48.3896C158.421 48.3896 158.331 48.2865 158.333 47.9909C158.333 42.2623 158.333 36.5338 158.333 30.8052C158.333 30.5148 158.443 30.4357 158.713 30.4391C159.442 30.4512 160.172 30.4529 160.901 30.4391C161.181 30.4391 161.287 30.5302 161.272 30.8104C161.253 31.1386 161.272 31.4668 161.272 31.7968C161.272 31.9085 161.255 32.0409 161.378 32.0993C161.502 32.1577 161.59 32.0529 161.681 31.9893C162.671 31.2727 163.704 30.623 164.92 30.3773C167.909 29.7758 170.466 30.5337 172.497 32.8658C172.525 32.8967 172.559 32.9225 172.59 32.9517L172.601 33.029Z" fill="white"/>
<path d="M39.0901 36.3459C39.3084 44.0571 39.4682 49.6717 39.6194 55.288C39.6194 55.4942 39.7604 55.8413 39.5266 55.8826C39.3359 55.9169 39.3548 55.5389 39.3187 55.3464C38.0712 49.5087 36.395 43.7709 34.3039 38.1796C32.0027 32.0856 29.076 26.3215 25.3519 20.963C22.751 17.1996 19.8498 13.6529 16.6766 10.3577C16.6164 10.2959 16.5563 10.2357 16.5047 10.1721C16.4531 10.1085 16.3655 9.98479 16.4566 9.86965C16.4921 9.82323 16.5438 9.79183 16.6014 9.78165C16.659 9.77147 16.7183 9.78324 16.7676 9.81465C17.1268 9.98651 17.4843 10.1721 17.84 10.3526C24.6467 13.7931 31.4551 17.2354 38.2652 20.6794C38.3875 20.7277 38.491 20.8142 38.5604 20.9259C38.6297 21.0377 38.6612 21.1688 38.6501 21.2998C38.8117 27.0141 38.9836 32.7283 39.0901 36.3459Z" fill="#5B5A5C"/>
<path d="M149.531 40.3432C147.4 40.3432 145.268 40.3432 143.135 40.3432C142.769 40.3432 142.619 40.2607 142.643 39.8689C142.677 39.441 142.677 39.0112 142.643 38.5834C142.612 38.1761 142.741 38.0489 143.159 38.0523C146.337 38.0695 149.518 38.0609 152.69 38.0609C153.338 38.0609 153.338 38.0609 153.19 37.4251C152.565 34.7355 150.915 33.2661 148.143 32.9156C145.371 32.565 142.987 33.3211 141.2 35.5673C139.412 37.8135 139.493 41.2661 141.372 43.5019C143.011 45.4473 145.118 46.1262 147.588 45.8495C149.095 45.6776 150.537 45.2927 151.85 44.5073C152.644 44.0709 153.293 43.4128 153.72 42.6134C153.848 42.3574 153.972 42.3488 154.166 42.5395C154.646 43.0127 155.131 43.479 155.619 43.9384C155.79 44.1103 155.759 44.2392 155.651 44.4231C154.952 45.5938 153.941 46.5461 152.73 47.1728C149.861 48.6937 146.835 49.101 143.718 48.1678C140.088 47.08 136.969 43.77 137.087 39.1866C137.171 36.0158 138.677 33.615 141.241 31.8329C143.408 30.3274 145.842 29.9682 148.406 30.2329C149.853 30.3824 151.253 30.7141 152.53 31.4238C154.656 32.5993 155.825 34.4434 156.27 36.7875C156.466 37.8186 156.462 38.8618 156.459 39.9067C156.459 40.2504 156.349 40.3432 156.01 40.3415C153.854 40.3363 151.693 40.3432 149.531 40.3432Z" fill="white"/>
<path d="M70.5404 40.3432C68.4077 40.3432 66.2767 40.3346 64.1439 40.3432C63.7435 40.3432 63.6077 40.228 63.6404 39.8276C63.673 39.4272 63.6404 39.0559 63.6404 38.671C63.6404 38.0557 63.6404 38.0557 64.2367 38.0557H73.7679C74.3179 38.0557 74.3178 38.0557 74.2044 37.5178C73.6316 34.8094 71.9628 33.2758 69.1982 32.9172C66.7665 32.5976 64.6165 33.1372 62.7949 34.8695C60.0709 37.4594 60.217 42.2594 63.7109 44.7375C64.7289 45.4697 65.9474 45.8711 67.2013 45.8872C69.3048 45.9233 71.2932 45.4903 73.0908 44.3491C73.769 43.9415 74.3215 43.3546 74.6873 42.6529C74.8454 42.3367 74.9881 42.3384 75.2218 42.5756C75.6326 42.9932 76.045 43.4125 76.4901 43.7923C76.7909 44.0467 76.7651 44.258 76.5709 44.5554C75.8984 45.6105 74.9711 46.4793 73.8745 47.0817C70.8962 48.704 67.7529 49.1439 64.5117 48.0973C60.9027 46.9339 58.0757 43.6858 58.0791 39.4426C58.0791 36.1877 59.5588 33.694 62.1934 31.8551C63.991 30.6006 66.0086 30.0919 68.1929 30.1606C69.896 30.2139 71.5492 30.4683 73.1028 31.2055C75.294 32.2453 76.6018 33.9827 77.1707 36.3165C77.4645 37.5195 77.4628 38.75 77.4542 39.9805C77.4542 40.3242 77.2721 40.3328 77.0177 40.3328C74.8649 40.3374 72.7058 40.3409 70.5404 40.3432Z" fill="white"/>
<path d="M32.7053 54.2138C32.5991 54.1751 32.4967 54.1268 32.3994 54.0694C27.5141 50.7319 22.6299 47.3893 17.7469 44.0416C16.4362 43.1456 15.1232 42.2548 13.8079 41.3692C13.7064 41.3091 13.6216 41.2244 13.5616 41.1228C13.5015 41.0213 13.468 40.9062 13.4642 40.7883C13.2305 38.4184 12.9692 36.0502 12.7269 33.6803C12.5413 31.8793 12.3746 30.0713 12.1924 28.272C11.945 25.8144 11.6935 23.358 11.438 20.9028C11.2919 19.4695 11.1493 18.0362 10.9963 16.6064C10.9654 16.3108 11.0754 16.3039 11.304 16.395C12.7636 16.9816 14.2244 17.5624 15.6863 18.1376C15.7739 18.1646 15.8505 18.2191 15.9047 18.2931C15.9589 18.3671 15.9878 18.4566 15.987 18.5483C16.1417 20.2532 16.3119 21.958 16.4751 23.6628C16.6699 25.7079 16.8624 27.753 17.0526 29.7981C17.209 31.4891 17.3533 33.1802 17.5097 34.8713C17.6455 36.3355 17.7915 37.7929 17.9256 39.2605C17.9488 39.416 18.0306 39.5568 18.1542 39.6541C22.6877 44.1808 27.2219 48.7063 31.7566 53.2307C32.0797 53.5521 32.444 53.8305 32.7087 54.212L32.7053 54.2138Z" fill="#5CBFC0"/>
<path d="M96.5714 39.4292C96.5714 42.2442 96.5714 45.0609 96.5714 47.8776C96.5714 48.2557 96.4907 48.4173 96.073 48.3932C95.4732 48.3597 94.8719 48.3597 94.272 48.3932C93.8784 48.4121 93.7564 48.2918 93.7564 47.8914C93.7719 44.9183 93.7564 41.9434 93.7564 38.9703C93.7564 37.14 93.7564 35.3115 93.7564 33.4812C93.7564 33.1289 93.6585 33.0052 93.2976 33.0172C91.7388 33.0687 90.1766 32.9227 88.6213 33.1083C85.2736 33.5053 82.7868 36.8393 83.1907 40.1716C83.7062 44.4594 88.3172 46.9599 92.2561 45.2018C92.5534 45.0695 92.7098 45.085 92.7029 45.4682C92.6875 46.1694 92.6909 46.8688 92.7029 47.57C92.7153 47.6679 92.69 47.7669 92.6323 47.8469C92.5746 47.927 92.4887 47.9822 92.3919 48.0014C87.7105 49.6701 82.2523 47.118 80.6609 42.3971C78.853 37.03 82.0908 31.3622 87.9494 30.539C89.0441 30.3826 90.1491 30.429 91.249 30.4256C92.8387 30.4256 94.4267 30.4376 96.0146 30.417C96.4219 30.417 96.5577 30.5235 96.5542 30.9463C96.5628 33.7682 96.5714 36.5987 96.5714 39.4292Z" fill="white"/>
<path d="M118.316 37.0125C118.316 33.4036 118.316 29.8083 118.316 26.2062C118.316 25.7886 118.437 25.6597 118.849 25.6803C119.506 25.7112 120.166 25.7027 120.822 25.6803C121.166 25.6683 121.262 25.7869 121.26 26.122C121.245 27.966 121.26 29.81 121.26 31.6541C121.26 31.8019 121.185 31.9978 121.357 32.0854C121.528 32.1731 121.64 31.9926 121.76 31.9032C123.372 30.7002 125.143 30.0523 127.195 30.1847C130.582 30.4029 133.701 33.2076 134.227 36.564C134.31 37.1002 134.352 37.642 134.352 38.1846C134.352 41.4018 134.352 44.6172 134.363 47.8326C134.363 48.2434 134.28 48.4256 133.82 48.3912C133.205 48.3542 132.589 48.3542 131.974 48.3912C131.597 48.4084 131.482 48.2881 131.486 47.91C131.5 45.3218 131.5 42.7348 131.486 40.1489C131.486 39.1178 131.558 38.0867 131.396 37.0675C131.206 35.9229 130.628 34.8786 129.759 34.1095C128.89 33.3404 127.783 32.8934 126.624 32.8433C123.683 32.7213 121.901 34.7148 121.425 36.7445C121.307 37.2596 121.249 37.7867 121.253 38.3152C121.253 41.4602 121.253 44.6046 121.253 47.7484C121.253 48.4599 121.315 48.3792 120.599 48.3826C119.999 48.3826 119.396 48.3585 118.796 48.3912C118.407 48.4118 118.318 48.2726 118.32 47.9031C118.327 44.2735 118.316 40.6422 118.316 37.0125Z" fill="white"/>
<path d="M32.1068 55.0699C31.9062 55.0755 31.7075 55.0299 31.5293 54.9375C27.2455 53.4229 22.9611 51.9106 18.6762 50.4005C14.8495 49.052 11.0194 47.7092 7.18583 46.3722C7.0755 46.3474 6.97637 46.2871 6.9037 46.2004C6.83103 46.1138 6.78886 46.0057 6.78369 45.8927C6.52591 43.5555 6.26411 41.2171 5.99831 38.8775C5.67006 36.0161 5.32979 33.1547 5.00154 30.2847C4.74375 28.0299 4.50144 25.7752 4.24022 23.5221C4.211 23.2678 4.27286 23.2471 4.48081 23.3314C5.79036 23.8664 7.10163 24.3974 8.41461 24.9245C8.49368 24.9554 8.56082 25.0107 8.60626 25.0824C8.6517 25.1541 8.67306 25.2385 8.66724 25.3232C8.8305 27.0864 9.01095 28.8462 9.1725 30.6078C9.40164 32.9519 9.62506 35.2955 9.84274 37.6384C10.0249 39.5701 10.2071 41.5018 10.3755 43.4334C10.3748 43.5383 10.4048 43.6411 10.462 43.7291C10.5191 43.8171 10.6008 43.8864 10.6969 43.9284C13.6963 45.4751 16.6924 47.027 19.685 48.584L31.8731 54.9083C31.9558 54.9603 32.0351 55.0177 32.1102 55.0802L32.1068 55.0699Z" fill="#27B6E9"/>
<path d="M99.2119 39.4344C99.2016 34.4419 103.041 30.4291 108.049 30.1867C110.223 30.0819 112.261 30.4772 114.079 31.7335C114.826 32.2613 115.49 32.8986 116.047 33.6239C116.233 33.8576 116.178 33.9848 115.953 34.1394C115.404 34.5021 114.856 34.8664 114.328 35.2582C114.06 35.4576 113.894 35.4077 113.677 35.1843C112.622 34.093 111.39 33.2939 109.879 32.9777C107.066 32.3796 104.254 33.7132 102.802 36.3444C102.159 37.5445 101.913 38.9173 102.098 40.2661C102.283 41.6148 102.891 42.8704 103.833 43.8528C106.499 46.6025 110.737 46.6025 113.368 43.8648C113.814 43.3981 114.171 42.8542 114.423 42.2597C114.557 41.9452 114.688 41.9417 114.913 42.1634C115.372 42.6137 115.839 43.0554 116.308 43.4953C116.458 43.6363 116.533 43.7583 116.413 43.9731C115.11 46.3017 113.311 48.0289 110.591 48.4878C105.39 49.366 100.839 46.4444 99.5745 42.0981C99.3461 41.2282 99.2244 40.3337 99.2119 39.4344Z" fill="white"/>
<path d="M30.6885 55.9308C29.8171 55.8071 28.9475 55.6799 28.0762 55.5579L11.6416 53.2584C8.54816 52.8271 5.46849 52.3906 2.3785 51.9747C1.95573 51.918 1.82856 51.7461 1.79075 51.3302C1.41267 47.1627 1.01052 42.9952 0.61525 38.8276C0.409022 36.6508 0.203937 34.4739 0 32.2971C0 32.2008 0 32.1029 0 31.9534C1.12738 32.3469 2.21695 32.7302 3.30996 33.1065C3.48182 33.1667 3.49213 33.3007 3.50588 33.4502C3.70638 35.4965 3.90746 37.5427 4.1091 39.589C4.37834 42.2894 4.65045 44.9893 4.92542 47.6886C4.96495 48.0873 5.01651 48.486 5.0251 48.8916C5.03369 49.2147 5.15914 49.3659 5.48051 49.4467C8.23881 50.1341 10.992 50.8473 13.7485 51.5468C18.2088 52.681 22.6691 53.8135 27.1293 54.9444C28.3209 55.2468 29.5124 55.5522 30.7039 55.8604L30.6885 55.9308Z" fill="#1B78BD"/>
<path d="M48.1611 34.6205C48.1611 31.8038 48.1611 28.987 48.1611 26.172C48.1611 25.8025 48.2471 25.6565 48.6372 25.6805C49.2937 25.7097 49.9536 25.7011 50.6118 25.6805C50.9366 25.6719 51.0277 25.7939 51.0243 26.105C51.0088 27.363 51.0363 28.6227 51.0088 29.8858C50.9985 30.3155 51.1119 30.4547 51.5553 30.4495C53.3014 30.4255 55.0474 30.4495 56.7935 30.4323C57.1527 30.4323 57.2695 30.5423 57.2541 30.8981C57.23 31.4979 57.2352 32.1011 57.2541 32.6991C57.2644 33.0188 57.1475 33.1168 56.8296 33.1133C55.099 33.1013 53.3667 33.1133 51.6344 33.1133C51.0191 33.1133 51.0174 33.1133 51.0174 33.7079C51.0174 36.3373 50.9727 38.9685 51.0311 41.5979C51.0896 44.2926 52.406 45.5076 54.8343 45.7224C55.673 45.7963 56.522 45.7688 57.3658 45.7637C57.6871 45.7637 57.8332 45.8376 57.8178 46.1933C57.792 46.8069 57.8074 47.4238 57.8178 48.0374C57.8178 48.2453 57.7989 48.4017 57.5273 48.3965C56.027 48.3708 54.5284 48.5443 53.0281 48.3123C50.1254 47.8638 48.1921 45.664 48.1749 42.7339V34.6205H48.1611Z" fill="white"/>
<path d="M117.064 54.4699C116.862 55.1149 116.659 55.7588 116.458 56.4016C116.403 56.5734 116.382 56.7453 116.114 56.7573C115.815 56.7573 115.81 56.5614 115.76 56.3724C115.521 55.4615 115.275 54.5507 115.052 53.6364C115.021 53.5109 114.83 53.2927 115.147 53.236C115.197 53.2189 115.251 53.2137 115.303 53.2209C115.356 53.2281 115.407 53.2475 115.451 53.2775C115.495 53.3075 115.531 53.3473 115.557 53.3938C115.583 53.4403 115.598 53.4921 115.6 53.5453C115.724 54.1331 115.874 54.7139 116.02 55.2948C116.044 55.3928 116.02 55.5578 116.183 55.5457C116.298 55.5371 116.289 55.3928 116.319 55.3051C116.473 54.8308 116.621 54.353 116.765 53.8753C116.822 53.6811 116.846 53.5006 117.135 53.5041C117.424 53.5075 117.42 53.6759 117.479 53.8564C117.651 54.451 117.834 55.0456 118.035 55.7227C118.278 55.3223 118.307 54.9511 118.41 54.6057C118.513 54.2602 118.621 53.8633 118.701 53.4869C118.754 53.2343 118.914 53.205 119.111 53.236C119.393 53.2807 119.245 53.4783 119.213 53.6003C118.953 54.5661 118.676 55.5268 118.415 56.4909C118.407 56.5685 118.368 56.6397 118.308 56.689C118.247 56.7383 118.17 56.7616 118.092 56.7539C118.054 56.7597 118.015 56.7578 117.977 56.7482C117.94 56.7387 117.904 56.7217 117.873 56.6984C117.843 56.675 117.817 56.6456 117.797 56.6121C117.778 56.5785 117.765 56.5414 117.76 56.503C117.566 55.8241 117.36 55.147 117.159 54.4699H117.064Z" fill="#EE7232"/>
<path d="M111.442 54.47C111.237 55.1162 111.038 55.7658 110.826 56.4103C110.789 56.5237 110.801 56.6973 110.654 56.7282C110.448 56.7678 110.24 56.8142 110.161 56.4945C109.921 55.5115 109.646 54.5353 109.402 53.554C109.374 53.4441 109.242 53.2516 109.51 53.2361C109.682 53.2275 109.874 53.1725 109.936 53.4544C110.079 54.1074 110.252 54.7553 110.414 55.4067C110.441 55.5149 110.477 55.6215 110.539 55.8329C110.763 55.1076 110.955 54.4821 111.146 53.8531C111.201 53.6812 111.23 53.5094 111.49 53.5094C111.749 53.5094 111.794 53.6692 111.847 53.8531C112.014 54.4791 112.225 55.093 112.476 55.6902C112.651 55.0314 112.827 54.3732 113.004 53.7156C113.028 53.6037 113.06 53.4935 113.098 53.3856C113.189 53.1674 113.39 53.2241 113.543 53.2584C113.715 53.2963 113.609 53.4526 113.585 53.542C113.318 54.5336 113.038 55.5218 112.772 56.5134C112.766 56.5525 112.752 56.5901 112.732 56.6238C112.711 56.6576 112.684 56.687 112.652 56.7102C112.62 56.7334 112.584 56.75 112.545 56.759C112.507 56.768 112.467 56.7692 112.428 56.7626C112.229 56.7626 112.153 56.675 112.105 56.5014C111.914 55.8294 111.713 55.1609 111.517 54.4907L111.442 54.47Z" fill="#EE7232"/>
<path d="M122.678 54.525C122.552 54.9134 122.428 55.3001 122.305 55.6885C122.215 55.9755 122.122 56.2608 122.043 56.5478C121.995 56.7196 121.882 56.754 121.722 56.754C121.687 56.7593 121.652 56.7576 121.618 56.7489C121.583 56.7402 121.551 56.7248 121.523 56.7034C121.495 56.6821 121.472 56.6554 121.454 56.6248C121.437 56.5942 121.426 56.5604 121.421 56.5254C121.17 55.5441 120.906 54.5663 120.66 53.5833C120.634 53.4784 120.488 53.2825 120.736 53.2395C120.921 53.212 121.134 53.1656 121.2 53.4647C121.335 54.092 121.499 54.7124 121.652 55.3362C121.661 55.472 121.723 55.5988 121.823 55.6902C122.011 55.0801 122.19 54.4872 122.37 53.9098C122.432 53.7104 122.451 53.4922 122.765 53.5042C123.08 53.5162 123.059 53.7345 123.109 53.9115C123.279 54.5251 123.481 55.1292 123.716 55.7212C123.897 55.0486 124.078 54.3761 124.259 53.7036C124.284 53.6073 124.312 53.5111 124.336 53.4148C124.398 53.1708 124.597 53.2189 124.757 53.243C124.986 53.2705 124.862 53.4441 124.836 53.542C124.566 54.5336 124.279 55.5201 124.013 56.5117C123.961 56.7076 123.865 56.7523 123.683 56.7557C123.501 56.7592 123.411 56.6698 123.362 56.4928C123.176 55.838 122.975 55.1867 122.781 54.5353L122.678 54.525Z" fill="#EE7232"/>
<path d="M163.315 56.5477C163.315 56.9189 163.303 57.3125 163.315 57.7043C163.326 57.9294 163.25 57.9964 163.027 57.9999C162.803 58.0033 162.746 57.8968 162.746 57.6905C162.746 56.3157 162.746 54.9236 162.746 53.5402C162.746 53.4336 162.702 53.2824 162.853 53.2515C163.004 53.2205 163.197 53.1518 163.272 53.3323C163.358 53.5471 163.444 53.4405 163.551 53.3838C164.506 52.9026 165.348 53.2635 165.652 54.2929C165.821 54.829 165.791 55.408 165.568 55.9239C165.195 56.7831 164.365 57.0478 163.549 56.5941C163.499 56.5614 163.451 56.4944 163.315 56.5477ZM163.315 55.0182C163.365 55.2931 163.171 55.6901 163.398 55.9582C163.814 56.4497 164.633 56.5941 165.018 55.7864C165.133 55.5383 165.193 55.2685 165.195 54.9952C165.197 54.7219 165.14 54.4514 165.029 54.2018C164.959 54.0038 164.819 53.8388 164.634 53.7396C164.449 53.6403 164.234 53.6139 164.03 53.6657C163.606 53.7756 163.229 53.9063 163.314 54.5387C163.324 54.6983 163.324 54.8584 163.315 55.0182Z" fill="#EE7232"/>
<path d="M148.428 53.566C148.689 53.4064 148.971 53.2821 149.265 53.1965C150.031 53.0247 150.588 53.4354 150.605 54.2122C150.624 54.9546 150.605 55.6987 150.605 56.4463C150.605 56.6577 150.557 56.7591 150.32 56.7591C150.083 56.7591 150.038 56.6422 150.04 56.4395C150.04 55.7675 150.04 55.0955 150.04 54.4253C150.04 53.8788 149.837 53.6657 149.378 53.6811C148.801 53.7001 148.421 54.0094 148.421 54.4717C148.421 55.1299 148.421 55.7864 148.421 56.4446C148.421 56.6508 148.378 56.7591 148.139 56.7591C147.9 56.7591 147.856 56.6611 147.857 56.4515C147.864 55.0652 147.864 53.6783 147.857 52.2908C147.857 52.088 147.883 51.9763 148.131 51.978C148.378 51.9798 148.428 52.0623 148.421 52.2805C148.419 52.6827 148.428 53.0917 148.428 53.566Z" fill="#EE7232"/>
<path d="M154.112 55.0646C153.812 55.0646 153.511 55.0801 153.21 55.0646C152.94 55.0475 152.892 55.166 152.944 55.3946C153.035 55.7916 153.217 56.125 153.614 56.278C154.011 56.4309 154.398 56.314 154.729 56.0408C154.838 55.9514 154.913 55.7572 155.113 55.9188C155.271 56.0477 155.334 56.1491 155.164 56.3312C154.353 57.2008 152.835 56.8777 152.471 55.7521C152.339 55.3575 152.311 54.9351 152.392 54.5267C152.564 53.6675 153.08 53.1759 153.853 53.1673C154.597 53.1588 155.14 53.64 155.32 54.47C155.446 55.0475 155.429 55.0698 154.841 55.0698L154.112 55.0646ZM153.839 54.6505C154.068 54.6505 154.296 54.6384 154.527 54.6505C154.757 54.6625 154.793 54.5577 154.745 54.3669C154.717 54.1898 154.636 54.0252 154.514 53.8944C154.391 53.7636 154.232 53.6725 154.057 53.6331C153.882 53.5891 153.698 53.6046 153.533 53.6771C153.367 53.7495 153.231 53.875 153.145 54.0335C153.04 54.2054 152.892 54.403 152.985 54.5817C153.064 54.7347 153.296 54.6299 153.461 54.6453C153.581 54.6608 153.719 54.6505 153.839 54.6505Z" fill="#EE7232"/>
<path d="M136.006 55.0649C135.692 55.0649 135.375 55.0786 135.063 55.0649C134.812 55.0494 134.769 55.156 134.808 55.3691C134.879 55.7729 135.057 56.1098 135.448 56.2696C135.634 56.3473 135.84 56.3684 136.038 56.3302C136.237 56.292 136.42 56.1962 136.565 56.0548C136.719 55.9207 136.848 55.7489 137.051 55.9912C137.254 56.2335 137.005 56.3469 136.879 56.4535C135.903 57.2303 134.585 56.7783 134.286 55.565C134.158 55.0775 134.193 54.5613 134.386 54.0956C134.485 53.8169 134.67 53.5768 134.914 53.4098C135.158 53.2428 135.449 53.1574 135.745 53.1659C136.398 53.1744 136.867 53.5216 137.096 54.1626C137.109 54.2039 137.128 54.2417 137.14 54.2829C137.366 55.0305 137.338 55.07 136.573 55.07L136.006 55.0649ZM135.699 54.6507C135.913 54.6507 136.128 54.637 136.34 54.6507C136.649 54.6765 136.664 54.5373 136.584 54.295C136.446 53.8756 136.147 53.6161 135.755 53.6075C135.312 53.6075 135.049 53.8567 134.896 54.2468C134.788 54.5063 134.783 54.6834 135.152 54.6438C135.334 54.6361 135.517 54.6384 135.699 54.6507Z" fill="#EE7232"/>
<path d="M141.517 55.3497C141.517 55.7347 141.517 56.1196 141.517 56.5046C141.517 56.6215 141.517 56.7521 141.345 56.7418C141.22 56.7418 141.022 56.8294 141.001 56.6197C140.96 56.3241 140.83 56.4805 140.725 56.5476C140.449 56.73 140.122 56.8203 139.792 56.8053C139.568 56.8098 139.349 56.7365 139.174 56.598C138.998 56.4595 138.876 56.2643 138.827 56.0457C138.763 55.8168 138.782 55.5723 138.882 55.3562C138.981 55.1401 139.155 54.9666 139.371 54.8668C139.733 54.6778 140.135 54.6537 140.527 54.5746C140.685 54.542 140.945 54.6537 140.962 54.3633C140.981 54.2419 140.963 54.1175 140.91 54.0069C140.856 53.8962 140.77 53.8046 140.663 53.7446C140.237 53.5263 139.831 53.6105 139.45 53.8614C139.295 53.9646 139.166 54.1192 139.001 53.8614C138.836 53.6037 139.085 53.5315 139.211 53.4524C139.42 53.3141 139.656 53.2208 139.903 53.1785C140.151 53.1362 140.404 53.1458 140.647 53.2067C140.895 53.2509 141.119 53.3833 141.277 53.5794C141.435 53.7756 141.516 54.0223 141.507 54.2739C141.529 54.6365 141.517 54.9923 141.517 55.3497ZM140.977 55.3824C140.85 55.2964 141.165 54.9613 140.821 54.9596C140.419 54.9381 140.019 55.0349 139.671 55.238C139.551 55.3054 139.459 55.4131 139.41 55.542C139.362 55.6709 139.361 55.8128 139.407 55.9426C139.438 56.0688 139.513 56.1798 139.618 56.256C139.724 56.3321 139.853 56.3684 139.982 56.3585C140.591 56.3774 140.981 56.0182 140.981 55.3841L140.977 55.3824Z" fill="#EE7232"/>
<path d="M168.499 56.8074C168.109 56.8112 167.731 56.6779 167.43 56.431C167.325 56.3433 167.222 56.2591 167.352 56.1199C167.454 56.0065 167.543 55.912 167.706 56.046C167.835 56.1607 167.987 56.2465 168.151 56.2975C168.316 56.3485 168.489 56.3635 168.66 56.3416C168.945 56.3021 169.193 56.1869 169.255 55.8759C169.317 55.5648 169.093 55.4119 168.846 55.307C168.543 55.1781 168.232 55.0733 167.933 54.941C167.562 54.7691 167.337 54.5028 167.375 54.0714C167.385 53.8841 167.454 53.7047 167.571 53.5588C167.689 53.4128 167.85 53.3078 168.031 53.2585C168.287 53.1634 168.562 53.1335 168.832 53.1716C169.102 53.2097 169.359 53.3146 169.578 53.4768C169.674 53.5455 169.825 53.6194 169.69 53.7758C169.588 53.8927 169.504 54.0198 169.31 53.8617C169.171 53.7481 169.005 53.671 168.829 53.6373C168.652 53.6037 168.47 53.6147 168.299 53.6692C168.206 53.685 168.121 53.7309 168.057 53.7998C167.993 53.8688 167.953 53.957 167.944 54.0508C167.939 54.1376 167.962 54.2236 168.011 54.2958C168.059 54.3681 168.129 54.4226 168.212 54.4512C168.445 54.5577 168.688 54.6402 168.927 54.7348C169.678 55.0321 169.927 55.3741 169.81 55.9378C169.702 56.4843 169.186 56.8211 168.499 56.8074Z" fill="#EE7232"/>
<path d="M143.261 55.0132C143.261 53.7036 144.187 52.9079 145.297 53.2276C145.575 53.3036 145.823 53.4617 146.009 53.6813C146.105 53.793 146.204 53.9047 146.026 54.0353C145.888 54.135 145.78 54.2072 145.636 54.0215C145.518 53.8563 145.35 53.7342 145.157 53.674C144.963 53.6138 144.755 53.6187 144.565 53.6881C144.115 53.8308 143.926 54.2037 143.878 54.6334C143.846 54.8879 143.846 55.1453 143.878 55.3998C143.892 55.6017 143.966 55.7946 144.091 55.954C144.215 56.1135 144.385 56.2323 144.577 56.2952C144.989 56.4293 145.326 56.2643 145.624 55.9756C145.713 55.8879 145.768 55.68 145.954 55.7865C146.139 55.8931 146.256 56.046 146.038 56.2832C145.855 56.4898 145.62 56.6446 145.358 56.732C145.096 56.8194 144.816 56.8364 144.545 56.7812C144.275 56.726 144.023 56.6006 143.817 56.4175C143.61 56.2345 143.455 56.0003 143.367 55.7384C143.286 55.5055 143.25 55.2595 143.261 55.0132Z" fill="#EE7232"/>
<path d="M132.286 56.8055C131.624 56.8055 131.384 56.5735 131.375 55.929C131.367 55.2846 131.365 54.6453 131.375 54.0025C131.375 53.7774 131.33 53.6485 131.071 53.6777C130.918 53.6949 130.791 53.6777 130.789 53.4595C130.787 53.2412 130.901 53.212 131.062 53.2343C131.358 53.2756 131.392 53.1089 131.373 52.8786C131.353 52.7649 131.353 52.6486 131.373 52.5349C131.404 52.4467 131.464 52.3716 131.543 52.3217C131.622 52.2718 131.715 52.25 131.808 52.2599C131.98 52.2599 131.882 52.4627 131.904 52.5744C131.916 52.645 131.916 52.7169 131.904 52.7875C131.863 53.1054 131.958 53.2756 132.319 53.236C132.466 53.2206 132.683 53.1553 132.697 53.4388C132.71 53.7585 132.473 53.688 132.31 53.6726C131.987 53.6433 131.887 53.7671 131.899 54.0867C131.923 54.6711 131.899 55.2571 131.91 55.8414C131.91 56.1009 131.973 56.326 132.308 56.3363C132.468 56.3363 132.71 56.2229 132.697 56.5563C132.683 56.8897 132.434 56.7591 132.286 56.8055Z" fill="#EE7232"/>
<path d="M157.698 53.6882C158.065 53.3651 158.352 53.1159 158.761 53.1726C158.889 53.1898 159.105 53.1726 159.072 53.3668C159.041 53.5215 159.041 53.7604 158.729 53.7432C158.05 53.7037 157.698 54.0646 157.698 54.7348C157.698 55.3071 157.698 55.8777 157.698 56.4534C157.698 56.6648 157.648 56.7644 157.412 56.761C157.177 56.7576 157.125 56.6579 157.127 56.4465C157.127 55.5185 157.127 54.5905 157.127 53.6624C157.127 53.5026 157.02 53.274 157.332 53.2362C157.617 53.195 157.737 53.3067 157.698 53.6882Z" fill="#EE7232"/>
<path d="M129.264 54.9682C129.264 55.4546 129.264 55.9392 129.264 56.4256C129.264 56.6198 129.247 56.7538 128.996 56.7538C128.745 56.7538 128.705 56.661 128.707 56.4462C128.716 55.4746 128.716 54.5036 128.707 53.5332C128.707 53.3184 128.764 53.2256 128.996 53.2256C129.228 53.2256 129.267 53.3596 129.264 53.5538C129.259 54.0247 129.264 54.4973 129.264 54.9682Z" fill="#EE7232"/>
<path d="M160.558 56.7437C160.302 56.7901 160.214 56.687 160.214 56.4223C160.214 56.1577 160.276 56.0786 160.546 56.0786C160.815 56.0786 160.922 56.1474 160.918 56.4361C160.915 56.7248 160.805 56.7849 160.558 56.7437Z" fill="#EE7232"/>
<path d="M126.839 56.4154C126.892 56.6766 126.784 56.7677 126.519 56.7591C126.296 56.7505 126.146 56.7419 126.149 56.4481C126.153 56.1542 126.229 56.0734 126.512 56.0786C126.768 56.0717 126.892 56.1439 126.839 56.4154Z" fill="#EE7232"/>
<path d="M128.92 52.5074C128.669 52.5298 128.709 52.3476 128.702 52.1929C128.69 51.8974 128.91 51.9936 129.061 51.9798C129.284 51.9609 129.255 52.1242 129.265 52.2668C129.283 52.5384 129.097 52.5126 128.92 52.5074Z" fill="#EE7232"/>
<path d="M32.1016 55.0767L32.2184 55.1076C32.2184 55.1179 32.2012 55.1351 32.1909 55.1368C32.1808 55.1392 32.1704 55.1392 32.1603 55.1369C32.1502 55.1346 32.1407 55.1301 32.1327 55.1237C32.1246 55.1172 32.118 55.109 32.1135 55.0997C32.109 55.0904 32.1067 55.0802 32.1067 55.0698L32.1016 55.0767Z" fill="#27B6E9"/>
<path d="M30.9619 55.9684L30.9952 55.9851L30.9985 55.9651L30.9619 55.9684Z" fill="#1B78BD"/>
<path d="M32.7041 54.2176L32.715 54.2249L32.7041 54.2158V54.2176Z" fill="#5CBFC0"/>
<path d="M29.466 6.64889C29.466 5.44589 29.466 4.2429 29.466 3.0399C29.466 2.88866 29.4179 2.69618 29.5983 2.62057C29.7788 2.54495 29.8647 2.68072 29.9798 2.75805C31.7797 3.95074 33.5779 5.14514 35.3744 6.34127C35.7972 6.62311 35.7972 6.70389 35.3572 6.99604C33.5711 8.183 31.7843 9.36881 29.997 10.5535C29.8681 10.6394 29.741 10.7752 29.5742 10.6772C29.4075 10.5793 29.466 10.3954 29.466 10.2441C29.466 9.04973 29.466 7.85017 29.466 6.64889Z" fill="white"/>
</svg>
