<svg width="18" height="18" viewBox="0 0 18 18" fill="none" xmlns="http://www.w3.org/2000/svg">
<g clip-path="url(#clip0_25_5575)">
<path d="M12.2309 3.2877C11.7884 3.2877 11.5664 3.2877 11.3647 3.2127L11.2814 3.1782C11.0857 3.0882 10.9289 2.9322 10.6154 2.6187C9.89395 1.8972 9.5332 1.53645 9.08995 1.5027C9.03 1.4991 8.96989 1.4991 8.90995 1.5027C8.4667 1.53645 8.10595 1.8972 7.38445 2.6187C7.07095 2.9322 6.9142 3.08895 6.71845 3.1782L6.63595 3.2127C6.43345 3.2877 6.2122 3.2877 5.76895 3.2877H5.68645C4.5562 3.2877 3.9907 3.2877 3.63895 3.6387C3.2872 3.9897 3.28795 4.55595 3.28795 5.6862V5.7687C3.28795 6.2112 3.28795 6.4332 3.21295 6.63495C3.20195 6.66345 3.19045 6.6912 3.17845 6.7182C3.08845 6.91395 2.93245 7.0707 2.61895 7.3842C1.89745 8.1057 1.5367 8.46645 1.50295 8.9097C1.49934 8.96965 1.49934 9.02976 1.50295 9.0897C1.5367 9.53295 1.89745 9.8937 2.61895 10.6152C2.93245 10.9287 3.0892 11.0855 3.17845 11.2812C3.19095 11.3082 3.20245 11.3357 3.21295 11.3637C3.28795 11.5662 3.28795 11.7875 3.28795 12.2307V12.3132C3.28795 13.4435 3.28795 14.009 3.63895 14.3607C3.98995 14.7125 4.5562 14.7117 5.68645 14.7117H5.76895C6.21145 14.7117 6.43345 14.7117 6.6352 14.7867C6.6637 14.7972 6.69145 14.8087 6.71845 14.8212C6.9142 14.9112 7.07095 15.0672 7.38445 15.3807C8.10595 16.1022 8.4667 16.463 8.90995 16.4967C8.96995 16.5012 9.02995 16.5012 9.08995 16.4967C9.5332 16.463 9.89395 16.1022 10.6154 15.3807C10.9289 15.0672 11.0857 14.9112 11.2814 14.8212C11.3084 14.8087 11.3359 14.7972 11.3639 14.7867C11.5664 14.7117 11.7877 14.7117 12.2309 14.7117H12.3134C13.4437 14.7117 14.0092 14.7117 14.3609 14.3607C14.7127 14.0097 14.7119 13.4435 14.7119 12.3132V12.2307C14.7119 11.7882 14.7119 11.5662 14.7869 11.3645C14.7974 11.336 14.8089 11.3082 14.8214 11.2812C14.9114 11.0855 15.0674 10.9287 15.3809 10.6152C16.1024 9.8937 16.4632 9.53295 16.4969 9.0897C16.5014 9.0297 16.5014 8.9697 16.4969 8.9097C16.4632 8.46645 16.1024 8.1057 15.3809 7.3842C15.0674 7.0707 14.9114 6.91395 14.8214 6.7182L14.7869 6.6357C14.7119 6.4332 14.7119 6.21195 14.7119 5.7687V5.6862C14.7119 4.55595 14.7119 3.99045 14.3609 3.6387C14.0099 3.28695 13.4437 3.2877 12.3134 3.2877H12.2309Z" stroke="#58585A" stroke-width="1.5" stroke-linecap="round" stroke-linejoin="round"/>
<path d="M11.625 9C11.625 9.34472 11.5571 9.68606 11.4252 10.0045C11.2933 10.323 11.0999 10.6124 10.8562 10.8562C10.6124 11.0999 10.323 11.2933 10.0045 11.4252C9.68606 11.5571 9.34472 11.625 9 11.625C8.65528 11.625 8.31394 11.5571 7.99546 11.4252C7.67698 11.2933 7.3876 11.0999 7.14384 10.8562C6.90009 10.6124 6.70673 10.323 6.57482 10.0045C6.4429 9.68606 6.375 9.34472 6.375 9C6.375 8.30381 6.65156 7.63613 7.14384 7.14384C7.63613 6.65156 8.30381 6.375 9 6.375C9.69619 6.375 10.3639 6.65156 10.8562 7.14384C11.3484 7.63613 11.625 8.30381 11.625 9Z" stroke="#58585A" stroke-width="1.5" stroke-linecap="round" stroke-linejoin="round"/>
</g>
<defs>
<clipPath id="clip0_25_5575">
<rect width="18" height="18" fill="white"/>
</clipPath>
</defs>
</svg>
