<svg width="15" height="14" viewBox="0 0 15 14" fill="none" xmlns="http://www.w3.org/2000/svg">
<path d="M0.154741 4.49823C0.478867 3.8737 0.826706 3.82626 1.60935 3.77883L4.65298 3.58119L6.23408 0.956559C6.63726 0.276686 6.83489 0 7.54639 0C7.81234 0.0283978 8.0655 0.128788 8.27863 0.290377C8.49176 0.451966 8.65678 0.668635 8.75593 0.917041L9.98919 4.00018L12.9854 4.68007C13.7759 4.88561 14.0842 4.99627 14.2819 5.67615C14.3374 5.92185 14.3239 6.1781 14.243 6.41664C14.1621 6.65517 14.0169 6.86675 13.8234 7.02801L11.2304 9.18619L11.5308 12.4828C11.5308 13.2022 11.4517 13.5342 10.8588 13.8583C10.6529 13.9569 10.4255 14.0021 10.1975 13.9897C9.96952 13.9773 9.74835 13.9076 9.55439 13.7872L9.38046 13.6765L6.70841 11.9927L3.81499 13.2338L3.57783 13.3366C3.37088 13.4221 3.14567 13.4539 2.92315 13.429C2.70062 13.4041 2.488 13.3234 2.30504 13.1943C1.75956 12.7674 1.76746 12.4037 1.86233 11.6922L2.65288 8.53005L0.391903 5.94493C0.224033 5.74844 0.113184 5.50973 0.0713751 5.25469C0.029566 4.99966 0.0583968 4.73804 0.154741 4.49823Z" fill="#E97F08"/>
<g opacity="0.5">
<g style="mix-blend-mode:screen">
<path d="M7.15909 3.60502C7.04841 4.96476 7.02469 6.33243 6.87449 7.69217C6.29889 6.23362 5.56171 4.84411 4.67676 3.54967L6.21833 0.988298C6.6057 0.340046 6.80334 0.0554548 7.44368 0.0317383L7.15909 3.60502Z" fill="#E97F08"/>
</g>
<g style="mix-blend-mode:screen">
<path d="M4.5343 9.58154C5.04508 9.62204 5.54928 9.72288 6.03634 9.88196C6.29447 9.96585 6.55881 10.0293 6.8269 10.0717C6.8269 10.214 6.8269 10.3642 6.8269 10.5144C6.8269 11.0124 6.76365 11.5105 6.72412 12.0006H6.66878L3.77537 13.2418L3.5382 13.3446C3.35696 13.4163 3.16267 13.4491 2.96792 13.441C2.77317 13.4328 2.58231 13.3838 2.40771 13.2971C2.6765 12.8544 2.96901 12.4275 3.19827 11.9769C3.6805 11.1626 4.08368 10.3642 4.5343 9.58154Z" fill="#E97F08"/>
</g>
<g style="mix-blend-mode:screen">
<path d="M8.29688 9.77124C9.3731 10.9637 10.3266 12.2615 11.1429 13.645C11.0531 13.7296 10.952 13.8015 10.8424 13.8584C10.6323 13.9724 10.3923 14.0193 10.1547 13.9928C10.0045 13.5817 9.86216 13.2022 9.68034 12.7674C9.21391 11.7634 8.72377 10.7911 8.29688 9.77124Z" fill="#E97F08"/>
</g>
<g style="mix-blend-mode:screen">
<path d="M12.8668 6.29277C12.5743 6.37973 12.2818 6.44299 11.9893 6.50624L12.6059 6.16628C13.1118 5.88959 13.6336 5.62871 14.187 5.37573C14.2325 5.4725 14.2695 5.57301 14.2977 5.67615C14.3282 5.7734 14.3442 5.87463 14.3451 5.97656C13.8391 6.13467 13.27 6.17419 12.8668 6.29277Z" fill="#E97F08"/>
</g>
<g style="mix-blend-mode:screen">
<path d="M9.58561 3.02783L9.97298 4.00022C9.22997 4.41204 8.57256 4.96212 8.03613 5.62084C8.4235 4.86981 9.15871 3.79467 9.58561 3.02783Z" fill="#E97F08"/>
</g>
<g style="mix-blend-mode:screen">
<path d="M2.20196 5.73157C2.71582 5.96083 3.22968 6.19801 3.73563 6.45889C4.06766 6.63281 4.47875 6.77509 4.81078 6.98063C4.38388 6.83833 3.87003 6.55375 3.5459 6.83045C3.42732 6.93322 3.49847 7.0755 3.5459 7.16246C3.59334 7.24943 3.82259 7.43916 3.94908 7.58937C3.48894 7.90366 3.01119 8.19136 2.51818 8.45107L0.312548 5.92921C0.0859124 5.62457 -0.0235263 5.24855 0.00423349 4.86987C0.763162 5.13866 1.49837 5.39954 2.20196 5.73157Z" fill="#E97F08"/>
</g>
</g>
<path d="M1.18203 4.62477C1.45082 4.08719 1.75123 4.04767 2.4232 4.00814L5.02411 3.83422L6.36014 1.59695C6.70798 1.01985 6.874 0.806396 7.48272 0.806396C7.71139 0.827037 7.92947 0.912342 8.11146 1.05233C8.29345 1.19233 8.43183 1.38122 8.51044 1.59695L9.56977 4.22949L12.1233 4.81449C12.7873 4.98051 13.0719 5.08329 13.2379 5.66039C13.2852 5.87171 13.2734 6.09198 13.2036 6.29699C13.1339 6.50201 13.009 6.68384 12.8427 6.8225L10.6291 8.66447L10.8821 11.4788C10.8821 12.0876 10.8188 12.3722 10.3129 12.6489C10.1378 12.7354 9.94345 12.7757 9.74836 12.766C9.55328 12.7563 9.36391 12.6969 9.19822 12.5935L9.04801 12.4986L6.76332 11.0519L4.26518 12.0559L4.05964 12.1429C3.88301 12.2189 3.68972 12.2479 3.49856 12.2272C3.30739 12.2064 3.12485 12.1365 2.96868 12.0243C2.51016 11.6607 2.51016 11.3761 2.59712 10.7436L3.2849 8.03204L1.35595 5.8264C1.22137 5.66037 1.13415 5.46105 1.10354 5.24953C1.07292 5.038 1.10004 4.82214 1.18203 4.62477Z" fill="#F6C429"/>
<g style="mix-blend-mode:screen" opacity="0.9">
<path d="M2.51816 10.7434L3.22965 8.05557L1.34814 5.84204L3.31661 8.01605L2.65255 10.7355C2.64476 10.8487 2.64476 10.9623 2.65255 11.0755C2.63676 11.1856 2.63676 11.2974 2.65255 11.4075C2.6499 11.4575 2.6499 11.5077 2.65255 11.5577L2.73161 11.6921L2.83438 11.8107L2.96877 11.9214L3.09526 12.0083C3.14375 12.0352 3.19391 12.059 3.24546 12.0795H3.40357C3.45598 12.0874 3.50928 12.0874 3.56168 12.0795C3.67108 12.0824 3.78032 12.0691 3.88581 12.04H3.96486L4.10716 11.9688L4.27318 11.9055L6.5974 10.9016H6.63692L8.78722 12.2613L8.92161 12.3799L9.06391 12.4668C9.1085 12.498 9.15619 12.5245 9.20621 12.5459C9.35275 12.6135 9.51134 12.6512 9.67264 12.6566H10.0047H10.1549L10.3051 12.5854L10.4474 12.4985L10.566 12.3957C10.6043 12.3599 10.6388 12.3202 10.6687 12.2771C10.6955 12.234 10.7193 12.1891 10.7399 12.1427C10.7593 12.0912 10.7751 12.0383 10.7873 11.9846C10.7917 11.932 10.7917 11.8791 10.7873 11.8265C10.7873 11.7158 10.7873 11.6051 10.7873 11.4866L10.5581 8.6722L12.8032 6.86975L10.6371 8.72755L10.9138 11.5182C10.9217 11.6366 10.9217 11.7555 10.9138 11.8739C10.9177 11.9318 10.9177 11.9899 10.9138 12.0478C10.9016 12.1093 10.8858 12.1701 10.8664 12.2297C10.8664 12.285 10.8031 12.3403 10.7794 12.3957C10.7416 12.4493 10.6993 12.4995 10.6529 12.5459L10.5106 12.6566L10.3604 12.7594L10.1944 12.8305C10.1316 12.8403 10.0682 12.8456 10.0047 12.8463H9.82284H9.63311C9.51367 12.8214 9.39711 12.7843 9.28527 12.7356C9.22685 12.7129 9.17116 12.6838 9.11925 12.6487H9.07182L9.00067 12.6092L6.75551 11.202L4.32061 12.2297H4.27318H4.22575H4.13879C4.0175 12.2614 3.89261 12.2774 3.76723 12.2771C3.70668 12.2811 3.64594 12.2811 3.5854 12.2771L3.39567 12.2297C3.33817 12.2081 3.28263 12.1817 3.22965 12.1506C3.11192 12.1378 2.99708 12.1058 2.88972 12.0558L2.75532 11.9372L2.62883 11.7949C2.5551 11.6877 2.504 11.5667 2.47863 11.4391C2.4629 11.3184 2.4629 11.1962 2.47863 11.0755C2.47863 10.9569 2.47863 10.8383 2.47863 10.7197L2.51816 10.7434Z" fill="#F6C429"/>
</g>
<g style="mix-blend-mode:screen" opacity="0.7">
<path d="M7.01637 6.52209C4.95834 6.39353 2.97906 5.68352 1.30859 4.47456C1.56157 4.07929 1.85407 4.03976 2.4628 4.00814L5.06371 3.83422L6.39974 1.59695C6.74758 1.01985 6.9136 0.806396 7.52232 0.806396C7.75099 0.827037 7.96907 0.912342 8.15105 1.05233C8.33304 1.19233 8.47143 1.38122 8.55004 1.59695L9.60937 4.22949L12.1629 4.81449C12.7795 4.9726 13.0641 5.06746 13.2459 5.5497C11.4276 6.65647 9.06389 6.71182 7.01637 6.52209Z" fill="#F6C429"/>
</g>
<g style="mix-blend-mode:screen" opacity="0.9">
<path d="M7.48285 3.0435C7.6459 3.43991 7.92053 3.78045 8.2734 4.02377C8.48685 4.18979 8.81098 4.31628 8.92166 4.02377C9.07977 3.54154 8.71611 2.81423 8.53429 2.38733C8.43563 2.05437 8.25327 1.75226 8.00462 1.50983C7.69631 1.28848 7.45914 1.50982 7.38008 1.84976C7.29357 2.24896 7.32938 2.66497 7.48285 3.0435Z" fill="#F6C429"/>
</g>
<g style="mix-blend-mode:screen" opacity="0.9">
<path d="M9.09545 4.64847C9.09203 4.62477 9.09378 4.60061 9.10057 4.57764C9.10737 4.55467 9.11906 4.53344 9.13483 4.51542C9.1506 4.4974 9.17008 4.48301 9.19194 4.47322C9.2138 4.46344 9.23752 4.4585 9.26147 4.45875C9.45911 4.45875 9.64884 4.67218 9.71208 4.8382C9.73354 4.8788 9.74232 4.92491 9.73727 4.97055C9.73222 5.01619 9.71358 5.05927 9.68376 5.0942C9.65395 5.12912 9.61433 5.15428 9.57005 5.16643C9.52576 5.17858 9.47885 5.17715 9.43539 5.16233C9.34006 5.1138 9.26257 5.0363 9.21404 4.94097C9.14114 4.86058 9.09912 4.75694 9.09545 4.64847C9.09545 4.65638 9.09545 4.64847 9.09545 4.64847Z" fill="#F6C429"/>
</g>
</svg>
