<svg width="20" height="20" viewBox="0 0 20 20" fill="none" xmlns="http://www.w3.org/2000/svg">
<g clip-path="url(#clip0_195_25626)">
<path d="M18.6076 4.3039C18.6076 3.46846 17.9241 2.78491 17.0886 2.78491H5.69575C4.8603 2.78491 4.17676 3.46846 4.17676 4.3039V18.4811C4.17676 19.3166 4.8603 20.0001 5.69575 20.0001H14.3026L18.6064 15.9495L18.6076 4.3039Z" fill="#DADEE0"/>
<path d="M4.1769 4.3038C4.1769 3.46835 4.86044 2.78481 5.69589 2.78481H15.823V1.51899C15.823 0.683544 15.1394 0 14.304 0H2.91108C2.07563 0 1.39209 0.683544 1.39209 1.51899V15.6962C1.39209 16.5316 2.07563 17.2152 2.91108 17.2152H4.1769V4.3038Z" fill="#FF9B0B"/>
<path d="M15.8222 15.9495H18.607L14.3032 20.0001V17.4685C14.3032 16.633 14.9868 15.9495 15.8222 15.9495Z" fill="#F2F2F2"/>
<path d="M7.97447 9.49378H14.8099C14.9106 9.49378 15.0072 9.45377 15.0784 9.38255C15.1497 9.31133 15.1897 9.21474 15.1897 9.11403C15.1897 9.06415 15.1799 9.01476 15.1608 8.96868C15.1417 8.9226 15.1137 8.88073 15.0785 8.84546C15.0432 8.8102 15.0013 8.78223 14.9553 8.76315C14.9092 8.74407 14.8598 8.73426 14.8099 8.73428H7.97447C7.9246 8.73426 7.87521 8.74407 7.82913 8.76315C7.78305 8.78223 7.74117 8.8102 7.70591 8.84546C7.67064 8.88073 7.64267 8.9226 7.62359 8.96868C7.60452 9.01476 7.59471 9.06415 7.59473 9.11403C7.59473 9.21474 7.63474 9.31133 7.70595 9.38255C7.77717 9.45377 7.87376 9.49378 7.97447 9.49378ZM7.97447 6.96213H14.8099C14.9106 6.96213 15.0072 6.92212 15.0784 6.85091C15.1497 6.77969 15.1897 6.6831 15.1897 6.58238C15.1897 6.53251 15.1799 6.48312 15.1608 6.43704C15.1417 6.39096 15.1137 6.34908 15.0785 6.31382C15.0432 6.27855 15.0013 6.25058 14.9553 6.2315C14.9092 6.21243 14.8598 6.20262 14.8099 6.20264H7.97447C7.9246 6.20262 7.87521 6.21243 7.82913 6.2315C7.78305 6.25058 7.74117 6.27855 7.70591 6.31382C7.67064 6.34908 7.64267 6.39096 7.62359 6.43704C7.60452 6.48312 7.59471 6.53251 7.59473 6.58238C7.59473 6.6831 7.63474 6.77969 7.70595 6.85091C7.77717 6.92212 7.87376 6.96213 7.97447 6.96213ZM7.97447 12.0254H14.8099C14.9106 12.0254 15.0072 11.9854 15.0784 11.9142C15.1497 11.843 15.1897 11.7464 15.1897 11.6457C15.1897 11.5958 15.1799 11.5464 15.1608 11.5003C15.1417 11.4542 15.1137 11.4124 15.0785 11.3771C15.0432 11.3418 15.0013 11.3139 14.9553 11.2948C14.9092 11.2757 14.8598 11.2659 14.8099 11.2659H7.97447C7.9246 11.2659 7.87521 11.2757 7.82913 11.2948C7.78305 11.3139 7.74117 11.3418 7.70591 11.3771C7.67064 11.4124 7.64267 11.4542 7.62359 11.5003C7.60452 11.5464 7.59471 11.5958 7.59473 11.6457C7.59473 11.7464 7.63474 11.843 7.70595 11.9142C7.77717 11.9854 7.87376 12.0254 7.97447 12.0254ZM7.97447 14.5571H11.7719C11.8727 14.5571 11.9692 14.5171 12.0405 14.4458C12.1117 14.3746 12.1517 14.278 12.1517 14.1773C12.1517 14.1274 12.1419 14.0781 12.1228 14.032C12.1038 13.9859 12.0758 13.944 12.0405 13.9087C12.0053 13.8735 11.9634 13.8455 11.9173 13.8264C11.8712 13.8074 11.8218 13.7975 11.7719 13.7976H7.97447C7.9246 13.7975 7.8752 13.8074 7.82912 13.8264C7.78304 13.8455 7.74116 13.8735 7.70589 13.9087C7.67063 13.944 7.64265 13.9859 7.62358 14.032C7.6045 14.0781 7.5947 14.1274 7.59473 14.1773C7.59473 14.278 7.63474 14.3746 7.70595 14.4458C7.77717 14.5171 7.87376 14.5571 7.97447 14.5571Z" fill="#1F4254"/>
</g>
<defs>
<clipPath id="clip0_195_25626">
<rect width="20" height="20" fill="white"/>
</clipPath>
</defs>
</svg>
